<svg xmlns="http://www.w3.org/2000/svg" class="svg-icon svg-home-icon" xmlns:xlink="http://www.w3.org/1999/xlink" version="1.1" x="0px" y="0px" viewBox="0 0 100 125" enable-background="new 0 0 100 100" xml:space="preserve"><path fill="#fff" d="M11.779,53.191v40.218c0,0.734,0.294,1.458,0.814,1.976s1.24,0.813,1.978,0.813h22.483V66.667  c0-0.737,0.292-1.461,0.814-1.978c0.518-0.521,1.24-0.819,1.971-0.819h19.203c0.737,0,1.451,0.299,1.974,0.819  c0.521,0.517,0.814,1.24,0.814,1.978v29.531h22.487c0.741,0,1.446-0.285,1.973-0.813c0.521-0.527,0.814-1.231,0.814-1.976V53.139  L49.035,23.54L11.779,53.191z"/><path fill="#fff" d="M95.549,40.734L52.845,7.886c-2.002-1.542-4.806-1.542-6.811,0L23.159,25.482v-8.885H11.989v17.474  l-8.653,6.66c-2.442,1.881-2.901,5.388-1.02,7.829c1.096,1.429,2.754,2.179,4.425,2.179c0.612,0,1.226-0.103,1.819-0.306  l39.162-31.16c0.754-0.602,1.814-0.608,2.57-0.02l40.119,31.191c2.188,0.711,4.674,0.046,6.159-1.884  C98.452,46.119,97.992,42.613,95.549,40.734z"/>
</svg>
