<svg xmlns="http://www.w3.org/2000/svg" class="svg-icon svg-items-icon" xmlns:xlink="http://www.w3.org/1999/xlink" version="1.1" x="0px" y="0px" viewBox="0 0 100 125" enable-background="new 0 0 100 100" xml:space="preserve"><circle cx="21" cy="22.584" r="10"/><circle cx="21" cy="50" r="10"/><path d="M31,77.418c0,5.523-4.478,9.998-10,9.998c-5.523,0-10-4.475-10-9.998c0-5.525,4.477-10.002,10-10.002  C26.522,67.416,31,71.893,31,77.418z"/><path d="M79.001,12.583H50c-5.522,0-10,4.477-10,10.001c0,5.523,4.478,9.999,10,9.999h29.001c5.521,0,10-4.476,10-9.999  C89.001,17.061,84.522,12.583,79.001,12.583z"/><path fill="#fff" d="M79.001,40H50c-5.522,0-10,4.477-10,10.001C40,55.523,44.478,60,50,60h29.001c5.521,0,10-4.477,10-9.999  C89.001,44.477,84.522,40,79.001,40z"/><path fill="#fff" d="M79.001,67.416H50c-5.522,0-10,4.477-10,10.001c0,5.522,4.478,9.999,10,9.999h29.001c5.521,0,10-4.477,10-9.999  C89.001,71.893,84.522,67.416,79.001,67.416z"/>
</svg>
