<svg xmlns="http://www.w3.org/2000/svg" class="svg-icon svg-map-icon" xmlns:xlink="http://www.w3.org/1999/xlink" version="1.1" x="0px" y="0px" viewBox="-255 347 100 125" enable-background="new -255 347 100 100" xml:space="preserve"><path fill-rule="evenodd" fill="#fff" clip-rule="evenodd" d="M-186.6,432.5l-17.9,5l-18-5l-18,5l10-32l6-1.4l20,26.4l20-26.4l6,1.4l10,32  L-186.6,432.5z M-182.5,397.5l-22,30l-22-30h0.1c-2.6-4-4.1-8.8-4.1-14c0-14.4,11.6-26,26-26c14.4,0,26,11.6,26,26  c0,5.2-1.5,10-4.1,14H-182.5z M-204.5,373.5c-5.5,0-10,4.5-10,10s4.5,10,10,10c5.5,0,10-4.5,10-10S-199,373.5-204.5,373.5z"/>
</svg>
