<svg xmlns="http://www.w3.org/2000/svg" class="svg-icon svg-search-icon" xmlns:xlink="http://www.w3.org/1999/xlink" version="1.1" x="0px" y="0px" viewBox="0 0 100 125" enable-background="new 0 0 100 100" xml:space="preserve"><g><path fill="#fff" d="M83.535,76.464L64.438,57.368C67.935,52.462,70,46.469,70,40c0-16.542-13.458-30-30-30S10,23.458,10,40s13.458,30,30,30   c6.469,0,12.462-2.065,17.368-5.562l19.097,19.097C77.44,84.512,78.721,85,80,85s2.56-0.488,3.535-1.464   C85.488,81.583,85.488,78.417,83.535,76.464z M40,60c-11.046,0-20-8.954-20-20s8.954-20,20-20s20,8.954,20,20S51.046,60,40,60z"/></g>
</svg>
