<svg height="24px" version="1.1" viewBox="0 0 24 24" width="24px" xmlns="http://www.w3.org/2000/svg" xmlns:sketch="http://www.bohemiancoding.com/sketch/ns" xmlns:xlink="http://www.w3.org/1999/xlink"><title/><desc/><defs/><g fill="#fff" fill-rule="evenodd" id="miu" stroke="none" stroke-width="1"><g id="Artboard-1" transform="translate(-899.000000, -155.000000)"><g id="slice" transform="translate(215.000000, 119.000000)"/><path fill="#fff" d="M921.453,168 C920.94944,173.329933 916.461706,177.5 911,177.5 C906.254721,177.5 902.244656,174.35218 900.944025,170.030762 L903.056228,170.030762 C904.277007,173.228605 907.373247,175.5 911,175.5 C915.356107,175.5 918.946869,172.22317 919.441797,168 L918,168 L920.5,165 L923,168 L921.453,168 Z M900.690247,165 C901.624106,160.157561 905.884918,156.5 911,156.5 C915.377519,156.5 919.129367,159.178814 920.705676,162.986572 L918.494709,162.986572 C917.061626,160.316023 914.242891,158.5 911,158.5 C906.994459,158.5 903.636034,161.270635 902.73663,165 L904,165 L901.5,168 L899,165 L900.690247,165 L900.690247,165 Z" id="circle-sync-backup-2-glyph" transform="translate(911.000000, 167.000000) rotate(-45.000000) translate(-911.000000, -167.000000) "/></g></g></svg>
