<svg enable-background="new 0 0 72 58" class="svg-icon svg-user-icon" height="58px" id="Layer_1" version="1.1" viewBox="0 0 72 58" width="72px" xml:space="preserve" xmlns="http://www.w3.org/2000/svg" xmlns:xlink="http://www.w3.org/1999/xlink"><g><path fill="#fff" d="M67.693,37H61v-6.693C61,28,59.142,26,56.835,26h-1.671C52.858,26,51,28,51,30.307V37h-6.694   C42,37,40,38.857,40,41.164v1.671C40,45.141,42,47,44.306,47H51v6.693C51,56,52.858,58,55.164,58h1.671C59.142,58,61,56,61,53.693   V47h6.693C70,47,72,45.141,72,42.835v-1.671C72,38.857,70,37,67.693,37z"/><circle cx="31.5" cy="13.5" fill="#fff" r="13.5"/><path fill="#fff" d="M46,52h-1.694C39.175,52,35,47.889,35,42.835v-1.671C35,36.111,39.175,32,44.306,32H46v-1H16.995   C9.182,36.436,3.059,46.132,0.048,58h47C46.382,56.711,46,55.247,46,53.693V52z"/></g></svg>
