<svg xmlns="http://www.w3.org/2000/svg" class="svg-icon svg-users-icon" xmlns:xlink="http://www.w3.org/1999/xlink" version="1.1" x="0px" y="0px" viewBox="0 0 100 100" enable-background="new 0 0 100 100" xml:space="preserve"><path fill="#fff" d="M61.58,47.513c4.583-3.373,7.559-8.945,7.559-15.072c0-10.235-8.297-18.604-18.532-18.604  c-10.235,0-18.532,8.262-18.532,18.497c0,6.127,2.976,11.824,7.559,15.197c-10.485,4.252-17.868,14.979-17.868,26.979  c0,16,57.683,16,57.683,0C79.448,62.511,72.064,51.765,61.58,47.513z"></path><path fill="#fff" d="M82.841,47.976c3.37-2.479,5.557-6.518,5.557-11.023c0-7.525-6.1-13.648-13.625-13.648c-1.69,0-3.307,0.31-4.8,0.871  c1.068,2.522,1.66,5.293,1.66,8.201c0,5.364-2.051,10.508-5.621,14.375c9.789,5.473,15.931,15.89,15.931,27.504  c0,0.458-0.037,0.942-0.121,1.442c7.795-0.98,14.157-3.643,14.157-7.99C95.979,58.355,90.55,51.103,82.841,47.976z"></path><path fill="#fff" d="M19.27,74.256c0-11.401,5.927-21.646,15.413-27.193c0.145-0.133,0.286-0.271,0.425-0.409  c-3.512-3.863-5.529-8.984-5.529-14.335c0-2.76,0.541-5.395,1.514-7.812c-1.705-0.77-3.594-1.202-5.585-1.202  c-7.525,0-13.625,6.089-13.625,13.614c0,4.506,2.188,8.584,5.557,11.063C9.732,51.109,4.303,58.355,4.303,67.708  c0,4.522,6.885,7.222,15.106,8.1C19.312,75.269,19.27,74.749,19.27,74.256z"></path></svg>
