<?xml version="1.0" standalone="no"?>
<!DOCTYPE svg PUBLIC "-//W3C//DTD SVG 1.1//EN" "http://www.w3.org/Graphics/SVG/1.1/DTD/svg11.dtd" >
<svg>
<metadata>
Created by FontForge 20120731 at Thu Jul 21 17:05:39 2016
 By ,,,
(c)levi@loremipsum.ro 2014
</metadata>
<defs>
<font id="Rubber" horiz-adv-x="1200" >
  <font-face 
    font-family="Rubber"
    font-weight="400"
    font-stretch="normal"
    units-per-em="2048"
    panose-1="2 11 7 6 3 5 2 3 2 4"
    ascent="1638"
    descent="-410"
    x-height="1592"
    cap-height="1600"
    bbox="-300 -600 3126 2201"
    underline-thickness="162"
    underline-position="-114"
    unicode-range="U+0020-F000"
  />
<missing-glyph horiz-adv-x="1000" 
d="M100 1q-41 0 -70 30q-30 29 -30 69v1400q0 41 29.5 70.5t70.5 29.5h600q41 0 70.5 -29.5t29.5 -70.5h1v-1400h-1q0 -40 -29 -69q-30 -30 -71 -30v-1h-600v1zM601 1400h-401v-1200h401v1200z" />
    <glyph glyph-name=".notdef" horiz-adv-x="1000" 
d="M100 1q-41 0 -70 30q-30 29 -30 69v1400q0 41 29.5 70.5t70.5 29.5h600q41 0 70.5 -29.5t29.5 -70.5h1v-1400h-1q0 -40 -29 -69q-30 -30 -71 -30v-1h-600v1zM601 1400h-401v-1200h401v1200z" />
    <glyph glyph-name=".null" horiz-adv-x="0" 
 />
    <glyph glyph-name="nonmarkingreturn" horiz-adv-x="600" 
 />
    <glyph glyph-name="space" unicode=" " horiz-adv-x="800" 
 />
    <glyph glyph-name="exclam" unicode="!" horiz-adv-x="800" 
d="M501 1600q41 0 71 -29q29 -30 29 -71v-1400q0 -44 -29 -72q-28 -28 -71 -28h-401q-44 0 -72 28q-28 29 -28 72v1400q0 41 29 71q30 29 71 29h401zM401 400h-201v-200h201v200zM401 600v800h-201v-800h201z" />
    <glyph glyph-name="quotedbl" unicode="&#x22;" horiz-adv-x="1600" 
d="M515 888q85 86 85 212v600q0 42 -28 71q-29 29 -72 29h-400q-43 0 -72 -29q-28 -28 -28 -71v-400q0 -41 28 -70q29 -30 72 -30h300v-100q0 -41 -29 -70q-30 -30 -71 -30t-70 -29q-30 -30 -30 -71t30 -70q29 -30 70 -30q129 0 215 88zM200 1400v200h200v-200h-200z
M1315 888q85 87 85 213v600q-1 42 -29 70q-28 30 -71 30h-400q-43 0 -72 -29q-28 -29 -28 -71v-400q0 -42 28 -71q29 -29 72 -29h300v-100q0 -41 -29 -71q-30 -29 -71 -29t-70 -30q-30 -29 -30 -70t29 -71q30 -29 71 -29q129 0 215 87zM1000 1401v200h200v-200h-200z" />
    <glyph glyph-name="numbersign" unicode="#" horiz-adv-x="2453" 
d="M2136 1483q117 -117 117 -283t-117 -283t-283 -117t-283 117t-117 283t117 283t283 117t283 -117zM556 1600l4 -1h3l1 -1h1q54 -10 75 -60l605 -1393q16 -39 1 -78q-16 -40 -55 -56q-38 -17 -78 -1q-39 15 -56 54l-580 1336h-221l544 -1255q17 -39 2 -78q-16 -40 -55 -56
q-38 -17 -78 -1q-39 15 -56 54l-413 952v-916q0 -41 -29 -71q-30 -29 -71 -29t-70 30q-30 29 -30 70v1400q1 43 28 71q29 29 72 29h456zM1082 1570q-29 -29 -29 -70v-402l200 -461v863q0 41 -29 71q-30 29 -71 29t-71 -30zM2153 200q41 0 71 -29q29 -30 29 -71t-30 -70
q-29 -30 -70 -30h-600q-41 0 -71 29q-29 30 -29 71t29 70q30 30 71 30h600zM2153 600q41 0 71 -29q29 -30 29 -71t-30 -70q-29 -30 -70 -30h-600q-41 0 -71 29q-29 30 -29 71t29 70q30 30 71 30h600zM1853 1400q-83 0 -141 -59q-59 -58 -59 -141t59 -141q58 -59 141 -59
t141 59q59 58 59 141t-59 141q-58 59 -141 59z" />
    <glyph glyph-name="dollar" unicode="$" 
d="M198 387q143 -187 303 -187q124 0 212 88t88 212q0 103 -51 167l-320 362q-30 30 -30 71q0 42 30 71q29 29 71 29q44 0 74 -34l326 -367q100 -116 100 -299q0 -171 -123 -313q-116 -133 -277 -173v-114q0 -41 -30 -70q-29 -30 -70 -30q-42 0 -71 30q-30 29 -30 70v108
q-185 32 -349 239q-35 44 -35 82q0 42 29 71t71 29q52 0 82 -42zM571 1771q30 -30 30 -71v-108q186 -32 349 -239q35 -44 35 -82q0 -41 -29 -71q-29 -29 -71 -29q-52 0 -82 42q-143 187 -302 187q-125 0 -213 -88t-88 -212q0 -91 51 -166l320 -363q30 -30 30 -71t-30 -71
q-29 -29 -70 -29q-45 0 -75 34l-326 367q-100 133 -100 299q0 172 123 314q116 133 277 173v113q0 41 30 71q29 29 71 29q41 0 70 -29z" />
    <glyph glyph-name="percent" unicode="%" horiz-adv-x="2400" 
d="M400 1598q-166 0 -283 -117t-117 -282q0 -166 117 -283t283 -117q165 0 283 117q117 117 117 283q0 165 -117 282q-118 117 -283 117zM541 1340q59 -58 59 -141t-59 -141q-58 -59 -141 -59t-142 59q-58 58 -58 141t58 141q59 59 142 59t141 -59zM1859 799
q-165 0 -283 -117q-117 -117 -117 -282q0 -166 117 -283q118 -117 283 -117q166 0 283 117t117 283q0 165 -117 282t-283 117zM2001 541q58 -59 58 -141q0 -83 -58 -142q-59 -58 -142 -58t-141 58q-59 59 -59 142q0 82 59 141q58 58 141 58t142 -58zM1496 1600q19 -1 38 -9
q39 -16 54 -56q8 -35 -1 -78l-305 -1393q-22 -53 -81 -60q-8 -4 -19 -4h-400q-9 0 -23 3q-19 2 -33 8q-39 16 -54 56q-16 39 1 78l305 1393q16 39 56 54q18 7 36 8h426zM1153 1400l-263 -1200h217l263 1200h-217z" />
    <glyph glyph-name="ampersand" unicode="&#x26;" horiz-adv-x="1600" 
d="M500 1400q-124 0 -212 -88t-88 -212q0 -91 50 -167l674 -762q29 -30 29 -71t-29 -71q-29 -29 -71 -29q-44 0 -74 34l-30 33q-117 -67 -249 -67q-207 0 -354 146q-146 147 -146 354q0 166 100 300v1q-100 133 -100 299q0 200 161 353q155 147 339 147q209 0 354 -144
q146 -145 146 -356q0 -166 -100 -300l183 -207q225 256 227 254q31 34 75 34q41 0 71 -29q29 -29 29 -71q0 -41 -29 -71q-50 -55 -239 -268l239 -271q29 -29 29 -70q0 -42 -29 -71q-30 -29 -71 -29q-44 0 -75 34l-416 469q-433 490 -465 525q-29 30 -29 71t29 71
q30 29 71 29q44 0 75 -34l187 -211q38 69 38 145q0 139 -105 228q-91 72 -195 72zM424 433q-124 142 -186 212q-38 -69 -38 -145q0 -124 88 -212t212 -88q57 0 111 22q-63 71 -187 211z" />
    <glyph glyph-name="quotesingle" unicode="'" horiz-adv-x="800" 
d="M515 888q85 86 85 212v600q0 42 -28 71q-29 29 -72 29h-400q-43 0 -72 -29q-28 -28 -28 -71v-400q0 -41 28 -70q29 -30 72 -30h300v-100q0 -41 -29 -70q-30 -30 -71 -30t-70 -29q-30 -30 -30 -71t30 -70q29 -30 70 -30q129 0 215 88zM200 1400v200h200v-200h-200z" />
    <glyph glyph-name="parenleft" unicode="(" horiz-adv-x="1000" 
d="M200 395q2 -81 60 -138q59 -57 140 -57v1200q-83 0 -141 -59q-59 -58 -59 -141v-805zM0 1200q0 166 117 283t283 117h300q41 0 71 -29q29 -30 29 -71t-30 -70q-29 -30 -70 -30h-100v-1200h100q41 0 71 -29q29 -30 29 -71t-30 -70q-29 -30 -70 -30h-300q-166 0 -283 117
t-117 283v800z" />
    <glyph glyph-name="parenright" unicode=")" horiz-adv-x="1000" 
d="M600 1200q0 83 -59 141q-58 59 -141 59v-1200q81 0 140 57q58 57 60 138v805zM800 400q0 -166 -117 -283t-283 -117h-300q-41 0 -70 30q-30 29 -30 70t29 71q30 29 71 29h100v1200h-100q-41 0 -70 30q-30 29 -30 70t29 71q30 29 71 29h300q166 0 283 -117t117 -283v-800z
" />
    <glyph glyph-name="asterisk" unicode="*" horiz-adv-x="800" 
d="M29 1629q-29 29 -29 71t29 71t70.5 29t70.5 -29l71 -71l71 71q29 29 70 29t71 -30q29 -29 29 -70t-29 -71l-70 -70l70 -71q30 -30 30 -71t-30 -71q-29 -29 -70 -29t-71 29l-71 71l-59 -59l-10 -12q-30 -29 -71.5 -29t-70.5 29q-29 30 -29 71t29 70l-1 1l71 71z" />
    <glyph glyph-name="plus" unicode="+" horiz-adv-x="1600" 
d="M902 800h-1q-41 0 -70.5 29t-29.5 71v300h-199v-301h-1q0 -40 -29 -69q-29 -30 -71 -30h-300v-198h301v-2q40 0 70 -29q29 -29 29 -70h1v-301h198v301h1q0 40 29 70q29 29 71 29h300v199h-299v1zM101 1000h301v285q-1 7 -1 15q0 41 29.5 70.5t70.5 29.5h400
q41 0 70.5 -29t29.5 -71v-301h286q7 1 15 1q41 0 70.5 -29.5t29.5 -70.5q0 -8 -1 -15v-385q0 -42 -29 -71t-70 -29h-302v-285q1 -7 1 -15q0 -41 -29 -70.5t-71 -29.5h-400q-41 0 -70.5 29.5t-29.5 70.5q0 8 1 15v287h-281q-10 -2 -21 -2q-41 0 -70.5 29.5t-29.5 70.5
q0 8 1 15v385q0 42 29.5 71t70.5 29z" />
    <glyph glyph-name="comma" unicode="," horiz-adv-x="800" 
d="M515 -312q85 86 85 212v600q0 42 -28 71q-29 29 -72 29h-400q-43 0 -72 -29q-28 -28 -28 -71v-400q0 -41 28 -70q29 -30 72 -30h300v-100q0 -41 -29 -70q-30 -30 -71 -30t-70 -29q-30 -30 -30 -71t30 -70q29 -30 70 -30q129 0 215 88zM200 200v200h200v-200h-200z" />
    <glyph glyph-name="hyphen" unicode="-" 
d="M100 401q-41 0 -70 30q-30 29 -30 69v400q0 41 29.5 70.5t70.5 29.5h800q41 0 70.5 -29.5t29.5 -70.5h1v-400h-1q0 -40 -29 -69q-30 -30 -71 -30v-1h-800v1zM801 800h-601v-200h601v200z" />
    <glyph glyph-name="period" unicode="." horiz-adv-x="800" 
d="M512 512q88 -88 88 -212t-88 -212t-212 -88t-212 88t-88 212t88 212t212 88t212 -88zM300 400q-41 0 -70.5 -29.5t-29.5 -70.5t29.5 -70.5t70.5 -29.5t70.5 29.5t29.5 70.5t-29.5 70.5t-70.5 29.5z" />
    <glyph glyph-name="slash" unicode="/" horiz-adv-x="1099" 
d="M836 1600q19 -1 38 -9q39 -16 54 -56q8 -35 -1 -78l-305 -1393q-22 -53 -81 -60q-8 -4 -19 -4h-400q-9 0 -23 3q-19 2 -33 8q-39 16 -54 56q-16 39 1 78l305 1393q16 39 56 54q18 7 36 8h426zM493 1400l-263 -1200h217l263 1200h-217z" />
    <glyph glyph-name="zero" unicode="0" horiz-adv-x="1800" 
d="M1200 800q0 -166 -117 -283t-283 -117t-283 117t-117 283t117 283t283 117t283 -117t117 -283zM800 1000q-83 0 -141.5 -58.5t-58.5 -141.5t58.5 -141.5t141.5 -58.5t141.5 58.5t58.5 141.5t-58.5 141.5t-141.5 58.5zM800 1400q-249 0 -424.5 -175.5t-175.5 -424.5
t175.5 -424.5t424.5 -175.5t424.5 175.5t175.5 424.5t-175.5 424.5t-424.5 175.5zM1365.5 1365.5q234.5 -234.5 234.5 -565.5t-234.5 -565.5t-565.5 -234.5t-565.5 234.5t-234.5 565.5t234.5 565.5t565.5 234.5t565.5 -234.5z" />
    <glyph glyph-name="one" unicode="1" 
d="M701 1600q41 0 70 -29q30 -30 30 -71v-1300h100q41 0 71 -29q29 -30 29 -71t-29 -71q-30 -29 -71 -29h-801q-41 0 -71 29q-29 30 -29 71t29 71q30 29 71 29h100v900q0 41 30 71q29 29 70 29q42 0 71 -29q29 -30 29 -71v-900h201v1200h-501q-41 0 -71 29q-29 30 -29 71
t29 71q30 29 71 29h601z" />
    <glyph glyph-name="two" unicode="2" 
d="M197 1213q143 187 303 187q124 0 211 -88q88 -88 88 -212q0 -91 -50 -166l-317 -359q-45 -51 -25 -112q21 -62 93 -63h399q41 0 71 29q29 30 29 71t-29 70q-30 30 -71 30h-177l177 201q100 133 100 299q0 201 -161 354q-154 146 -338 146q-154 0 -267 -71
q-86 -54 -182 -176q-35 -44 -35 -82q0 -42 29 -71t71 -29q51 0 81 42zM200 200h699q41 0 71 -29q29 -30 29 -71t-30 -70q-29 -30 -70 -30h-799q-41 0 -71 29q-29 30 -29 71v405q2 164 100 294l325 367q30 34 75 34q41 0 70 -29q29 -30 29 -71t-29 -71l-320 -363
q-50 -75 -50 -166v-300z" />
    <glyph glyph-name="three" unicode="3" 
d="M304 1600q205 -2 350 -148q145 -147 145 -352q0 -25 -2 -50q202 -180 202 -450q0 -249 -175 -424q-176 -176 -425 -176h-300q-40 0 -70 29q-30 30 -30 71t30 70q29 30 70 30h300q166 0 283 117t117 283q0 129 -77 235q-68 -108 -178 -170q-113 -65 -245 -65h-200
q-43 0 -71 28q-29 29 -29 72v400q0 41 30 71q29 29 70 29h200q42 0 71 -29q29 -30 29 -71q0 -40 -29 -70q-30 -30 -71 -30h-100v-200h100q124 0 212 88t88 212t-88 212t-212 88h-200q-41 0 -70 29q-30 30 -30 71t30 70q29 30 70 30h205z" />
    <glyph glyph-name="four" unicode="4" 
d="M500 1600q41 0 71 -29q29 -30 29 -71v-700h200v700q0 41 29 71q30 29 71 29t70 -30q30 -29 30 -70v-800q0 -41 -29 -71q-30 -29 -71 -29h-400q-41 0 -71 29q-29 30 -29 71v700h-200v-1000h700q41 0 71 -29q29 -30 29 -71v-200q0 -41 -30 -70q-29 -30 -70 -30t-71 29
q-29 30 -29 71v100h-700q-41 0 -71 29q-29 30 -29 71v1200q0 41 29 71q30 29 71 29h400z" />
    <glyph glyph-name="five" unicode="5" 
d="M899 1600q41 0 71 -30q29 -29 29 -70t-30 -71q-29 -29 -70 -29h-700v-200h700q41 0 71 -30q29 -29 29 -70t-30 -71q-29 -29 -70 -29h-700v-200h305q205 -2 350 -149q145 -146 145 -351q0 -207 -147 -354q-146 -146 -353 -146t-353 146q-147 147 -147 354q0 38 27 67
q26 29 64 32l409 1q41 0 71 -30q29 -29 29 -70t-30 -71q-29 -29 -70 -29h-283q32 -89 108 -144q79 -56 175 -56q124 0 212 88t88 212q0 123 -88 211q-88 89 -212 89h-400q-39 0 -69 26q-30 28 -30 65l-1 809q0 42 28 70q29 30 72 30h800z" />
    <glyph glyph-name="six" unicode="6" 
d="M599 990q173 -35 286 -172q114 -138 114 -318q0 -207 -146 -353q-147 -147 -353 -147q-207 0 -354 147q-146 146 -146 353v600q0 201 161 354q154 146 339 146q153 0 266 -71q86 -54 182 -176q35 -44 35 -82q0 -42 -29 -71t-71 -29q-51 0 -81 42q-143 187 -302 187
q-125 0 -212 -88q-88 -88 -88 -212v-600q0 -124 88 -212q87 -88 212 -88q124 0 211 88q88 88 88 212q0 97 -56 175q-55 77 -144 108v-283q0 -41 -29 -71q-29 -29 -70 -29t-71 30q-29 29 -29 70v600q0 41 29 71q29 29 71 29q40 0 70 -30q29 -29 29 -70v-110z" />
    <glyph glyph-name="seven" unicode="7" 
d="M1004 1534q-15 39 -54 56q-39 16 -78 1q-39 -16 -56 -54l-336 -1337h-247l345 1253q21 49 -9 98q-31 49 -86 49h-383q-41 0 -70 -29q-30 -30 -30 -71t30 -70q29 -30 70 -30h254l-346 -1255q-16 -60 11 -102q29 -43 93 -43h447q36 0 64 23q26 23 34 57l346 1376
q17 39 1 78z" />
    <glyph glyph-name="eight" unicode="8" horiz-adv-x="1400" 
d="M954 1454q146 -147 146 -354q0 -69 -20 -139q120 -161 120 -361q0 -248 -176 -424t-424 -176t-424 176t-176 424q0 200 120 361q-20 70 -20 139q0 207 146 354q147 146 354 146t354 -146zM600 500q-34 0 -66 29q-34 32 -34 71q0 56 48 86l214 173q138 102 138 241
q0 124 -88 212t-212 88t-212 -88t-88 -212q0 -99 61 -180q-161 -121 -161 -320q0 -165 117 -283q117 -117 283 -117q165 0 283 117q117 118 117 283q0 94 -42 179l-284 -245q-30 -34 -74 -34zM671 1171q29 -30 29 -71t-29 -71q-30 -29 -71 -29t-71 29q-29 30 -29 71t29 71
q30 29 71 29t71 -29z" />
    <glyph glyph-name="nine" unicode="9" 
d="M400 610q-173 35 -286 172q-114 138 -114 318q0 207 146 354q147 146 354 146q206 0 353 -146q146 -147 146 -354v-600q0 -201 -161 -353q-154 -147 -338 -147q-154 0 -267 71q-86 54 -182 176q-35 44 -35 82q0 42 29 71t71 29q51 0 81 -42q143 -187 303 -187
q124 0 211 88q88 88 88 212v600q0 124 -88 212q-87 88 -211 88q-125 0 -212 -88q-88 -88 -88 -212q0 -96 56 -175q55 -77 144 -108v283q0 41 29 71q29 29 71 29q40 0 70 -30q29 -29 29 -70v-600q0 -41 -29 -71q-29 -29 -70 -29t-71 30q-29 29 -29 70v110z" />
    <glyph glyph-name="colon" unicode=":" horiz-adv-x="800" 
d="M510 1312q88 -88 88 -212t-88 -212t-212 -88t-212 88t-88 212t88 212t212 88t212 -88zM298 1200q-41 0 -70.5 -29.5t-29.5 -70.5t29.5 -70.5t70.5 -29.5t70.5 29.5t29.5 70.5t-29.5 70.5t-70.5 29.5zM298 400q-41 0 -70.5 -29t-29.5 -71q0 -41 29.5 -70.5t70.5 -29.5
q42 0 71 29.5t29 70.5q0 42 -29 71t-71 29zM510 512.5q88 -87.5 88 -212.5q0 -124 -88 -212t-212 -88t-212 88t-88 212q0 125 88 212.5t212 87.5t212 -87.5z" />
    <glyph glyph-name="semicolon" unicode=";" horiz-adv-x="800" 
d="M515 -312q85 86 85 212v600q0 42 -28 71q-29 29 -72 29h-400q-43 0 -72 -29q-28 -28 -28 -71v-400q0 -41 28 -70q29 -30 72 -30h300v-100q0 -41 -29 -70q-30 -30 -71 -30t-70 -29q-30 -30 -30 -71t30 -70q29 -30 70 -30q129 0 215 88zM200 200v200h200v-200h-200z
M100 800q-41 0 -70 29q-30 29 -30 70v400q0 41 29.5 70.5t70.5 29.5h400q41 0 70.5 -29.5t29.5 -70.5h1v-400h-1q0 -41 -29 -70q-30 -29 -71 -29v-1h-400v1zM401 1199h-201v-200h201v200z" />
    <glyph glyph-name="less" unicode="&#x3c;" horiz-adv-x="1154" 
d="M11 848q-21 -47 -3 -88l302 -696q27 -64 98 -64h445q56 0 85 49q27 47 7 95l-285 657l285 657q21 48 -10 95q-30 47 -82 47h-448q-69 0 -95 -62zM698 1400l-242 -557q-17 -43 -1 -83l243 -560h-225l-260 601l260 599h225z" />
    <glyph glyph-name="equal" unicode="=" 
d="M103 1q-41 0 -70 30q-30 29 -30 69v400q0 41 29.5 70.5t70.5 29.5h800q41 0 70.5 -29.5t29.5 -70.5h1v-400h-1q0 -40 -29 -69q-30 -30 -71 -30v-1h-800v1zM804 400h-601v-200h601v200zM100 800q-41 0 -70 29q-30 29 -30 70v400q0 41 29.5 70.5t70.5 29.5h800
q41 0 70.5 -29.5t29.5 -70.5h1v-400h-1q0 -41 -29 -70q-30 -29 -71 -29v-1h-800v1zM801 1199h-601v-200h601v200z" />
    <glyph glyph-name="greater" unicode="&#x3e;" horiz-adv-x="1154" 
d="M643 1538q-26 62 -94 62h-449q-52 0 -82 -47q-31 -47 -10 -95l285 -657l-285 -657q-20 -48 7 -95q29 -49 85 -49h445q71 0 98 64l302 696q18 41 -3 88zM481 1400l260 -599l-261 -601h-225l243 560q16 40 -1 83l-241 557h225z" />
    <glyph glyph-name="question" unicode="?" 
d="M786 99q0 -39 -26 -69q-27 -31 -65 -30h-419q-38 0 -65 30q-26 30 -26 69v674q0 26 1 56q9 116 77 214q68 97 172 143q24 13 50 13q42 0 71 -29t29 -71q0 -63 -57 -90q-44 -22 -63 -39q-80 -69 -80 -171v-200h202q6 114 49 200q7 14 98 140q52 73 52 160q0 125 -88 213
t-213 88q-160 0 -303 -188q-30 -42 -82 -42q-41 0 -71 30q-29 29 -29 70q0 38 35 83q97 122 183 176q113 71 267 71q185 0 340 -147q161 -153 161 -354q0 -109 -49 -209q-17 -33 -51 -89q-41 -69 -57 -97q-43 -78 -43 -215v-390zM585 199v200h-200v-200h200z" />
    <glyph glyph-name="at" unicode="@" horiz-adv-x="2000" 
d="M1005 1039q25 61 95 61q41 0 71 -30q29 -30 29 -70v-305q2 -82 61 -140t142 -58q164 0 190 169q20 129 -38 282q-77 201 -253 325q-181 127 -402 127q-290 0 -495 -205q-205 -206 -205 -495q0 -290 205 -495t495 -205q180 0 338 88q52 32 106 8q56 -24 56 -89
q0 -56 -68 -96q-202 -111 -432 -111q-373 0 -636 263q-264 264 -264 637q0 372 264 636q263 264 636 264q294 0 530 -173q232 -169 323 -439q83 -246 6 -449q-88 -237 -356 -237q-180 0 -299 137q-120 -139 -301 -139q-165 0 -281 116q-117 117 -117 281t117 281
q116 116 281 116q110 0 202 -55zM803 900q-84 0 -144 -60q-59 -59 -59 -143t59 -143q60 -60 144 -60t143 60q59 59 59 143t-59 143q-59 60 -143 60z" />
    <glyph glyph-name="A" unicode="A" horiz-adv-x="1900" 
d="M705 1600h373q65 0 93 -62q403 -929 605 -1393q19 -49 -5 -95q-26 -50 -87 -50h-220h-219q-76 0 -101 64q-20 45 -59 136h-386q-40 -92 -59 -136q-26 -64 -99 -64h-220h-221q-52 0 -82 45q-31 46 -10 100q414 953 605 1394q27 61 92 61zM478 200q209 483 320 737
q29 65 96 64q66 -2 92 -61q49 -113 86 -199q25 -66 -15 -108q-32 -34 -76 -33h-108q-77 -176 -87 -200h434q28 -64 87 -200h223l-261 600q-173 400 -260 600h-234q-347 -800 -521 -1200h224z" />
    <glyph glyph-name="B" unicode="B" horiz-adv-x="1400" 
d="M200 1400v-1200h499q166 0 283 117t117 283q0 83 -34 160q-148 -160 -366 -160h-199q-44 0 -73 32q-27 30 -27 73v404q1 38 31 65q29 26 69 26h199q42 0 71 -29q29 -30 29 -71t-29 -71q-29 -29 -71 -29h-99v-200h99q125 0 212 88q88 88 88 212q0 105 -65 187
q-65 81 -165 105q-34 8 -76 8h-493zM100 0q-44 0 -73 33q-27 31 -27 74v1393q0 41 29 71q30 29 71 29h599q207 0 354 -146q146 -147 146 -354q0 -69 -20 -139q120 -161 120 -361q0 -249 -176 -424q-175 -176 -424 -176h-599z" />
    <glyph glyph-name="C" unicode="C" horiz-adv-x="1600" 
d="M1364 1365q30 -29 30 -70q0 -42 -29 -71q-30 -29 -71 -29t-71 29q-176 176 -424 176t-423 -176q-176 -176 -176 -424t176 -424q175 -176 423 -176q249 0 424 176l2 -2q30 32 74 32q41 0 71 -30q29 -29 29 -70q0 -60 -54 -88q-231 -218 -546 -218q-330 0 -565 235
q-234 234 -234 565t234 566q235 234 565 234q331 0 565 -235zM1082 659q29 -30 29 -71t-29 -71q-117 -117 -283 -117q-165 0 -282 117t-117 283t117 283t282 117q163 0 279 -114l4 -3q29 -29 29 -71q0 -41 -29 -71q-29 -29 -71 -29q-41 0 -70 29l-2 2l-2 2v0q-57 55 -138 55
q-82 0 -141 -59q-58 -58 -58 -141t58 -141q59 -59 141 -59q80 0 138 55l4 4q29 29 70 29q42 0 71 -29z" />
    <glyph glyph-name="D" unicode="D" horiz-adv-x="1600" 
d="M605 1600q330 -2 563 -236t233 -564q0 -331 -235 -565q-234 -235 -566 -235h-500q-45 0 -73 34q-27 31 -27 75v991q0 40 29 70t71 30h505q164 -2 280 -119t116 -281q0 -166 -118 -283q-117 -117 -283 -117h-100q-41 0 -70 29q-30 30 -30 71v500h-200v-800h400
q249 0 425 176t176 424t-176 424t-425 176h-500q-41 0 -71 29q-29 30 -29 71t30 70q29 30 70 30h505zM600 600q83 0 142 59q59 58 59 141t-59 141q-59 59 -142 59v-400z" />
    <glyph glyph-name="E" unicode="E" 
d="M199 1400v-1200h699q42 0 71 -29q29 -30 29 -71q0 -40 -29 -70q-30 -30 -71 -30h-799q-43 0 -71 29q-29 29 -29 71v1400q0 42 28 70q29 30 72 30h799q42 0 71 -29q29 -30 29 -71t-29 -70q-30 -30 -71 -30h-699zM599 900q0 -40 -30 -70t-70 -30q-41 0 -71 29
q-29 30 -29 71v195q0 42 28 73q29 32 72 32h399q40 0 70 -30t30 -70q0 -41 -29 -71q-29 -29 -71 -29h-299v-100zM800 700q0 40 30 70t70 30q41 0 70 -30q30 -29 30 -70v-195q0 -42 -28 -73q-29 -32 -72 -32h-400q-40 0 -70 30t-30 70q0 41 30 70q29 30 70 30h300v100z" />
    <glyph glyph-name="F" unicode="F" 
d="M599 900q0 -40 -30 -70q-29 -30 -70 -30t-70 29q-29 30 -29 71v209q-1 38 31 65q30 26 68 26h400q40 0 70 -30t30 -70q0 -41 -29 -71q-30 -29 -71 -29h-300v-100zM999 500q0 -40 -30 -70t-70 -30h-300v-300q1 -41 -28 -70q-29 -30 -72 -30h-399q-43 0 -72 30
q-28 28 -28 70v1400q0 41 28 70q29 30 72 30h799q41 0 71 -29q29 -30 29 -71t-30 -70q-29 -30 -70 -30h-699v-1200h200v309q0 38 30 65q30 26 69 26h301v100q0 41 29.5 70.5t70.5 29.5t70.5 -29.5t29.5 -70.5v-200h-1z" />
    <glyph glyph-name="G" unicode="G" horiz-adv-x="1600" 
d="M1365 1365q30 -29 30 -70q0 -42 -30 -71q-29 -29 -70 -29q-42 0 -71 29q-176 176 -424 176t-424 -176t-176 -424t176 -424t424 -176q225 0 395 150q60 52 60 100v50h-192q-113 -100 -263 -100q-166 0 -283 117t-117 283t117 283t283 117q160 0 274 -109q38 -38 38 -79
t-29 -71q-30 -29 -71 -29q-43 0 -74 33q-58 55 -138 55q-83 0 -141 -59q-59 -58 -59 -141t59 -141q58 -59 141 -59q80 0 138 55q47 45 96 45h321q44 0 72 -29q28 -28 28 -71v-500q0 -41 -29 -70q-30 -30 -71 -30t-70 30q-30 29 -30 70v44q-206 -144 -455 -144
q-331 0 -566 235q-234 234 -234 565t234 566q235 234 566 234q330 0 565 -235z" />
    <glyph glyph-name="H" unicode="H" horiz-adv-x="1600" 
d="M1198 200v1200h-199v-200q0 -41 -30 -71q-29 -29 -70 -29t-70 30q-30 30 -30 70v300q0 41 28 70q29 30 72 30h399q43 0 72 -30q28 -29 28 -70v-1400q0 -41 -28 -70q-29 -30 -72 -30h-399q-43 0 -72 30q-28 29 -28 70v600h-300q-43 0 -72 29q-28 29 -28 71v600h-200v-1200
h200v200q0 41 29 71q30 29 71 29q40 0 70 -30t30 -70v-295q0 -42 -28 -73q-29 -32 -72 -32h-400q-43 0 -72 30q-28 29 -28 70v1400q0 42 29 71q28 29 71 29h400q43 0 72 -32q28 -31 28 -73v-595h300q43 0 72 -32q28 -31 28 -73v-595h199z" />
    <glyph glyph-name="I" unicode="I" horiz-adv-x="800" 
d="M399 200v1200h-299q-41 0 -71 29q-29 30 -29 71t30 70q29 30 70 30h399q43 0 72 -30q28 -29 28 -70v-1400q0 -41 -28 -70q-29 -30 -72 -30h-399q-43 0 -72 30q-28 29 -28 70v1000q0 41 29 71q30 29 71 29t70 -30q30 -29 30 -70v-900h199z" />
    <glyph glyph-name="J" unicode="J" 
d="M855 146q146 147 146 354v1000q0 43 -29 72q-28 28 -71 28h-400q-44 0 -72 -29q-29 -29 -29 -71v-1000q0 -41 30 -71q29 -29 71 -29q40 0 70 30q30 29 30 70v900h200v-900q0 -124 -88 -212t-212 -88q-125 0 -213 88t-88 212q0 41 -29 71q-29 29 -71 29q-41 0 -71 -29
q-29 -30 -29 -71q0 -207 146 -354q147 -146 355 -146q207 0 354 146z" />
    <glyph glyph-name="K" unicode="K" horiz-adv-x="1400" 
d="M199 200v1200h200v-429l200 303v226q0 41 -28 70q-29 30 -72 30h-400q-43 0 -72 -30q-28 -29 -28 -70v-1400q0 -41 28 -70q29 -30 72 -30h400q43 0 72 30q28 29 28 70v434l45 68l369 -556q23 -35 64 -44q42 -8 77 15t44 64q8 42 -15 77l-416 629l432 655q23 35 15 76
q-9 42 -44 65t-77 14q-41 -8 -64 -43q-98 -149 -296 -447q-196 -297 -295 -447q-39 -59 -39 -144v-316h-200z" />
    <glyph glyph-name="L" unicode="L" horiz-adv-x="1100" 
d="M199 1400v-1200h699q42 0 71 -29q29 -30 29 -71t-29 -70q-30 -30 -71 -30h-799q-43 0 -72 30q-28 29 -28 70v1400q0 42 28 71q29 29 72 29h400q43 0 72 -29q28 -29 28 -71v-1000q0 -41 -30 -71q-29 -29 -70 -29t-71 30q-29 29 -29 70v900h-200z" />
    <glyph glyph-name="M" unicode="M" horiz-adv-x="1800" 
d="M1600 100q0 -41 -28 -70q-29 -30 -72 -30h-383q-31 0 -59 18q-30 18 -40 46l-51 140l109 298l109 -302h215v1200h-216l-217 -599l-108 -299l-159 -438q-25 -61 -94 -61q-68 0 -93 61l-313 865v-829q0 -41 -29 -71q-30 -29 -71 -29t-70 30q-30 29 -30 70v1400q0 41 29 71
q30 29 71 29h500q74 1 100 -62l51 -139l-108 -299l-109 300h-288l361 -997l144 398l108 299l159 438q28 65 99 61l383 1q43 0 72 -30q28 -29 28 -70v-1400z" />
    <glyph glyph-name="N" unicode="N" horiz-adv-x="1478" 
d="M537 1600q77 0 103 -62l604 -1393q17 -39 1 -78q-15 -40 -54 -56q-39 -17 -78 -1q-39 15 -56 54l-580 1336h-221l544 -1255q17 -39 1 -78q-15 -40 -54 -56q-39 -17 -78 -1q-39 15 -56 54l-413 952v-916q0 -41 -30 -70q-29 -30 -70 -30t-71 29q-29 30 -29 71v1400
q0 46 34 74q31 26 77 26h426zM1082 1571q-29 -30 -29 -71v-402l200 -461v863q0 41 -30 71q-29 29 -70 29t-71 -29z" />
    <glyph glyph-name="O" unicode="O" horiz-adv-x="1800" 
d="M1200 800q0 -166 -117 -283t-283 -117t-283 117t-117 283t117 283t283 117t283 -117t117 -283zM800 1000q-83 0 -141.5 -58.5t-58.5 -141.5t58.5 -141.5t141.5 -58.5t141.5 58.5t58.5 141.5t-58.5 141.5t-141.5 58.5zM800 1400q-249 0 -424.5 -175.5t-175.5 -424.5
t175.5 -424.5t424.5 -175.5t424.5 175.5t175.5 424.5t-175.5 424.5t-424.5 175.5zM1365.5 1365.5q234.5 -234.5 234.5 -565.5t-234.5 -565.5t-565.5 -234.5t-565.5 234.5t-234.5 565.5t234.5 565.5t565.5 234.5t565.5 -234.5z" />
    <glyph glyph-name="P" unicode="P" horiz-adv-x="1400" 
d="M199 1400v-1300q0 -41 -29 -71q-30 -29 -71 -29t-70 30q-30 29 -30 70v1400q0 42 28 70q29 30 72 30h700q203 0 353 -153q146 -150 146 -347q0 -185 -102 -320q-100 -132 -264 -174q-47 -17 -90 13t-43 81q0 72 67 95q67 22 84 31q148 80 148 274q0 112 -85 203
q-88 94 -207 97h-607zM499 1200q-44 0 -73 -32q-27 -30 -27 -73v-995q0 -41 29 -71q30 -29 71 -29q40 0 70 30q30 29 30 70v900h200q41 0 70 29q29 30 29 71t-29 70q-30 30 -70 30h-300z" />
    <glyph glyph-name="Q" unicode="Q" horiz-adv-x="1800" 
d="M1360 1366q234 -233 234 -563q0 -273 -170 -489l140 -141q29 -30 29 -72t-29 -72q-30 -29 -72 -29q-43 0 -72 30q-47 47 -141 142q-94 94 -140 142q118 82 186 209q70 131 70 280q0 247 -176 422q-175 176 -422 176t-423 -176q-175 -175 -175 -422t175 -422
q176 -176 423 -176q71 0 144 19l157 -158q-145 -60 -301 -60q-330 0 -563 234q-234 234 -234 563q0 330 234 563q233 234 563 234t563 -234zM1079 1085q116 -117 116 -282t-116 -282q-117 -116 -282 -116t-282 116q-117 117 -117 282t117 282q117 116 282 116t282 -116z
M797 1002q-82 0 -141 -58q-58 -59 -58 -141t58 -141q59 -58 141 -58t141 58q58 59 58 141t-58 141q-59 58 -141 58z" />
    <glyph glyph-name="R" unicode="R" horiz-adv-x="1495" 
d="M200 1400v-1300q0 -41 -29 -71q-30 -29 -71 -29t-70 30q-30 29 -30 70v1400q0 40 28 70q29 30 72 30h700q204 0 354 -153q146 -150 146 -347q0 -153 -72 -274q-70 -118 -191 -180l205 -506q16 -39 0 -78q-17 -39 -56 -55q-39 -15 -78 1q-39 17 -55 56l-244 598
q-14 36 -1 73t46 55l8 4l4 1l3 1l1 1l5 2h1h2l1 1h1q51 15 72 26q148 79 148 274q0 112 -86 203q-88 93 -207 97h-607zM500 1200q-45 0 -73 -29q-27 -29 -27 -76v-995q0 -41 29 -71q30 -29 71 -29t70 30q30 29 30 70v900h200q41 0 71 29q29 30 29 71t-30 70q-29 30 -70 30
h-300z" />
    <glyph glyph-name="S" unicode="S" 
d="M197 387q143 -187 302 -187q125 0 212 88q88 88 88 212q0 103 -50 166l-320 363q-29 30 -29 71t29 71q29 29 70 29q45 0 75 -34l325 -367q100 -116 100 -299q0 -201 -161 -353q-154 -147 -339 -147q-153 0 -266 71q-86 54 -182 176q-35 44 -35 82q0 42 29 71t71 29
q51 0 81 -42zM802 1213q-143 187 -303 187q-124 0 -211 -88q-88 -88 -88 -212q0 -91 50 -166l320 -363q29 -30 29 -71t-29 -71q-29 -29 -71 -29q-44 0 -74 34l-325 367q-100 133 -100 299q0 201 161 354q154 146 338 146q154 0 267 -71q86 -54 182 -176q35 -44 35 -82
q0 -42 -29 -71t-71 -29q-51 0 -81 42z" />
    <glyph glyph-name="T" unicode="T" horiz-adv-x="1400" 
d="M400 1200q41 0 71 -29q29 -30 29 -71v-1000q0 -41 -29 -71q-30 -29 -71 -29t-70 30q-30 29 -30 70v900h-200q-41 0 -71 29q-29 30 -29 71t30 70q29 30 70 30h300zM1100 1600q41 0 71 -29q29 -30 29 -71t-30 -70q-29 -30 -70 -30h-1000q-41 0 -70 29q-30 30 -30 71t30 70
q29 30 70 30h1000zM1100 1200q41 0 71 -29q29 -30 29 -71t-30 -70q-29 -30 -70 -30h-200v-900q0 -41 -29 -71q-30 -29 -71 -29t-70 30q-30 29 -30 70v1000q0 41 29 71q30 29 71 29h300z" />
    <glyph glyph-name="U" unicode="U" 
d="M601 500q0 -41 -30 -71q-29 -29 -70 -29t-71 30q-30 29 -30 70v900h-200v-900q0 -124 88 -212t213 -88q124 0 212 88t88 212v1000q0 41 29 71q30 29 71 29t71 -29q29 -30 29 -71v-1000q0 -207 -146 -354q-147 -146 -354 -146q-208 0 -355 146q-146 147 -146 354v1000
q0 43 28 71q29 29 72 29h401q43 0 71 -28q29 -28 29 -72v-1000z" />
    <glyph glyph-name="V" unicode="V" horiz-adv-x="1400" 
d="M1231 1535q-16 40 -55 56q-39 17 -78 1q-39 -15 -56 -54l-109 -500l102 -468l194 887q17 39 2 78zM8 1535q15 40 54 56q39 17 78 1q39 -15 56 -54l293 -1338h217l-275 1257q-17 39 -1 78q15 40 54 56q39 17 78 1q40 -15 56 -54l305 -1393q17 -39 1 -78q-15 -40 -54 -56
q-14 -6 -33 -8q-14 -3 -23 -3h-400q-11 0 -19 4q-59 7 -81 60l-305 1393q-17 39 -1 78z" />
    <glyph glyph-name="W" unicode="W" horiz-adv-x="1759" 
d="M438 1535q16 40 54 56q39 17 78 1q40 -15 56 -54l305 -1393q3 -7 3 -14q15 -47 -15 -89q-29 -42 -79 -42h-401q-110 0 -128 72l-302 1385q-17 39 -1 78q15 40 54 56q39 17 78 1q39 -15 56 -54l293 -1338h225l-275 1257q-17 39 -1 78zM1661 1535q-16 40 -55 56
q-39 17 -78 1q-39 -15 -56 -54l-109 -500l102 -468l194 887q17 39 2 78zM860 1535q16 40 54 56q39 17 78 1q40 -15 56 -54l305 -1393q17 -39 1 -78q-15 -40 -54 -56q-39 -17 -78 -1q-39 15 -56 54l-305 1393q-17 39 -1 78z" />
    <glyph glyph-name="X" unicode="X" horiz-adv-x="1400" 
d="M9 1535q16 40 54 56q39 17 78 1q40 -15 56 -54l285 -656q36 -80 18 -122l-243 -560h226l261 601l-285 656q-17 39 -1 78q15 40 54 56q39 17 78 1q39 -15 56 -54l605 -1393q17 -39 1 -78q-16 -40 -54 -56q-39 -17 -78 -1q-40 15 -56 54l-209 481l-209 -481
q-27 -64 -144 -64h-400q-64 0 -90 48q-24 45 -2 96l285 657l-285 656q-17 39 -1 78zM1251 1457q17 39 1 78q-16 40 -54 56q-39 17 -78 1q-40 -15 -56 -54l-98 -225l111 -256z" />
    <glyph glyph-name="Y" unicode="Y" horiz-adv-x="1289" 
d="M18 1557q30 43 83 43h450q67 0 93 -62l156 -360l157 360q16 39 56 54q39 16 78 -1q38 -16 54 -56q15 -39 -1 -78l-248 -572q-25 -60 -95 -60q-70 -1 -96 60l-223 515h-226l225 -518q19 -45 19 -82v-600h200v300q0 41 29 71q30 29 71 29q40 0 70 -30t30 -70v-400
q-1 -41 -29 -70q-28 -30 -71 -30h-400q-43 0 -72 32q-28 30 -28 73v683l-291 669q-23 54 9 100z" />
    <glyph glyph-name="Z" unicode="Z" horiz-adv-x="1400" 
d="M1252 1535q-16 40 -55 56q-38 17 -78 1q-39 -15 -56 -54l-581 -1338h-225l545 1257q25 57 -5 101q-28 42 -83 42h-612q-41 0 -71 -30q-29 -29 -29 -70t30 -70q29 -30 70 -30h453l-545 -1255q-24 -57 7 -101t97 -44h1047q41 0 70 29q30 30 30 71t-30 70q-30 30 -70 30
h-456l545 1257q17 39 2 78z" />
    <glyph glyph-name="bracketleft" unicode="[" horiz-adv-x="1000" 
d="M400 1600h-200v-1600h200v1600zM600 0h100q42 0 71 -29.5t29 -70.5q0 -42 -29 -71t-71 -29h-600q-41 0 -70.5 29.5t-29.5 70.5v1800q0 41 29.5 70.5t70.5 29.5h600q42 0 71 -29.5t29 -70.5q0 -42 -29 -71t-71 -29h-100v-1600z" />
    <glyph glyph-name="backslash" unicode="\" horiz-adv-x="1099" 
d="M526 1600q18 -1 36 -8q40 -15 56 -54l305 -1393q17 -39 1 -78q-15 -40 -54 -56q-14 -6 -33 -8q-14 -3 -23 -3h-400q-11 0 -19 4q-59 7 -81 60l-305 1393q-9 43 -1 78q15 40 54 56q19 8 38 9h426zM226 1400l263 -1200h217l-263 1200h-217z" />
    <glyph glyph-name="bracketright" unicode="]" horiz-adv-x="1000" 
d="M400 0h200v1600h-200v-1600zM200 1600h-100q-42 0 -71 29t-29 71q0 41 29 70.5t71 29.5h600q41 0 70.5 -29.5t29.5 -70.5v-1800q0 -41 -29.5 -70.5t-70.5 -29.5h-600q-42 0 -71 29t-29 71q0 41 29 70.5t71 29.5h100v1600z" />
    <glyph glyph-name="asciicircum" unicode="^" horiz-adv-x="1000" 
d="M170 1146q-29 -29 -70.5 -29t-70.5 29t-29 70.5t29 70.5l283 283q30 30 71 30t70 -30l283 -283q29 -29 29 -70t-30 -70q-29 -29 -70 -30q-41 0 -70 29l-212 212z" />
    <glyph glyph-name="underscore" unicode="_" 
d="M100 -200q-41 0 -70.5 29.5t-29.5 70.5t29.5 70.5t70.5 29.5h800q41 0 70.5 -29.5t29.5 -70.5t-29.5 -70.5t-70.5 -29.5h-800z" />
    <glyph glyph-name="grave" unicode="`" horiz-adv-x="400" 
d="M0 1500q0 41 29.5 70.5t70.5 29.5t70.5 -29.5t29.5 -70.5v-200q0 -41 -29 -70.5t-71 -29.5q-41 0 -70.5 29.5t-29.5 70.5v200z" />
    <glyph glyph-name="a" unicode="a" horiz-adv-x="1800" 
d="M605 1600h373q65 0 93 -62q403 -929 605 -1393q19 -49 -5 -95q-26 -50 -87 -50h-220h-219q-76 0 -101 64q-20 45 -59 136h-386q-40 -92 -59 -136q-26 -64 -99 -64h-220h-221q-52 0 -82 45q-31 46 -10 100q414 953 605 1394q27 61 92 61zM378 200q209 483 320 737
q29 65 96 64q66 -2 92 -61q49 -113 86 -199q25 -66 -15 -108q-32 -34 -76 -33h-108q-77 -176 -87 -200h434q28 -64 87 -200h223l-261 600q-173 400 -260 600h-234q-347 -800 -521 -1200h224z" />
    <glyph glyph-name="b" unicode="b" horiz-adv-x="1400" 
d="M200 1400v-1200h499q166 0 283 117t117 283q0 83 -34 160q-148 -160 -366 -160h-199q-44 0 -73 32q-27 30 -27 73v404q1 38 31 65q29 26 69 26h199q42 0 71 -29q29 -30 29 -71t-29 -71q-29 -29 -71 -29h-99v-200h99q125 0 212 88q88 88 88 212q0 105 -65 187
q-65 81 -165 105q-34 8 -76 8h-493zM100 0q-44 0 -73 33q-27 31 -27 74v1393q0 41 29 71q30 29 71 29h599q207 0 354 -146q146 -147 146 -354q0 -69 -20 -139q120 -161 120 -361q0 -249 -176 -424q-175 -176 -424 -176h-599z" />
    <glyph glyph-name="c" unicode="c" horiz-adv-x="1600" 
d="M1364 1365q30 -29 30 -70q0 -42 -29 -71q-30 -29 -71 -29t-71 29q-176 176 -424 176t-423 -176q-176 -176 -176 -424t176 -424q175 -176 423 -176q249 0 424 176l2 -2q30 32 74 32q41 0 71 -30q29 -29 29 -70q0 -60 -54 -88q-231 -218 -546 -218q-330 0 -565 235
q-234 234 -234 565t234 566q235 234 565 234q331 0 565 -235zM1082 659q29 -30 29 -71t-29 -71q-117 -117 -283 -117q-165 0 -282 117t-117 283t117 283t282 117q163 0 279 -114l4 -3q29 -29 29 -71q0 -41 -29 -71q-29 -29 -71 -29q-41 0 -70 29l-2 2l-2 2v0q-57 55 -138 55
q-82 0 -141 -59q-58 -58 -58 -141t58 -141q59 -59 141 -59q80 0 138 55l4 4q29 29 70 29q42 0 71 -29z" />
    <glyph glyph-name="d" unicode="d" horiz-adv-x="1600" 
d="M605 1600q330 -2 563 -236t233 -564q0 -331 -235 -565q-234 -235 -566 -235h-500q-45 0 -73 34q-27 31 -27 75v991q0 40 29 70t71 30h505q164 -2 280 -119t116 -281q0 -166 -118 -283q-117 -117 -283 -117h-100q-41 0 -70 29q-30 30 -30 71v500h-200v-800h400
q249 0 425 176t176 424t-176 424t-425 176h-500q-41 0 -71 29q-29 30 -29 71t30 70q29 30 70 30h505zM600 600q83 0 142 59q59 58 59 141t-59 141q-59 59 -142 59v-400z" />
    <glyph glyph-name="e" unicode="e" 
d="M199 1400v-1200h699q42 0 71 -29q29 -30 29 -71q0 -40 -29 -70q-30 -30 -71 -30h-799q-43 0 -71 29q-29 29 -29 71v1400q0 42 28 70q29 30 72 30h799q42 0 71 -29q29 -30 29 -71t-29 -70q-30 -30 -71 -30h-699zM599 900q0 -40 -30 -70t-70 -30q-41 0 -71 29
q-29 30 -29 71v195q0 42 28 73q29 32 72 32h399q40 0 70 -30t30 -70q0 -41 -29 -71q-29 -29 -71 -29h-299v-100zM800 700q0 40 30 70t70 30q41 0 70 -30q29 -29 29 -70v-195q0 -42 -27 -73q-29 -32 -72 -32h-400q-40 0 -70 30t-30 70q0 41 29 70q30 30 71 30h300v100z" />
    <glyph glyph-name="f" unicode="f" 
d="M599 900q0 -40 -30 -70q-29 -30 -70 -30t-70 29q-29 30 -29 71v209q-1 38 31 65q30 26 68 26h400q40 0 70 -30t30 -70q0 -41 -29 -71q-30 -29 -71 -29h-300v-100zM999 500q0 -40 -30 -70t-70 -30h-300v-300q1 -41 -28 -70q-29 -30 -72 -30h-399q-43 0 -72 30
q-28 28 -28 70v1400q0 41 28 70q29 30 72 30h799q41 0 71 -29q29 -30 29 -71t-30 -70q-29 -30 -70 -30h-699v-1200h200v309q0 38 30 65q30 26 69 26h301v100q0 41 29.5 70.5t70.5 29.5t70.5 -29.5t29.5 -70.5v-200h-1z" />
    <glyph glyph-name="g" unicode="g" horiz-adv-x="1657" 
d="M1365 1365q30 -29 30 -70q0 -42 -30 -71q-29 -29 -70 -29q-42 0 -71 29q-176 176 -424 176t-424 -176t-176 -424t176 -424t424 -176q225 0 395 150q60 52 60 100v50h-192q-113 -100 -263 -100q-166 0 -283 117t-117 283t117 283t283 117q160 0 274 -109q38 -38 38 -79
t-29 -71q-30 -29 -71 -29q-43 0 -74 33q-58 55 -138 55q-83 0 -141 -59q-59 -58 -59 -141t59 -141q58 -59 141 -59q80 0 138 55q47 45 96 45h321q44 0 72 -29q28 -28 28 -71v-500q0 -41 -29 -70q-30 -30 -71 -30t-70 30q-30 29 -30 70v44q-206 -144 -455 -144
q-331 0 -566 235q-234 234 -234 565t234 566q235 234 566 234q330 0 565 -235z" />
    <glyph glyph-name="h" unicode="h" horiz-adv-x="1600" 
d="M1198 200v1200h-199v-200q0 -41 -30 -71q-29 -29 -70 -29t-70 30q-30 30 -30 70v300q0 41 28 70q29 30 72 30h399q43 0 72 -30q28 -29 28 -70v-1400q0 -41 -28 -70q-29 -30 -72 -30h-399q-43 0 -72 30q-28 29 -28 70v600h-300q-43 0 -72 29q-28 29 -28 71v600h-200v-1200
h200v200q0 41 29 71q30 29 71 29q40 0 70 -30t30 -70v-295q0 -42 -28 -73q-29 -32 -72 -32h-400q-43 0 -72 30q-28 29 -28 70v1400q0 42 29 71q28 29 71 29h400q43 0 72 -32q28 -31 28 -73v-595h300q43 0 72 -32q28 -31 28 -73v-595h199z" />
    <glyph glyph-name="i" unicode="i" horiz-adv-x="800" 
d="M399 200v1200h-299q-41 0 -71 29q-29 30 -29 71t30 70q29 30 70 30h399q43 0 72 -30q28 -29 28 -70v-1400q0 -41 -28 -70q-29 -30 -72 -30h-399q-43 0 -72 30q-28 29 -28 70v1000q0 41 29 71q30 29 71 29t70 -30q30 -29 30 -70v-900h199z" />
    <glyph glyph-name="j" unicode="j" 
d="M855 146q146 147 146 354v1000q0 43 -29 72q-28 28 -71 28h-400q-44 0 -72 -29q-29 -29 -29 -71v-1000q0 -41 30 -71q29 -29 71 -29q40 0 70 30q30 29 30 70v900h200v-900q0 -124 -88 -212t-212 -88q-125 0 -213 88t-88 212q0 41 -29 71q-29 29 -71 29q-41 0 -71 -29
q-29 -30 -29 -71q0 -207 146 -354q147 -146 355 -146q207 0 354 146z" />
    <glyph glyph-name="k" unicode="k" horiz-adv-x="1400" 
d="M199 200v1200h200v-429l200 303v226q0 41 -28 70q-29 30 -72 30h-400q-43 0 -72 -30q-28 -29 -28 -70v-1400q0 -41 28 -70q29 -30 72 -30h400q43 0 72 30q28 29 28 70v434l45 68l369 -556q23 -35 64 -44q42 -8 77 15t44 64q8 42 -15 77l-416 629l432 655q23 35 15 76
q-9 42 -44 65t-77 14q-41 -8 -64 -43q-98 -149 -296 -447q-196 -297 -295 -447q-39 -59 -39 -144v-316h-200z" />
    <glyph glyph-name="l" unicode="l" horiz-adv-x="1100" 
d="M199 1400v-1200h699q42 0 71 -29q29 -30 29 -71t-29 -70q-30 -30 -71 -30h-799q-43 0 -72 30q-28 29 -28 70v1400q0 42 28 71q29 29 72 29h400q43 0 72 -29q28 -29 28 -71v-1000q0 -41 -30 -71q-29 -29 -70 -29t-71 30q-29 29 -29 70v900h-200z" />
    <glyph glyph-name="m" unicode="m" horiz-adv-x="1800" 
d="M1600 100q0 -41 -28 -70q-29 -30 -72 -30h-383q-31 0 -59 18q-30 18 -40 46l-51 140l109 298l109 -302h215v1200h-216l-217 -599l-108 -299l-159 -438q-25 -61 -94 -61q-68 0 -93 61l-313 865v-829q0 -41 -29 -71q-30 -29 -71 -29t-70 30q-30 29 -30 70v1400q0 41 29 71
q30 29 71 29h500q74 1 100 -62l51 -139l-108 -299l-109 300h-288l361 -997l144 398l108 299l159 438q28 65 99 61l383 1q43 0 72 -30q28 -29 28 -70v-1400z" />
    <glyph glyph-name="n" unicode="n" horiz-adv-x="1478" 
d="M537 1600q77 0 103 -62l604 -1393q17 -39 1 -78q-15 -40 -54 -56q-39 -17 -78 -1q-39 15 -56 54l-580 1336h-221l544 -1255q17 -39 1 -78q-15 -40 -54 -56q-39 -17 -78 -1q-39 15 -56 54l-413 952v-916q0 -41 -30 -70q-29 -30 -70 -30t-71 29q-29 30 -29 71v1400
q0 46 34 74q31 26 77 26h426zM1082 1571q-29 -30 -29 -71v-402l200 -461v863q0 41 -30 71q-29 29 -70 29t-71 -29z" />
    <glyph glyph-name="o" unicode="o" horiz-adv-x="1800" 
d="M1200 800q0 -166 -117 -283t-283 -117t-283 117t-117 283t117 283t283 117t283 -117t117 -283zM800 1000q-83 0 -141.5 -58.5t-58.5 -141.5t58.5 -141.5t141.5 -58.5t141.5 58.5t58.5 141.5t-58.5 141.5t-141.5 58.5zM800 1400q-249 0 -424.5 -175.5t-175.5 -424.5
t175.5 -424.5t424.5 -175.5t424.5 175.5t175.5 424.5t-175.5 424.5t-424.5 175.5zM1365.5 1365.5q234.5 -234.5 234.5 -565.5t-234.5 -565.5t-565.5 -234.5t-565.5 234.5t-234.5 565.5t234.5 565.5t565.5 234.5t565.5 -234.5z" />
    <glyph glyph-name="p" unicode="p" horiz-adv-x="1400" 
d="M199 1400v-1300q0 -41 -29 -71q-30 -29 -71 -29t-70 30q-30 29 -30 70v1400q0 42 28 70q29 30 72 30h700q203 0 353 -153q146 -150 146 -347q0 -185 -102 -320q-100 -132 -264 -174q-47 -17 -90 13t-43 81q0 72 67 95q67 22 84 31q148 80 148 274q0 112 -85 203
q-88 94 -207 97h-607zM499 1200q-44 0 -73 -32q-27 -30 -27 -73v-995q0 -41 29 -71q30 -29 71 -29q40 0 70 30q30 29 30 70v900h200q41 0 70 29q29 30 29 71t-29 70q-30 30 -70 30h-300z" />
    <glyph glyph-name="q" unicode="q" horiz-adv-x="1800" 
d="M1360 1366q234 -233 234 -563q0 -273 -170 -489l140 -141q29 -30 29 -72t-29 -72q-30 -29 -72 -29q-43 0 -72 30q-47 47 -141 142q-94 94 -140 142q118 82 186 209q70 131 70 280q0 247 -176 422q-175 176 -422 176t-423 -176q-175 -175 -175 -422t175 -422
q176 -176 423 -176q71 0 144 19l157 -158q-145 -60 -301 -60q-330 0 -563 234q-234 234 -234 563q0 330 234 563q233 234 563 234t563 -234zM1079 1085q116 -117 116 -282t-116 -282q-117 -116 -282 -116t-282 116q-117 117 -117 282t117 282q117 116 282 116t282 -116z
M797 1002q-82 0 -141 -58q-58 -59 -58 -141t58 -141q59 -58 141 -58t141 58q58 59 58 141t-58 141q-59 58 -141 58z" />
    <glyph glyph-name="r" unicode="r" horiz-adv-x="1495" 
d="M200 1400v-1300q0 -41 -29 -71q-30 -29 -71 -29t-70 30q-30 29 -30 70v1400q0 40 28 70q29 30 72 30h700q204 0 354 -153q146 -150 146 -347q0 -153 -72 -274q-70 -118 -191 -180l205 -506q16 -39 0 -78q-17 -39 -56 -55q-39 -15 -78 1q-39 17 -55 56l-244 598
q-14 36 -1 73t46 55l8 4l4 1l3 1l1 1l5 2h1h2l1 1h1q51 15 72 26q148 79 148 274q0 112 -86 203q-88 93 -207 97h-607zM500 1200q-45 0 -73 -29q-27 -29 -27 -76v-995q0 -41 29 -71q30 -29 71 -29t70 30q30 29 30 70v900h200q41 0 71 29q29 30 29 71t-30 70q-29 30 -70 30
h-300z" />
    <glyph glyph-name="s" unicode="s" 
d="M197 387q143 -187 302 -187q125 0 212 88q88 88 88 212q0 103 -50 166l-320 363q-29 30 -29 71t29 71q29 29 70 29q45 0 75 -34l325 -367q100 -116 100 -299q0 -201 -161 -353q-154 -147 -339 -147q-153 0 -266 71q-86 54 -182 176q-35 44 -35 82q0 42 29 71t71 29
q51 0 81 -42zM802 1213q-143 187 -303 187q-124 0 -211 -88q-88 -88 -88 -212q0 -91 50 -166l320 -363q29 -30 29 -71t-29 -71q-29 -29 -71 -29q-44 0 -74 34l-325 367q-100 133 -100 299q0 201 161 354q154 146 338 146q154 0 267 -71q86 -54 182 -176q35 -44 35 -82
q0 -42 -29 -71t-71 -29q-51 0 -81 42z" />
    <glyph glyph-name="t" unicode="t" horiz-adv-x="1400" 
d="M400 1200q41 0 71 -29q29 -30 29 -71v-1000q0 -41 -29 -71q-30 -29 -71 -29t-70 30q-30 29 -30 70v900h-200q-41 0 -71 29q-29 30 -29 71t30 70q29 30 70 30h300zM1100 1600q41 0 71 -29q29 -30 29 -71t-30 -70q-29 -30 -70 -30h-1000q-41 0 -70 29q-30 30 -30 71t30 70
q29 30 70 30h1000zM1100 1200q41 0 71 -29q29 -30 29 -71t-30 -70q-29 -30 -70 -30h-200v-900q0 -41 -29 -71q-30 -29 -71 -29t-70 30q-30 29 -30 70v1000q0 41 29 71q30 29 71 29h300z" />
    <glyph glyph-name="u" unicode="u" 
d="M601 500q0 -41 -30 -71q-29 -29 -70 -29t-71 30q-30 29 -30 70v900h-200v-900q0 -124 88 -212t213 -88q124 0 212 88t88 212v1000q0 41 29 71q30 29 71 29t71 -29q29 -30 29 -71v-1000q0 -207 -146 -354q-147 -146 -354 -146q-208 0 -355 146q-146 147 -146 354v1000
q0 43 28 71q29 29 72 29h401q43 0 71 -28q29 -28 29 -72v-1000z" />
    <glyph glyph-name="v" unicode="v" horiz-adv-x="1400" 
d="M1231 1535q-16 40 -55 56q-39 17 -78 1q-39 -15 -56 -54l-109 -500l102 -468l194 887q17 39 2 78zM8 1535q15 40 54 56q39 17 78 1q39 -15 56 -54l293 -1338h217l-275 1257q-17 39 -1 78q15 40 54 56q39 17 78 1q40 -15 56 -54l305 -1393q17 -39 1 -78q-15 -40 -54 -56
q-14 -6 -33 -8q-14 -3 -23 -3h-400q-11 0 -19 4q-59 7 -81 60l-305 1393q-17 39 -1 78z" />
    <glyph glyph-name="w" unicode="w" horiz-adv-x="1759" 
d="M438 1535q16 40 54 56q39 17 78 1q40 -15 56 -54l305 -1393q3 -7 3 -14q15 -47 -15 -89q-29 -42 -79 -42h-401q-110 0 -128 72l-302 1385q-17 39 -1 78q15 40 54 56q39 17 78 1q39 -15 56 -54l293 -1338h225l-275 1257q-17 39 -1 78zM1661 1535q-16 40 -55 56
q-39 17 -78 1q-39 -15 -56 -54l-109 -500l102 -468l194 887q17 39 2 78zM860 1535q16 40 54 56q39 17 78 1q40 -15 56 -54l305 -1393q17 -39 1 -78q-15 -40 -54 -56q-39 -17 -78 -1q-39 15 -56 54l-305 1393q-17 39 -1 78z" />
    <glyph glyph-name="x" unicode="x" horiz-adv-x="1400" 
d="M9 1535q16 40 54 56q39 17 78 1q40 -15 56 -54l285 -656q36 -80 18 -122l-243 -560h226l261 601l-285 656q-17 39 -1 78q15 40 54 56q39 17 78 1q39 -15 56 -54l605 -1393q17 -39 1 -78q-16 -40 -54 -56q-39 -17 -78 -1q-40 15 -56 54l-209 481l-209 -481
q-27 -64 -144 -64h-400q-64 0 -90 48q-24 45 -2 96l285 657l-285 656q-17 39 -1 78zM1251 1457q17 39 1 78q-16 40 -54 56q-39 17 -78 1q-40 -15 -56 -54l-98 -225l111 -256z" />
    <glyph glyph-name="y" unicode="y" horiz-adv-x="1289" 
d="M18 1557q30 43 83 43h450q67 0 93 -62l156 -360l157 360q16 39 56 54q39 16 78 -1q38 -16 54 -56q15 -39 -1 -78l-248 -572q-25 -60 -95 -60q-70 -1 -96 60l-223 515h-226l225 -518q19 -45 19 -82v-600h200v300q0 41 29 71q30 29 71 29q40 0 70 -30t30 -70v-400
q-1 -41 -29 -70q-28 -30 -71 -30h-400q-43 0 -72 32q-28 30 -28 73v683l-291 669q-23 54 9 100z" />
    <glyph glyph-name="z" unicode="z" horiz-adv-x="1400" 
d="M1252 1535q-16 40 -55 56q-38 17 -78 1q-39 -15 -56 -54l-581 -1338h-225l545 1257q25 57 -5 101q-28 42 -83 42h-612q-41 0 -71 -30q-29 -29 -29 -70t30 -70q29 -30 70 -30h453l-545 -1255q-24 -57 7 -101t97 -44h1047q41 0 70 29q30 30 30 71t-30 70q-30 30 -70 30
h-456l545 1257q17 39 2 78z" />
    <glyph glyph-name="braceleft" unicode="{" horiz-adv-x="1300" 
d="M700 1800q-165 0 -282 -118q-118 -118 -118 -282v-300q0 -83 -59 -142q-58 -58 -141 -58q-41 0 -71 -30q-29 -29 -29 -70q0 -42 29 -71q30 -29 71 -29q83 0 141 -59q59 -59 59 -141v-300q0 -166 117 -283t283 -117h300q41 0 71 29q29 29 29 71q0 40 -30 70q-29 30 -70 30
h-100v1600h100q41 0 71 29q29 29 29 71q0 40 -30 70q-29 30 -70 30h-300zM700 0q-83 0 -141 58q-59 59 -59 142v300q0 180 -135 300q135 119 135 300v300q0 82 59 141q58 59 141 59v-1600z" />
    <glyph glyph-name="bar" unicode="|" horiz-adv-x="800" 
d="M100 1600q-41 0 -70.5 29.5t-29.5 70.5t29.5 70.5t70.5 29.5h400q41 0 70.5 -29t29.5 -71v-1800q0 -41 -29 -70q-30 -29 -71 -29h-380q-10 -2 -21 -2q-41 0 -70.5 29.5t-29.5 70.5q0 8 1 15v1386q0 41 29.5 70.5t70.5 29.5q42 0 71 -29.5t29 -70.5v-1299h200v1599h-300z
" />
    <glyph glyph-name="braceright" unicode="}" horiz-adv-x="1300" 
d="M100 1800q-41 0 -70 -30q-30 -30 -30 -70q0 -42 29 -71q30 -29 71 -29h100v-1600h-100q-41 0 -70 -30q-30 -30 -30 -70q0 -42 29 -71q30 -29 71 -29h300q166 0 283 117t117 283v300q0 82 59 141q58 59 141 59q41 0 71 29q29 29 29 71q0 41 -29 70q-30 30 -71 30
q-83 0 -141 58q-59 59 -59 142v300q0 164 -118 282q-117 118 -282 118h-300zM400 1600q83 0 141 -59q59 -59 59 -141v-300q0 -181 135 -300q-135 -120 -135 -300v-300q0 -83 -59 -142q-58 -58 -141 -58v1600z" />
    <glyph glyph-name="asciitilde" unicode="~" horiz-adv-x="1159" 
d="M2 871q9 42 44 65t77 15q41 -8 65 -44q44 -45 55 -50q75 -38 181 29q221 140 390 44q88 -50 126 -124q23 -35 15 -77q-9 -42 -44 -65q-35 -24 -77 -15q-42 8 -65 43q-47 47 -55 51q-75 37 -181 -30q-221 -139 -390 -43q-89 50 -126 124q-23 35 -15 77z" />
    <glyph glyph-name="uni00A0" unicode="&#xa0;" horiz-adv-x="2000" 
d="M1000 891q-3 -38 -32 -65q-29 -26 -68 -26h-300v-705v-2q-3 -37 -29 -63q-26 -27 -63 -30h-405q-41 2 -70 26q-32 27 -32 67l-1 807q0 43 27 71q28 30 73 29h700v300q0 124 88 212t212 88q125 0 213 -88q87 -88 87 -212v-300h301q39 0 69 -26t30 -65v-818q0 -38 -30 -65
q-30 -26 -69 -26h-801q-41 0 -70 29q-30 29 -30 71q0 41 30 70q29 30 70 30h701v600h-301q-39 0 -69 26q-31 28 -30 65l-1 409q0 41 -29 70q-29 30 -71 30q-41 0 -70 -30q-30 -29 -30 -70v-409zM200 207h200v593h-200v-593z" />
    <glyph glyph-name="exclamdown" unicode="&#xa1;" horiz-adv-x="800" 
d="M100 0q-41 0 -71 29q-29 30 -29 71v1400q0 44 28 72t72 28h401q43 0 71 -28q29 -28 29 -72v-1400q0 -41 -29 -71q-30 -29 -71 -29h-401zM401 1400h-201v-200h201v200zM200 1000v-800h201v800h-201z" />
    <glyph glyph-name="cent" unicode="&#xa2;" horiz-adv-x="1600" 
d="M1082 659q29 -30 29 -71t-29 -71q-117 -117 -283 -117q-165 0 -282 117t-117 283t117 283t282 117q163 0 279 -114l4 -3q29 -29 29 -71q0 -41 -29 -71q-29 -29 -71 -29q-41 0 -70 29l-2 2l-2 2q-57 55 -138 55q-82 0 -141 -59q-58 -58 -58 -141t58 -141q59 -59 141 -59
q80 0 138 55l4 4q29 29 70 29q42 0 71 -29zM700 1594v106q0 41 29.5 70.5t70.5 29.5t70.5 -29.5t29.5 -70.5v-106q267 -31 464 -229q30 -29 30 -70q0 -42 -29 -71q-30 -29 -71 -29t-71 29q-176 176 -424 176t-423 -176q-176 -176 -176 -424t176 -424q175 -176 423 -176
q249 0 424 176l2 -2q30 32 74 32q41 0 71 -30q29 -29 29 -70q0 -60 -54 -88q-193 -182 -445 -212v-105q0 -41 -29.5 -70.5t-70.5 -29.5t-70.5 29.5t-29.5 70.5v105q-267 30 -466 229q-234 234 -234 565t234 566q199 198 466 228z" />
    <glyph glyph-name="sterling" unicode="&#xa3;" 
d="M601 600h300q41 0 71 -30q29 -29 29 -70t-30 -71q-30 -29 -70 -29h-300v-200h300q41 0 71 -30q29 -29 29 -70t-30 -71q-29 -29 -70 -29h-801q-43 0 -72 29q-28 29 -28 71v1000q0 207 147 353q146 147 354 147q207 0 353 -147q147 -146 147 -353q0 -132 -66 -246
q-30 -54 -90 -54q-41 0 -70 29q-30 29 -30 71q0 35 21 62q35 64 35 138q0 124 -88 212t-212 88q-125 0 -213 -88t-88 -212v-900h200v900q0 46 32 74q28 24 68 24q41 0 69 -24q31 -28 32 -74v-500z" />
    <glyph glyph-name="currency" unicode="&#xa4;" horiz-adv-x="1800" 
d="M1290 1431l76 76q29 29 70 29q42 0 71 -29t29 -71t-29 -71l-75 -75q168 -218 168 -490q0 -274 -169 -490l76 -76q29 -29 29 -71q0 -41 -29 -71q-29 -29 -71 -29t-70 29l-77 77q-217 -169 -489 -169q-273 0 -490 168l-76 -76q-29 -29 -70 -29q-42 0 -71 29t-29 71t29 71
l76 76q-169 216 -169 489q0 274 168 491l-75 75q-29 29 -29 71q0 41 29 71q29 29 71 29q41 0 70 -29l76 -76q216 168 490 169q275 -1 490 -169zM1083 1082q117 -117 117 -282q0 -166 -117 -283t-283 -117t-283 117t-117 282q0 166 117 283t283 118q166 0 283 -118zM800 1000
q-83 0 -141 -59q-59 -59 -59 -141q0 -83 59 -142q58 -59 141 -58q83 0 142 58q58 59 58 142q0 82 -59 141q-58 59 -141 59zM800 1400q-248 0 -424 -176t-176 -425q0 -248 176 -424q176 -175 424 -175t424 176t176 424t-176 424q-176 175 -424 176z" />
    <glyph glyph-name="yen" unicode="&#xa5;" horiz-adv-x="1351" 
d="M18 1556q30 44 83 44h451q67 0 93 -62l157 -360l156 360q17 39 56 54q40 16 79 -1q38 -16 54 -56q15 -39 -1 -78l-199 -457h55q41 0 70 -30q30 -29 30 -70t-30 -71q-30 -29 -70 -29h-186q-74 0 -115 97l-218 503h-226l225 -518q19 -45 19 -82v-600h200v295q0 43 28 73
q29 32 72 32h201q41 0 70 -30q30 -29 30 -70t-30 -70q-30 -30 -70 -30h-100v-300q-1 -41 -29 -70q-29 -30 -72 -30h-400q-44 0 -72 32q-28 30 -28 73v295h-100q-41 0 -71 29q-29 30 -29 71t29 70q30 30 71 30h100v200h-100q-41 0 -71 29q-29 30 -29 71t29 70q30 30 71 30h7
l-199 457q-23 54 9 99z" />
    <glyph glyph-name="brokenbar" unicode="&#xa6;" horiz-adv-x="800" 
d="M200 1600v-700q0 -41 -30 -71q-29 -29 -70 -29t-70 30q-30 29 -30 70v804q2 40 31 68q30 28 69 28h399q39 0 67 -27q29 -26 32 -64l1 -609q0 -41 -29 -71q-30 -29 -71 -29t-70 29q-30 30 -30 71v500h-199zM200 0h199v700q0 41 30 71q29 29 70 29t71 -30q29 -29 29 -70
v-800q-1 -42 -29 -70q-28 -30 -71 -30h-399q-40 0 -69 26q-31 28 -30 65l-1 609q0 41 29 71q30 29 71 29t70 -30q30 -29 30 -70v-500z" />
    <glyph glyph-name="section" unicode="&#xa7;" 
d="M800 800q0 103 -50 167l-321 362q-29 30 -29 71q0 42 29 71q30 29 71 29q44 0 75 -34l325 -367q100 -116 100 -299q0 -156 -107 -292q107 -122 107 -308q0 -200 -161 -353q-155 -147 -339 -147q-154 0 -267 71q-86 54 -182 176q-35 44 -35 82q0 42 29 71t71 29
q52 0 81 -42q143 -187 303 -187q124 0 212 88t88 212q0 103 -50 167q-391 442 -512 578q-38 -68 -38 -145q0 -91 50 -166l321 -363q29 -29 29 -71q0 -41 -29 -70q-30 -30 -71 -30q-44 0 -75 34l-325 367q-100 134 -100 299q0 158 107 293q-107 119 -107 307q0 201 161 354
q155 146 339 146q154 0 267 -71q86 -53 182 -176q35 -44 35 -82q0 -41 -29 -71q-29 -29 -71 -29q-52 0 -81 42q-143 187 -303 187q-124 0 -212 -88t-88 -212q0 -91 50 -166q388 -439 512 -579q38 69 38 145z" />
    <glyph glyph-name="dieresis" unicode="&#xa8;" horiz-adv-x="1000" 
d="M370.5 1570.5q29.5 -29.5 29.5 -70.5t-29.5 -70.5t-70.5 -29.5t-70.5 29.5t-29.5 70.5t29.5 70.5t70.5 29.5t70.5 -29.5zM771 1570.5q29 -29.5 29 -70.5q0 -42 -29 -71t-71 -29q-41 0 -70.5 29t-29.5 71q0 41 29.5 70.5t70.5 29.5q42 0 71 -29.5z" />
    <glyph glyph-name="copyright" unicode="&#xa9;" horiz-adv-x="1800" 
d="M1366 1365q234 -234 234 -565t-234 -566q-235 -234 -566 -234t-566 234q-234 235 -234 566t234 565q235 235 566 235t566 -235zM1083 658q29 -29 29 -70t-29 -71q-117 -117 -283 -117t-283 117t-117 283q0 165 117 283q117 117 283 117q153 0 267 -102q45 -41 45 -86
q0 -42 -29 -71t-71 -29q-43 0 -74 33q-58 55 -138 55q-83 0 -141 -59q-59 -58 -59 -141t59 -142q58 -58 141 -58q80 0 138 55q36 33 74 33q42 0 71 -30zM800 1400q-248 0 -424 -176t-176 -424q0 -249 176 -424q176 -176 424 -176t424 176q176 175 176 424q0 248 -176 424
t-424 176z" />
    <glyph glyph-name="ordfeminine" unicode="&#xaa;" 
d="M800 695q2 -40 31 -67q29 -28 69 -28q41 0 71 -29q29 -30 29 -71t-29 -71q-30 -29 -71 -29q-137 0 -228 107q-116 -107 -272 -107q-165 0 -283 117q-117 118 -117 283t117 282q118 117 283 117q108 0 200 -53v53q0 90 -67 150q-52 45 -134 49q-114 5 -229 -75
q-35 -24 -70 -24q-41 0 -71 29q-29 30 -29 71q0 55 54 92q156 108 311 109q139 1 234 -54q92 -53 145 -144q56 -94 56 -203v-504zM541 941q-58 59 -141 59t-141 -59q-59 -59 -59 -141q0 -83 59 -141q58 -59 141 -59q82 0 141 59t59 141t-59 141z" />
    <glyph glyph-name="guillemotleft" unicode="&#xab;" 
d="M329 1153q29 30 71 30q41 0 70 -30q29 -28 29 -70t-29 -71l-212 -212l212 -212q30 -29 30 -71q0 -41 -30 -71q-28 -28 -70 -28t-71 28l-283 283q-29 29 -29 71q0 41 29 71zM829 1153q29 30 71 30q41 0 70 -30q29 -28 29 -70t-29 -71l-212 -212l212 -212q30 -29 30 -71
q0 -41 -30 -71q-28 -28 -70 -28t-71 28l-283 283q-29 29 -29 71q0 41 29 71z" />
    <glyph glyph-name="logicalnot" unicode="&#xac;" horiz-adv-x="1400" 
d="M100 1200h1000q41 0 70.5 -29t29.5 -71v-600q0 -41 -29 -70.5t-71 -29.5q-41 0 -70.5 29.5t-29.5 70.5v100h-900q-42 0 -71 29.5t-29 70.5v400q0 41 29.5 70.5t70.5 29.5zM1000 1000h-800v-200h800v200z" />
    <glyph glyph-name="uni00AD" unicode="&#xad;" horiz-adv-x="600" 
d="M100 800q-41 0 -70.5 29.5t-29.5 70.5t29.5 70.5t70.5 29.5h200q42 0 71 -29.5t29 -70.5q0 -42 -29 -71t-71 -29h-200z" />
    <glyph glyph-name="registered" unicode="&#xae;" horiz-adv-x="1800" 
d="M1366 1366q234 -235 234 -566t-234 -566q-235 -234 -566 -234t-566 234q-234 235 -234 566t234 566q235 234 566 234t566 -234zM847 812q53 29 53 88q0 41 -29 71q-30 29 -71 29t-71 -29q-29 -30 -29 -71v-345q0 -41 -29 -70q-30 -30 -71 -30t-70 29q-30 30 -30 71v355
q1 118 90 204q88 86 210 86q124 0 212 -88t88 -212q0 -106 -69 -189l89 -89q29 -29 29 -71t-29 -71t-71 -29t-70 29l-168 168q-29 29 -29 71q-1 41 29 70q15 15 36 23zM800 1400q-248 0 -424 -176t-176 -424t176 -424t424 -176q249 0 424 176q176 175 176 424
q0 248 -176 424t-424 176z" />
    <glyph glyph-name="macron" unicode="&#xaf;" horiz-adv-x="800" 
d="M100 1400q-41 0 -70.5 29.5t-29.5 70.5t29.5 70.5t70.5 29.5h400q42 0 71 -29.5t29 -70.5q0 -42 -29 -71t-71 -29h-400z" />
    <glyph glyph-name="degree" unicode="&#xb0;" horiz-adv-x="1000" 
d="M400 1400q-83 0 -141.5 -58.5t-58.5 -141.5t58.5 -141.5t141.5 -58.5t141.5 58.5t58.5 141.5t-58.5 141.5t-141.5 58.5zM683 1483q117 -117 117 -283t-117 -283t-283 -117t-283 117t-117 283t117 283t283 117t283 -117z" />
    <glyph glyph-name="plusminus" unicode="&#xb1;" horiz-adv-x="1000" 
d="M300 899h-200q-42 0 -71 29t-29 71q0 41 29 70.5t71 29.5h200v200q0 41 29.5 70.5t70.5 29.5t70.5 -29.5t29.5 -70.5v-200h200q41 0 70.5 -29.5t29.5 -70.5q0 -42 -29.5 -71t-70.5 -29h-200v-200q0 -41 -29.5 -70.5t-70.5 -29.5q-42 0 -71 29.5t-29 70.5v200zM100 200
q-42 0 -71 29t-29 71q0 41 29 70.5t71 29.5h600q41 0 70.5 -29.5t29.5 -70.5q0 -42 -29.5 -71t-70.5 -29h-600z" />
    <glyph glyph-name="uni00B2" unicode="&#xb2;" horiz-adv-x="800" 
d="M512 1512q88 -88 88 -212q0 -176 -156 -262q-13 -8 -50 -25q-32 -15 -51 -26q-106 -66 -134 -187h291q41 0 71 -29q29 -30 29 -71t-30 -70q-29 -30 -70 -30h-400q-41 0 -70 29q-30 30 -30 71q0 297 222 446q6 4 65 35l57 30q56 28 56 89q0 41 -29 71q-30 29 -71 29
q-23 0 -146 -61q-30 -16 -54 -16q-41 0 -71 30q-29 29 -29 70q0 58 60 92q157 85 240 85q124 0 212 -88z" />
    <glyph glyph-name="uni00B3" unicode="&#xb3;" horiz-adv-x="800" 
d="M310 1600q121 -5 205 -91q85 -88 85 -209q0 -114 -77 -199q77 -86 77 -201q0 -121 -85 -209q-84 -86 -205 -91h-210q-41 0 -70 29q-30 30 -30 71t30 70q29 30 70 30h200q41 0 71 29q29 29 29 71q0 41 -29 71q-30 29 -71 29h-100q-41 0 -71 29q-29 30 -29 71t29 70
q30 30 71 30h100q41 0 71 29q29 29 29 71q0 41 -29 71q-30 29 -71 29h-200q-41 0 -70 29q-30 30 -30 71t30 70q29 30 70 30h210z" />
    <glyph glyph-name="acute" unicode="&#xb4;" horiz-adv-x="322" 
d="M187 1241q-21 -35 -61 -46t-76 9q-35 21 -46 61.5t10 75.5l121 209q21 36 60.5 47t75.5 -10t47 -61t-10 -76z" />
    <glyph glyph-name="uni00B5" unicode="&#xb5;" horiz-adv-x="600" 
d="M100 -600q-41 0 -71 30q-29 29 -29 70t29 71q30 29 71 29h200q41 0 71 30q29 29 29 70q0 42 -29 71q-30 29 -71 29h-200q-43 0 -72 30q-28 28 -28 70v300q0 41 30 71q29 29 70 29t71 -29q29 -30 29 -71v-200h100q121 1 210 -88q90 -89 90 -212t-89 -211q-88 -89 -211 -89
h-200z" />
    <glyph glyph-name="paragraph" unicode="&#xb6;" horiz-adv-x="1400" 
d="M829 29q30 -29 71 -29t70 29q30 30 30 71v1300h100q41 0 71 29q29 29 29 71q0 40 -30 70q-29 30 -70 30h-700q-166 0 -283 -117q-117 -118 -117 -283q0 -166 117 -283t283 -117v-700q0 -42 29 -71q30 -29 71 -29t70 29q30 30 30 71v1300h200v-1300q0 -42 29 -71z
M400 1000q-83 0 -141 58q-59 59 -59 142t59 141q58 59 141 59v-400z" />
    <glyph glyph-name="cedilla" unicode="&#xb8;" horiz-adv-x="800" 
d="M300 -400q-41 0 -71 29q-29 30 -29 71t29 70q30 30 71 30h200q41 0 70 29q29 30 29 71v200q0 41 30 71q29 29 70 29t71 -30q29 -29 29 -70v-211q0 -126 -84 -207q-85 -82 -215 -82h-200z" />
    <glyph glyph-name="uni00B9" unicode="&#xb9;" horiz-adv-x="800" 
d="M300 1600q41 0 71 -29q29 -30 29 -71v-700h100q41 0 71 -29q29 -30 29 -71t-30 -70q-29 -30 -70 -30h-400q-41 0 -71 29q-29 30 -29 71t30 70q29 30 70 30h100v600h-100q-41 0 -71 29q-29 30 -29 71t30 70q29 30 70 30h200z" />
    <glyph glyph-name="ordmasculine" unicode="&#xba;" horiz-adv-x="1000" 
d="M400 1400q-83 0 -141.5 -58.5t-58.5 -141.5t58.5 -141.5t141.5 -58.5t141.5 58.5t58.5 141.5t-58.5 141.5t-141.5 58.5zM683 1483q117 -117 117 -283t-117 -283t-283 -117t-283 117t-117 283t117 283t283 117t283 -117z" />
    <glyph glyph-name="guillemotright" unicode="&#xbb;" 
d="M970 871q30 -30 30 -71q0 -42 -30 -71l-282 -283q-29 -28 -71 -28t-71 28q-29 30 -29 71q0 42 29 71l212 212l-212 212q-29 29 -29 71t29 70q29 30 71 30q41 0 71 -30zM470 871q30 -30 30 -71q0 -42 -30 -71l-282 -283q-29 -28 -71 -28t-71 28q-29 30 -29 71q0 42 29 71
l212 212l-212 212q-29 29 -29 71t29 70q29 30 71 30q41 0 71 -30z" />
    <glyph glyph-name="onequarter" unicode="&#xbc;" horiz-adv-x="1892" 
d="M1260 970q30 -29 30 -70v-500h200v300q0 41 29 71q30 29 71 29t70 -30q30 -29 30 -70v-600q0 -41 -29 -71q-30 -29 -71 -29t-71 29q-29 30 -29 71v100h-300q-41 0 -71 29q-29 30 -29 71v600q0 41 29 71q30 29 71 29t70 -30zM300 1600q41 0 71 -29q29 -30 29 -71v-700h100
q41 0 71 -29q29 -30 29 -71t-30 -70q-29 -30 -70 -30h-400q-41 0 -71 29q-29 30 -29 71t30 70q29 30 70 30h100v600h-100q-41 0 -71 29q-29 30 -29 71t30 70q29 30 70 30h200zM1034 1591q-39 17 -82 0t-53 -56l-305 -1392q-20 -102 54 -134q40 -17 81 -2q43 15 53 55
l304 1392q21 106 -52 137z" />
    <glyph glyph-name="onehalf" unicode="&#xbd;" horiz-adv-x="1889" 
d="M300 1600q41 0 71 -29q29 -30 29 -71v-700h100q41 0 71 -29q29 -30 29 -71t-30 -70q-29 -30 -70 -30h-400q-41 0 -71 29q-29 30 -29 71t30 70q29 30 70 30h100v600h-100q-41 0 -71 29q-29 30 -29 71t30 70q29 30 70 30h200zM1592 912q88 -88 88 -212q0 -176 -156 -262
q-13 -8 -50 -25q-32 -15 -51 -26q-106 -66 -134 -187h291q41 0 71 -29q29 -30 29 -71t-30 -70q-29 -30 -70 -30h-400q-41 0 -70 29q-30 30 -30 71q0 297 222 446q6 4 65 35l57 30q56 28 56 89q0 41 -29 71q-30 29 -71 29q-23 0 -146 -61q-30 -16 -54 -16q-41 0 -71 30
q-29 29 -29 70q0 58 60 92q157 85 240 85q124 0 212 -88zM1034 1591q-39 17 -82 0t-53 -56l-305 -1392q-20 -102 54 -134q40 -17 81 -2q43 15 53 55l304 1392q21 106 -52 137z" />
    <glyph glyph-name="threequarters" unicode="&#xbe;" horiz-adv-x="1853" 
d="M310 1600q121 -5 205 -91q85 -88 85 -209q0 -114 -77 -199q77 -86 77 -201q0 -121 -85 -209q-84 -86 -205 -91h-210q-41 0 -70 29q-30 30 -30 71t30 70q29 30 70 30h200q41 0 71 29q29 29 29 71q0 41 -29 71q-30 29 -71 29h-100q-41 0 -71 29q-29 30 -29 71t29 70
q30 30 71 30h100q41 0 71 29q29 29 29 71q0 41 -29 71q-30 29 -71 29h-200q-41 0 -70 29q-30 30 -30 71t30 70q29 30 70 30h210zM1221 970q30 -29 30 -70v-500h200v300q0 41 29 71q30 29 71 29t70 -30q30 -29 30 -70v-600q0 -41 -29 -71q-30 -29 -71 -29t-71 29
q-29 30 -29 71v100h-300q-41 0 -71 29q-29 30 -29 71v600q0 41 29 71q30 29 71 29t70 -30zM994 1591q-39 17 -82 0t-53 -56l-305 -1392q-20 -102 54 -134q40 -17 81 -2q43 15 53 55l304 1392q21 106 -52 137z" />
    <glyph glyph-name="questiondown" unicode="&#xbf;" 
d="M786 1110q0 -137 43 -215q16 -28 57 -97q34 -56 51 -89q49 -100 49 -209q0 -201 -161 -354q-155 -146 -340 -146q-154 0 -267 71q-86 53 -183 175q-35 45 -35 83q0 41 29 71q30 29 71 29q52 0 82 -42q143 -187 303 -187q125 0 213 88t88 212q0 88 -52 160
q-91 126 -98 140q-43 86 -49 200h-202v-200q0 -102 80 -171q19 -17 63 -39q57 -27 57 -90q0 -42 -29 -71t-71 -29q-26 0 -50 13q-104 46 -172 143q-68 98 -77 214q-1 30 -1 57v673q0 40 26 69q27 30 65 31h419q38 0 65 -31q26 -29 26 -69v-390zM385 1400v-200h200v200h-200z
" />
    <glyph glyph-name="Agrave" unicode="&#xc0;" horiz-adv-x="1800" 
d="M1096 1086l476 -19q42 -2 71 -33t27 -73q-2 -54 -46 -83l-366 -288l129 -459q11 -41 -10 -78t-61 -49q-46 -13 -85 14l-395 264l-397 -264q-35 -24 -76 -15q-42 8 -66 43q-25 39 -13 84l129 459l-374 295q-33 27 -38 69t21 75q29 36 77 38l474 19l166 448q14 39 53 57
t78 3q47 -17 63 -65zM835 1201l-90 -242q-20 -73 -96 -76l-266 -10l207 -163q58 -42 39 -111l-73 -257l223 148q57 38 114 0l221 -148l-72 258q-18 67 35 109l210 165l-255 10q-78 -6 -105 67z" />
    <glyph glyph-name="Aacute" unicode="&#xc1;" horiz-adv-x="1800" 
d="M500 65q-16 -39 -54 -56q-39 -17 -78 -1q-40 16 -56 54l-303 698q-18 41 1 83l1 2l301 694q16 38 56 54q39 16 78 -1q38 -17 54 -56t-1 -78l-25 -58h1028q39 0 68 -27q28 -26 32 -64v-4v-1v-4v-1001v-5v0v-4q-4 -38 -33 -65q-28 -26 -67 -26h-1027l24 -56q17 -39 1 -78z
M1402 1200h-1015l-173 -400l174 -401h1014v801z" />
    <glyph glyph-name="Acircumflex" unicode="&#xc2;" horiz-adv-x="1800" 
d="M706 1600h373q65 0 93 -62q403 -929 605 -1393q19 -49 -5 -95q-26 -50 -87 -50h-220h-219q-76 0 -101 64q-20 45 -59 136h-386q-40 -92 -59 -136q-26 -64 -99 -64h-220h-221q-52 0 -82 45q-31 46 -10 100q414 953 605 1394q27 61 92 61zM479 200q209 483 320 737
q29 65 96 64q66 -2 92 -61q49 -113 86 -199q25 -66 -15 -108q-32 -34 -76 -33h-108q-77 -176 -87 -200h434q28 -64 87 -200h223l-261 600q-173 400 -260 600h-234q-347 -800 -521 -1200h224zM960 2163l212 -212q29 -30 29 -71.5t-29 -70.5q-30 -29 -71 -29t-71 29l-141 142
l-142 -142q-29 -29 -70.5 -29t-70.5 29t-29 71t29 71l212 212q29 29 71 29t71 -29z" />
    <glyph glyph-name="Atilde" unicode="&#xc3;" horiz-adv-x="1886" 
d="M736 1600h373q65 0 93 -62q403 -929 605 -1393q19 -49 -5 -95q-26 -50 -87 -50h-220h-219q-76 0 -101 64q-20 45 -59 136h-386q-40 -92 -59 -136q-26 -64 -99 -64h-220h-221q-52 0 -82 45q-31 46 -10 100q414 953 605 1394q27 61 92 61zM509 200q209 483 320 737
q29 65 96 64q66 -2 92 -61q49 -113 86 -199q25 -66 -15 -108q-32 -34 -76 -33h-108q-77 -176 -87 -200h434q28 -64 87 -200h223l-261 600q-173 400 -260 600h-234q-347 -800 -521 -1200h224zM445 2040q9 42 44 65t77 15q41 -8 65 -44q44 -45 55 -50q75 -38 181 29
q221 140 390 44q88 -50 126 -124q23 -35 15 -77q-9 -42 -44 -65q-35 -24 -77 -15q-42 8 -65 43q-47 47 -55 51q-75 37 -181 -30q-221 -139 -390 -43q-89 50 -126 124q-23 35 -15 77z" />
    <glyph glyph-name="Adieresis" unicode="&#xc4;" horiz-adv-x="1871" 
d="M736 1600h373q65 0 93 -62q403 -929 605 -1393q19 -49 -5 -95q-26 -50 -87 -50h-220h-219q-76 0 -101 64q-20 45 -59 136h-386q-40 -92 -59 -136q-26 -64 -99 -64h-220h-221q-52 0 -82 45q-31 46 -10 100q414 953 605 1394q27 61 92 61zM509 200q209 483 320 737
q29 65 96 64q66 -2 92 -61q49 -113 86 -199q25 -66 -15 -108q-32 -34 -76 -33h-108q-77 -176 -87 -200h434q28 -64 87 -200h223l-261 600q-173 400 -260 600h-234q-347 -800 -521 -1200h224zM760.5 1959.5q29.5 -29.5 29.5 -70.5t-29.5 -70.5t-70.5 -29.5t-70.5 29.5
t-29.5 70.5t29.5 70.5t70.5 29.5t70.5 -29.5zM1161 1959.5q29 -29.5 29 -70.5q0 -42 -29 -71t-71 -29q-41 0 -70.5 29t-29.5 71q0 41 29.5 70.5t70.5 29.5q42 0 71 -29.5z" />
    <glyph glyph-name="Aring" unicode="&#xc5;" horiz-adv-x="1800" 
d="M1103 143l25 56h-1028q-38 0 -67 26q-29 27 -32 65l-1 4v0v5v1001v4v1l1 4q3 38 32 64q28 27 67 27h1028l-25 58q-16 39 -1 78q16 39 55 56q38 17 78 1q39 -16 56 -54l300 -694l1 -2q19 -42 1 -83l-302 -698q-17 -38 -56 -54q-40 -16 -78 1q-39 17 -55 56q-15 39 1 78z
M200 399h1014l174 401l-173 400h-1015v-801z" />
    <glyph glyph-name="AE" unicode="&#xc6;" horiz-adv-x="3166" 
d="M170 1570q30 -29 30 -70v-400h100q41 0 70 -30q30 -29 30 -70t-29 -71q-30 -29 -71 -29h-200q-42 0 -72 30q-28 29 -28 70v500q0 41 29 71q30 29 71 29t70 -30zM2009 84q-87 -84 -209 -84t-209 84q-87 85 -91 206v310q0 41 29 71q30 29 71 29q40 0 70 -30t30 -70v-300
q0 -42 29 -71t71 -29q41 0 71 29q29 29 29 71v300q0 41 29 71q29 29 71 29q40 0 70 -30q30 -29 30 -70v-310q-5 -121 -91 -206zM1300 1000q0 -41 -30 -71q-29 -29 -70 -29t-70 30q-30 29 -30 70v509q0 37 31 64q30 27 69 27l205 -1q81 -2 138 -60t57 -139q0 -124 -112 -180
l99 -170q20 -36 9 -76q-10 -40 -46 -61q-35 -20 -76 -9q-40 10 -61 46l-113 196v-146zM1900 1400v-300h143q40 0 70 -30q30 -29 30 -70t-30 -71q-29 -29 -70 -29h-243q-42 0 -71 30q-29 29 -29 70v500q-1 45 28 72q28 28 72 28h243q40 0 70 -30q30 -29 30 -70t-30 -71
q-29 -29 -70 -29h-143zM2400 1000q0 -41 -30 -71q-29 -29 -70 -29t-71 30q-29 29 -29 70v500q0 42 29 71q28 28 71 28q42 0 70 -28l212 -212l213 212q29 29 70 29q42 0 71 -29q28 -28 29 -71v-500q0 -41 -29 -71q-30 -29 -71 -29t-70 30q-30 29 -30 70v258l-118 -118
q-30 -24 -69 -23q-39 2 -66 29l-112 112v-258zM170 670q30 -29 30 -70v-500q0 -41 -29 -71q-30 -29 -71 -29t-70 30q-30 29 -30 70v500q0 41 29 71q30 29 71 29t70 -30zM500 300v-200q0 -41 -29 -70q-30 -30 -71 -30t-70 30q-30 29 -30 70v500q-1 41 28 70q29 30 72 30h200
q85 1 142 -56q58 -57 58 -144q0 -83 -59 -141q-58 -59 -141 -59h-100zM771 171q29 -30 29 -71q0 -42 -29 -71q-30 -29 -71 -29t-71 29q-29 29 -29 71q0 41 29 71q30 29 71 29t71 -29zM1300 700q41 0 71 -29q29 -30 29 -71q0 -42 -29 -71q-30 -29 -71 -29h-200l188 -119
q112 -55 112 -181q0 -83 -59 -142q-58 -58 -141 -58h-200q-42 0 -71 29t-29 71q0 41 29 71q29 29 71 29h200l-206 131q-94 56 -94 169q0 83 58 141q59 59 142 59h200zM944 1497q102 -102 102 -247t-102 -248q-103 -102 -247 -102q-145 0 -248 102q-102 103 -102 248t102 247
q103 103 248 103q144 0 247 -103zM697 1400q-63 0 -107 -44q-43 -44 -43 -106t43 -106q44 -44 107 -44q62 0 106 44q43 44 43 106t-43 106q-44 44 -106 44zM2400 100q0 -41 -30 -71q-29 -29 -70 -29t-71 30q-29 29 -29 70v500q0 42 29 71q28 28 71 28q42 0 70 -28l212 -212
l213 212q29 29 70 29q42 0 71 -29q28 -28 29 -71v-500q0 -41 -29 -71q-30 -29 -71 -29t-70 30q-30 29 -30 70v258l-118 -118q-30 -24 -69 -23q-39 2 -66 29l-112 112v-258z" />
    <glyph glyph-name="Ccedilla" unicode="&#xc7;" horiz-adv-x="1600" 
d="M1364 1365q30 -29 30 -70q0 -42 -29 -71q-30 -29 -71 -29t-71 29q-176 176 -424 176t-423 -176q-176 -176 -176 -424t176 -424q175 -176 423 -176q249 0 424 176l2 -2q30 32 74 32q41 0 71 -30q29 -29 29 -70q0 -60 -54 -88q-231 -218 -546 -218q-330 0 -565 235
q-234 234 -234 565t234 566q235 234 565 234q331 0 565 -235zM1082 659q29 -30 29 -71t-29 -71q-117 -117 -283 -117q-165 0 -282 117t-117 283t117 283t282 117q163 0 279 -114l4 -3q29 -29 29 -71q0 -41 -29 -71q-29 -29 -71 -29q-41 0 -70 29l-2 2l-2 2v0q-57 55 -138 55
q-82 0 -141 -59q-58 -58 -58 -141t58 -141q59 -59 141 -59q80 0 138 55l4 4q29 29 70 29q42 0 71 -29zM419 -400q-41 0 -71 29q-29 30 -29 71t29 70q30 30 71 30h200q41 0 70 29q29 30 29 71v200q0 41 30 71q29 29 70 29t71 -30q29 -29 29 -70v-211q0 -126 -84 -207
q-85 -82 -215 -82h-200z" />
    <glyph glyph-name="Egrave" unicode="&#xc8;" horiz-adv-x="1000" 
d="M100 1q-41 0 -70 30q-30 29 -30 69v1400q0 41 29.5 70.5t70.5 29.5h600q41 0 70.5 -29.5t29.5 -70.5h1v-1400h-1q0 -40 -29 -69q-30 -30 -71 -30v-1h-600v1zM601 1400h-401v-1200h401v1200z" />
    <glyph glyph-name="Eacute" unicode="&#xc9;" horiz-adv-x="1000" 
d="M100 1q-41 0 -70 30q-30 29 -30 69v1400q0 41 29.5 70.5t70.5 29.5h600q41 0 70.5 -29.5t29.5 -70.5h1v-1400h-1q0 -40 -29 -69q-30 -30 -71 -30v-1h-600v1zM601 1400h-401v-1200h401v1200z" />
    <glyph glyph-name="Ecircumflex" unicode="&#xca;" 
d="M199 1400v-1200h699q42 0 71 -29q29 -30 29 -71q0 -40 -29 -70q-30 -30 -71 -30h-799q-43 0 -71 29q-29 29 -29 71v1400q0 42 28 70q29 30 72 30h799q42 0 71 -29q29 -30 29 -71t-29 -70q-30 -30 -71 -30h-699zM599 900q0 -40 -30 -70t-70 -30q-41 0 -71 29
q-29 30 -29 71v195q0 42 28 73q29 32 72 32h399q40 0 70 -30t30 -70q0 -41 -29 -71q-29 -29 -71 -29h-299v-100zM800 700q0 40 30 70t70 30q41 0 70 -30q30 -29 30 -70v-195q0 -42 -28 -73q-29 -32 -72 -32h-400q-40 0 -70 30t-30 70q0 41 30 70q29 30 70 30h300v100z
M559 2171l212 -212q29 -30 29 -71.5t-29 -70.5q-30 -29 -71 -29t-71 29l-141 142l-142 -142q-29 -29 -70.5 -29t-70.5 29t-29 71t29 71l212 212q29 29 71 29t71 -29z" />
    <glyph glyph-name="Edieresis" unicode="&#xcb;" 
d="M200 1400v-1200h699q42 0 71 -29q29 -30 29 -71q0 -40 -29 -70q-30 -30 -71 -30h-799q-43 0 -71 29q-29 29 -29 71v1400q0 42 28 70q29 30 72 30h799q42 0 71 -29q29 -30 29 -71t-29 -70q-30 -30 -71 -30h-699zM600 900q0 -40 -30 -70t-70 -30q-41 0 -71 29
q-29 30 -29 71v195q0 42 28 73q29 32 72 32h399q40 0 70 -30t30 -70q0 -41 -29 -71q-29 -29 -71 -29h-299v-100zM801 700q0 40 30 70t70 30q41 0 70 -30q30 -29 30 -70v-195q0 -42 -28 -73q-29 -32 -72 -32h-400q-40 0 -70 30t-30 70q0 41 30 70q29 30 70 30h300v100z
M370.5 1971.5q29.5 -29.5 29.5 -70.5t-29.5 -70.5t-70.5 -29.5t-70.5 29.5t-29.5 70.5t29.5 70.5t70.5 29.5t70.5 -29.5zM771 1971.5q29 -29.5 29 -70.5q0 -42 -29 -71t-71 -29q-41 0 -70.5 29t-29.5 71q0 41 29.5 70.5t70.5 29.5q42 0 71 -29.5z" />
    <glyph glyph-name="Igrave" unicode="&#xcc;" horiz-adv-x="800" 
d="M399 200v1200h-299q-41 0 -71 29q-29 30 -29 71t30 70q29 30 70 30h399q43 0 72 -30q28 -29 28 -70v-1400q0 -41 -28 -70q-29 -30 -72 -30h-399q-43 0 -72 30q-28 29 -28 70v1000q0 41 29 71q30 29 71 29t70 -30q30 -29 30 -70v-900h199zM200 2100q0 41 29.5 70.5
t70.5 29.5t70.5 -29.5t29.5 -70.5v-200q0 -41 -29 -70.5t-71 -29.5q-41 0 -70.5 29.5t-29.5 70.5v200z" />
    <glyph glyph-name="Iacute" unicode="&#xcd;" horiz-adv-x="800" 
d="M399 200v1200h-299q-41 0 -71 29q-29 30 -29 71t30 70q29 30 70 30h399q43 0 72 -30q28 -29 28 -70v-1400q0 -41 -28 -70q-29 -30 -72 -30h-399q-43 0 -72 30q-28 29 -28 70v1000q0 41 29 71q30 29 71 29t70 -30q30 -29 30 -70v-900h199zM334 1841q-21 -35 -61 -46t-76 9
q-35 21 -46 61.5t10 75.5l121 209q21 36 60.5 47t75.5 -10t47 -61t-10 -76z" />
    <glyph glyph-name="Icircumflex" unicode="&#xce;" horiz-adv-x="800" 
d="M399 200v1200h-299q-41 0 -71 29q-29 30 -29 71t30 70q29 30 70 30h399q43 0 72 -30q28 -29 28 -70v-1400q0 -41 -28 -70q-29 -30 -72 -30h-399q-43 0 -72 30q-28 29 -28 70v1000q0 41 29 71q30 29 71 29t70 -30q30 -29 30 -70v-900h199zM373 2171l212 -212
q29 -30 29 -71.5t-29 -70.5q-30 -29 -71 -29t-71 29l-141 142l-142 -142q-29 -29 -70.5 -29t-70.5 29t-29 71t29 71l212 212q29 29 71 29t71 -29z" />
    <glyph glyph-name="Idieresis" unicode="&#xcf;" horiz-adv-x="800" 
d="M399 200v1200h-299q-41 0 -71 29q-29 30 -29 71t30 70q29 30 70 30h399q43 0 72 -30q28 -29 28 -70v-1400q0 -41 -28 -70q-29 -30 -72 -30h-399q-43 0 -72 30q-28 29 -28 70v1000q0 41 29 71q30 29 71 29t70 -30q30 -29 30 -70v-900h199zM163.5 1959.5
q29.5 -29.5 29.5 -70.5t-29.5 -70.5t-70.5 -29.5t-70.5 29.5t-29.5 70.5t29.5 70.5t70.5 29.5t70.5 -29.5zM564 1959.5q29 -29.5 29 -70.5q0 -42 -29 -71t-71 -29q-41 0 -70.5 29t-29.5 71q0 41 29.5 70.5t70.5 29.5q42 0 71 -29.5z" />
    <glyph glyph-name="Eth" unicode="&#xd0;" horiz-adv-x="1600" 
d="M1365 1365q30 -29 30 -70q0 -42 -30 -71q-29 -29 -70 -29q-42 0 -71 29q-176 176 -424 176t-424 -176t-176 -424t176 -424t424 -176q225 0 395 150q60 52 60 100v50h-192q-113 -100 -263 -100q-166 0 -283 117t-117 283t117 283t283 117q160 0 274 -109q38 -38 38 -79
t-29 -71q-30 -29 -71 -29q-43 0 -74 33q-58 55 -138 55q-83 0 -141 -59q-59 -58 -59 -141t59 -141q58 -59 141 -59q80 0 138 55q47 45 96 45h321q44 0 72 -29q28 -28 28 -71v-500q0 -41 -29 -70q-30 -30 -71 -30t-70 30q-30 29 -30 70v44q-206 -144 -455 -144
q-331 0 -566 235q-234 234 -234 565t234 566q235 234 566 234q330 0 565 -235zM404 2082q11 41 48 61q37 21 78 9q40 -12 61 -49q55 -99 213 -99q155 0 208 98q20 37 60 50q41 12 78 -8t49 -61q13 -40 -7 -78q-55 -100 -166 -155q-101 -51 -223 -50q-121 0 -223 50
q-112 55 -168 154q-20 37 -8 78z" />
    <glyph glyph-name="Ntilde" unicode="&#xd1;" horiz-adv-x="1400" 
d="M537 1600q77 0 103 -62l604 -1393q17 -39 1 -78q-15 -40 -54 -56q-39 -17 -78 -1q-39 15 -56 54l-580 1336h-221l544 -1255q17 -39 1 -78q-15 -40 -54 -56q-39 -17 -78 -1q-39 15 -56 54l-413 952v-916q0 -41 -30 -70q-29 -30 -70 -30t-71 29q-29 30 -29 71v1400
q0 46 34 74q31 26 77 26h426zM1082 1571q-29 -30 -29 -71v-402l200 -461v863q0 41 -30 71q-29 29 -70 29t-71 -29zM182 2040q9 42 44 65t77 15q41 -8 65 -44q44 -45 55 -50q75 -38 181 29q221 140 390 44q88 -50 126 -124q23 -35 15 -77q-9 -42 -44 -65q-35 -24 -77 -15
q-42 8 -65 43q-47 47 -55 51q-75 37 -181 -30q-221 -139 -390 -43q-89 50 -126 124q-23 35 -15 77z" />
    <glyph glyph-name="Ograve" unicode="&#xd2;" horiz-adv-x="2000" 
d="M1000 300q0 -42 30 -71q29 -29 70 -29q42 0 71 29t29 71l1 408q-1 38 30 65q30 27 69 27h301v600h-701q-41 0 -70 29q-30 30 -30 71t30 70q29 30 70 30h801q39 0 69 -27t30 -64v-819q0 -38 -30 -65q-30 -25 -69 -25h-301v-300q0 -125 -87 -213q-88 -87 -213 -87
q-124 0 -212 87q-88 88 -88 213v300h-700q-45 -2 -73 28q-27 29 -27 72l1 807q0 40 32 66q29 25 70 27l405 -1q37 -3 63 -29q26 -27 29 -63v-2v-705h300q39 0 68 -27q29 -26 32 -65v-408zM200 800h200v593h-200v-593z" />
    <glyph glyph-name="Oacute" unicode="&#xd3;" horiz-adv-x="1703" 
d="M1200 800q0 -166 -117 -283t-283 -117t-283 117t-117 283t117 283t283 117t283 -117t117 -283zM800 1000q-83 0 -141.5 -58.5t-58.5 -141.5t58.5 -141.5t141.5 -58.5t141.5 58.5t58.5 141.5t-58.5 141.5t-141.5 58.5zM800 1400q-249 0 -424.5 -176t-175.5 -424
q0 -249 175.5 -424.5t424.5 -175.5t424.5 175.5t175.5 424.5q0 248 -175.5 424t-424.5 176zM1365.5 1365.5q234.5 -234.5 234.5 -565.5q0 -332 -234.5 -566t-565.5 -234t-565.5 234t-234.5 566q0 331 234.5 565.5t565.5 234.5t565.5 -234.5zM868 1790q-21 -35 -61 -46t-76 9
q-35 21 -46 61.5t9 75.5l150 260q21 36 61 46.5t76 -10.5q36 -20 47 -60t-10 -76z" />
    <glyph glyph-name="Ocircumflex" unicode="&#xd4;" horiz-adv-x="1706" 
d="M1200 800q0 -166 -117 -283t-283 -117t-283 117t-117 283t117 283t283 117t283 -117t117 -283zM800 1000q-83 0 -141.5 -58.5t-58.5 -141.5t58.5 -141.5t141.5 -58.5t141.5 58.5t58.5 141.5t-58.5 141.5t-141.5 58.5zM800 1400q-249 0 -424.5 -175.5t-175.5 -424.5
t175.5 -424.5t424.5 -175.5t424.5 175.5t175.5 424.5t-175.5 424.5t-424.5 175.5zM1365.5 1365.5q234.5 -234.5 234.5 -565.5t-234.5 -565.5t-565.5 -234.5t-565.5 234.5t-234.5 565.5t234.5 565.5t565.5 234.5t565.5 -234.5zM870 2171l212 -212q29 -30 29 -71.5t-29 -70.5
q-30 -29 -71 -29t-71 29l-141 142l-142 -142q-29 -29 -70.5 -29t-70.5 29t-29 71t29 71l212 212q29 29 71 29t71 -29z" />
    <glyph glyph-name="Otilde" unicode="&#xd5;" horiz-adv-x="1703" 
d="M1200 800q0 -166 -117 -283t-283 -117t-283 117t-117 283t117 283t283 117t283 -117t117 -283zM800 1000q-83 0 -141.5 -58.5t-58.5 -141.5t58.5 -141.5t141.5 -58.5t141.5 58.5t58.5 141.5t-58.5 141.5t-141.5 58.5zM800 1400q-249 0 -424.5 -175.5t-175.5 -424.5
t175.5 -424.5t424.5 -175.5t424.5 175.5t175.5 424.5t-175.5 424.5t-424.5 175.5zM1365.5 1365.5q234.5 -234.5 234.5 -565.5t-234.5 -565.5t-565.5 -234.5t-565.5 234.5t-234.5 565.5t234.5 565.5t565.5 234.5t565.5 -234.5zM341 2040q9 42 44 65t77 15q41 -8 65 -44
q44 -45 55 -50q75 -38 181 29q221 140 390 44q88 -50 126 -124q23 -35 15 -77q-9 -42 -44 -65q-35 -24 -77 -15q-42 8 -65 43q-47 47 -55 51q-75 37 -181 -30q-221 -139 -390 -43q-89 50 -126 124q-23 35 -15 77z" />
    <glyph glyph-name="Odieresis" unicode="&#xd6;" horiz-adv-x="1692" 
d="M1200 800q0 -166 -117 -283t-283 -117t-283 117t-117 283t117 283t283 117t283 -117t117 -283zM800 1000q-83 0 -141.5 -58.5t-58.5 -141.5t58.5 -141.5t141.5 -58.5t141.5 58.5t58.5 141.5t-58.5 141.5t-141.5 58.5zM800 1400q-249 0 -424.5 -175.5t-175.5 -424.5
t175.5 -424.5t424.5 -175.5t424.5 175.5t175.5 424.5t-175.5 424.5t-424.5 175.5zM1365.5 1365.5q234.5 -234.5 234.5 -565.5t-234.5 -565.5t-565.5 -234.5t-565.5 234.5t-234.5 565.5t234.5 565.5t565.5 234.5t565.5 -234.5zM659.5 1970.5q29.5 -29.5 29.5 -70.5
t-29.5 -70.5t-70.5 -29.5t-70.5 29.5t-29.5 70.5t29.5 70.5t70.5 29.5t70.5 -29.5zM1060 1970.5q29 -29.5 29 -70.5q0 -42 -29 -71t-71 -29q-41 0 -70.5 29t-29.5 71q0 41 29.5 70.5t70.5 29.5q42 0 71 -29.5z" />
    <glyph glyph-name="multiply" unicode="&#xd7;" horiz-adv-x="1534" 
d="M738 1013l-1 -1q-29 -29 -70.5 -29.5t-71.5 29.5l-212 212l-140 -140l212 -213v-1q28 -28 28 -69q1 -42 -29 -72l-212 -212l140 -140l213 213l1 -1q28 28 70 29q41 0 70 -29h1l213 -213l140 140l-213 213l1 1q-29 28 -29 70q0 41 29 71l212 212l-140 141l-212 -212v1z
M30 588l213 213l-202 201q-6 4 -11 10q-29 29 -29 71t29 71l283 282q29 29 70 29.5t71 -29.5l213 -212l202 202q4 5 10 11q29 29 70.5 29t70.5 -29q6 -6 10 -11l272 -272q30 -30 30 -71t-29 -70l-213 -214l201 -201q6 -4 11 -10q29 -29 29.5 -70.5t-29.5 -71.5l-282 -282
q-29 -29 -71 -29t-71 29q-5 5 -10 11l-203 203l-198 -199q-6 -8 -14 -16q-29 -29 -70.5 -29t-70.5 29q-6 6 -10 11l-272 272q-30 30 -29.5 71.5t29.5 70.5z" />
    <glyph glyph-name="Oslash" unicode="&#xd8;" horiz-adv-x="2000" 
d="M200 1400v-1000h300q40 0 69 -26q31 -27 31 -65v-9v-102l111 147q43 55 89 55h801v1000h-1401zM0 1500q3 41 30 70q28 30 70 30h1601q39 0 67 -27q29 -26 32 -65l1 -1208q0 -42 -29 -71t-71 -29h-851l-263 -350q-47 -50 -87 -50q-41 0 -70 29q-30 29 -30 71v300h-300
q-38 0 -67 26q-29 27 -32 65zM1301 800q41 0 70 -30q30 -29 30 -70t-30 -71q-30 -29 -70 -29h-801q-41 0 -70 29q-30 29 -30 71q0 41 30 70q29 30 70 30h801zM1301 1200q41 0 70 -30q30 -29 30 -70t-30 -71q-30 -29 -70 -29h-801q-41 0 -70 29q-30 29 -30 71q0 41 30 70
q29 30 70 30h801z" />
    <glyph glyph-name="Ugrave" unicode="&#xd9;" horiz-adv-x="2103" 
d="M665 759l213 212q29 29 70 29q42 0 71 -29l213 -212l212 212q29 29 71 29q41 0 71 -29l3 -3l279 -280q29 -29 29 -70q0 -42 -29 -71t-70 -29q-42 0 -71 29l-212 212l-212 -212l-6 -5h-1l-1 -1q-30 -24 -68 -23q-39 2 -66 29l-213 212l-212 -212q-3 -4 -12 -9
q-29 -22 -66 -20t-64 29l-212 212l-212 -212q-29 -29 -71 -29q-41 0 -70 29t-29 71t29 70l282 283q30 29 71 29q42 0 71 -29z" />
    <glyph glyph-name="Uacute" unicode="&#xda;" horiz-adv-x="1800" 
d="M200 200h559l607 607l-566 566l-600 -600v-573zM100 0q-45 0 -73 28q-27 28 -27 72v700l1 14q0 42 29 72l681 681q31 31 87 33t88 -30l692 -692q28 -29 29 -69t-27 -70l-709 -710q-30 -29 -71 -29h-700zM571 571q29 -30 29 -71t-29 -71q-30 -29 -71 -29t-71 29
q-29 30 -29 71t29 71q30 29 71 29t71 -29z" />
    <glyph glyph-name="Ucircumflex" unicode="&#xdb;" horiz-adv-x="1400" 
d="M1200 100q0 -41 -29 -71q-30 -29 -71 -29h-1000q-41 0 -71 29q-29 30 -29 71v1400q0 41 29 71q30 29 71 29h600q43 0 73 -32l398 -398q28 -28 29 -70v-1000zM1000 900h-394q-40 0 -73 30t-33 70v400h-300v-1200h800v700zM700 1360v-260h260z" />
    <glyph glyph-name="Udieresis" unicode="&#xdc;" horiz-adv-x="1600" 
d="M206 406q-205 205 -205 494q0 290 205 495t494 205q290 0 495 -205t205 -495q0 -289 -205 -494l184 -246q25 -33 19 -74q-6 -42 -39 -66q-33 -25 -74 -19q-42 6 -66 39l-184 246q-155 -85 -335 -85q-289 0 -494 205zM601 1000v100q0 41 29 71q29 29 70 29t71 -29
q29 -30 29 -71v-100h100q42 0 71 -29t29 -71q0 -40 -29 -70q-30 -30 -71 -30h-100v-99q0 -42 -29 -71t-71 -29q-40 0 -70 29q-29 30 -29 71v99h-100q-42 0 -71 30q-29 29 -29 70t29 71q30 29 71 29h100zM700 401q208 0 354 146t146 353t-146 354q-146 146 -354 146
q-207 0 -353 -146q-146 -147 -146 -354t146 -353t353 -146z" />
    <glyph glyph-name="Yacute" unicode="&#xdd;" horiz-adv-x="800" 
d="M399 200v1200h-299q-41 0 -71 29q-29 30 -29 71t30 70q29 30 70 30h399q43 0 72 -30q28 -29 28 -70v-1400q0 -41 -28 -70q-29 -30 -72 -30h-399q-43 0 -72 30q-28 29 -28 70v1000q0 41 29 71q30 29 71 29t70 -29q30 -30 30 -71v-900h199zM332 1841q-21 -35 -61 -46
t-76 10q-35 20 -46 60.5t10 75.5l121 209q21 37 60.5 47.5t75.5 -10.5t47 -60.5t-10 -76.5z" />
    <glyph glyph-name="Thorn" unicode="&#xde;" 
d="M195 386q143 -187 302 -187q125 0 212 88q88 88 88 212q0 103 -50 166l-320 363q-29 30 -29 71t29 71q29 29 70 29q45 0 75 -34l325 -367q100 -116 100 -299q0 -201 -161 -353q-154 -147 -339 -147q-153 0 -266 71q-86 54 -182 176q-35 44 -35 82q0 42 29 71t71 29
q51 0 81 -42zM800 1212q-143 187 -303 187q-124 0 -211 -88q-88 -88 -88 -212q0 -91 50 -166l320 -363q29 -30 29 -71t-29 -71q-29 -29 -71 -29q-44 0 -74 34l-325 367q-100 133 -100 299q0 201 161 354q154 146 338 146q154 0 267 -71q86 -54 182 -176q35 -44 35 -82
q0 -42 -29 -71t-71 -29q-51 0 -81 42zM200 -401q-41 0 -71 29q-29 30 -29 71t29 70q30 30 71 30h200q41 0 70 29q29 30 29 71v200q0 41 30 71q29 29 70 29t71 -30q29 -29 29 -70v-211q0 -126 -84 -207q-85 -82 -215 -82h-200z" />
    <glyph glyph-name="germandbls" unicode="&#xdf;" horiz-adv-x="1600" 
d="M601 95v-4q-4 -38 -33 -64q-29 -27 -67 -27h-400q-39 0 -67 26q-29 27 -32 65v4l-1 5v1100q-1 192 106 340q44 60 94 60q41 0 70 -29q30 -30 30 -71q0 -35 -20 -61q-80 -101 -80 -239v-1000h200v1000q0 165 117 283q117 117 283 117q165 0 282 -117q117 -118 117 -283
q0 -135 -83 -249q128 -62 204 -182q79 -123 79 -269q0 -207 -146 -354q-147 -146 -353 -146q-42 0 -71 29q-29 30 -29 71v400q0 41 29 71q29 29 71 29q40 0 70 -30q29 -29 29 -70v-283q89 32 144 108q56 78 56 175q0 124 -88 212q-87 88 -211 88q-42 0 -71 29t-29 71
q0 71 66 95q58 25 96 83q37 57 37 122q0 83 -58 141q-59 59 -141 59q-83 0 -142 -59q-58 -58 -58 -141v-1105z" />
    <glyph glyph-name="agrave" unicode="&#xe0;" horiz-adv-x="1800" 
d="M705 1600h373q65 0 93 -62q403 -929 605 -1393q19 -49 -5 -95q-26 -50 -87 -50h-220h-219q-76 0 -101 64q-20 45 -59 136h-386q-40 -92 -59 -136q-26 -64 -99 -64h-220h-221q-52 0 -82 45q-31 46 -10 100q414 953 605 1394q27 61 92 61zM478 200q209 483 320 737
q29 65 96 64q66 -2 92 -61q49 -113 86 -199q25 -66 -15 -108q-32 -34 -76 -33h-108q-77 -176 -87 -200h434q28 -64 87 -200h223l-261 600q-173 400 -260 600h-234q-347 -800 -521 -1200h224zM800 2100q0 41 29.5 70.5t70.5 29.5t70.5 -29.5t29.5 -70.5v-200q0 -41 -29 -70.5
t-71 -29.5q-41 0 -70.5 29.5t-29.5 70.5v200z" />
    <glyph glyph-name="aacute" unicode="&#xe1;" horiz-adv-x="1800" 
d="M721 1600h373q65 0 93 -62q403 -929 605 -1393q19 -49 -5 -95q-26 -50 -87 -50h-220h-219q-76 0 -101 64q-20 45 -59 136h-386q-40 -92 -59 -136q-26 -64 -99 -64h-220h-221q-52 0 -82 45q-31 46 -10 100q414 953 605 1394q27 61 92 61zM494 200q209 483 320 737
q29 65 96 64q66 -2 92 -61q49 -113 86 -199q25 -66 -15 -108q-32 -34 -76 -33h-108q-77 -176 -87 -200h434q28 -64 87 -200h223l-261 600q-173 400 -260 600h-234q-347 -800 -521 -1200h224zM949 1840q-21 -35 -61 -46t-76 9q-35 21 -46 61.5t10 75.5l121 209q21 36 60.5 47
t75.5 -10t47 -61t-10 -76z" />
    <glyph glyph-name="acircumflex" unicode="&#xe2;" horiz-adv-x="1889" 
d="M705 1600h373q65 0 93 -62q403 -929 605 -1393q19 -49 -5 -95q-26 -50 -87 -50h-220h-219q-76 0 -101 64q-20 45 -59 136h-386q-40 -92 -59 -136q-26 -64 -99 -64h-220h-221q-52 0 -82 45q-31 46 -10 100q414 953 605 1394q27 61 92 61zM478 200q209 483 320 737
q29 65 96 64q66 -2 92 -61q49 -113 86 -199q25 -66 -15 -108q-32 -34 -76 -33h-108q-77 -176 -87 -200h434q28 -64 87 -200h223l-261 600q-173 400 -260 600h-234q-347 -800 -521 -1200h224zM959 2171l212 -212q29 -30 29 -71.5t-29 -70.5q-30 -29 -71 -29t-71 29l-141 142
l-142 -142q-29 -29 -70.5 -29t-70.5 29t-29 71t29 71l212 212q29 29 71 29t71 -29z" />
    <glyph glyph-name="atilde" unicode="&#xe3;" horiz-adv-x="1891" 
d="M710 1600h373q65 0 93 -62q403 -929 605 -1393q19 -49 -5 -95q-26 -50 -87 -50h-220h-219q-76 0 -101 64q-20 45 -59 136h-386q-40 -92 -59 -136q-26 -64 -99 -64h-220h-221q-52 0 -82 45q-31 46 -10 100q414 953 605 1394q27 61 92 61zM483 200q209 483 320 737
q29 65 96 64q66 -2 92 -61q49 -113 86 -199q25 -66 -15 -108q-32 -34 -76 -33h-108q-77 -176 -87 -200h434q28 -64 87 -200h223l-261 600q-173 400 -260 600h-234q-347 -800 -521 -1200h224zM402 2041q9 42 44 65t77 15q41 -8 65 -44q44 -45 55 -50q75 -38 181 29
q221 140 390 44q88 -50 126 -124q23 -35 15 -77q-9 -42 -44 -65q-35 -24 -77 -15q-42 8 -65 43q-47 47 -55 51q-75 37 -181 -30q-221 -139 -390 -43q-89 50 -126 124q-23 35 -15 77z" />
    <glyph glyph-name="adieresis" unicode="&#xe4;" horiz-adv-x="1881" 
d="M710 1600h373q65 0 93 -62q403 -929 605 -1393q19 -49 -5 -95q-26 -50 -87 -50h-220h-219q-76 0 -101 64q-20 45 -59 136h-386q-40 -92 -59 -136q-26 -64 -99 -64h-220h-221q-52 0 -82 45q-31 46 -10 100q414 953 605 1394q27 61 92 61zM483 200q209 483 320 737
q29 65 96 64q66 -2 92 -61q49 -113 86 -199q25 -66 -15 -108q-32 -34 -76 -33h-108q-77 -176 -87 -200h434q28 -64 87 -200h223l-261 600q-173 400 -260 600h-234q-347 -800 -521 -1200h224zM770.5 1971.5q29.5 -29.5 29.5 -70.5t-29.5 -70.5t-70.5 -29.5t-70.5 29.5
t-29.5 70.5t29.5 70.5t70.5 29.5t70.5 -29.5zM1171 1971.5q29 -29.5 29 -70.5q0 -42 -29 -71t-71 -29q-41 0 -70.5 29t-29.5 71q0 41 29.5 70.5t70.5 29.5q42 0 71 -29.5z" />
    <glyph glyph-name="aring" unicode="&#xe5;" horiz-adv-x="1400" 
d="M883 1483q117 -118 117 -283q0 -45 -11 -92q211 -150 211 -408q0 -152 -84 -277q-81 -122 -216 -181v-142q0 -41 -29 -71q-30 -29 -71 -29t-70 29q-30 30 -30 71v100v0q-50 0 -100 10v-110q0 -41 -29 -71q-30 -29 -71 -29t-70 30q-30 29 -30 70v200q-200 151 -200 400
v400h-100q-41 0 -71 29q-29 30 -29 71t30 70q29 30 70 30h113q34 131 141 215q108 85 246 85q165 0 283 -117zM629 846q-29 29 -29 71q0 72 68 95h-1q59 21 95 72q38 52 38 116q0 83 -59 141q-58 59 -141 59q-115 0 -173 -100h73q41 0 71 -29q29 -30 29 -71t-30 -70
q-29 -30 -70 -30h-100v-400q0 -124 88 -212t212 -88t212 88t88 212q0 139 -107 230q-62 -67 -144 -100q-29 -13 -49 -13q-41 0 -71 29z" />
    <glyph glyph-name="ae" unicode="&#xe6;" horiz-adv-x="1800" 
d="M881 41q-31 -41 -81 -41q-48 0 -78 37l-537 662q-108 133 -119 151q-66 116 -66 250q0 208 146 354t354 146q167 0 300 -100q133 100 300 100q208 0 354 -146t146 -354q0 -173 -120 -322zM1312 888q88 110 88 212q0 125 -88 212q-87 88 -212 88q-113 0 -198 -75
q-69 -61 -103 -61q-36 1 -89 50q-86 86 -210 86q-125 0 -212 -88q-88 -87 -88 -212q0 -78 42 -148q15 -25 93 -120l465 -574z" />
    <glyph glyph-name="ccedilla" unicode="&#xe7;" horiz-adv-x="1600" 
d="M1364 1365q30 -29 30 -70q0 -42 -29 -71q-30 -29 -71 -29t-71 29q-176 176 -424 176t-423 -176q-176 -176 -176 -424t176 -424q175 -176 423 -176q249 0 424 176l2 -2q30 32 74 32q41 0 71 -30q29 -29 29 -70q0 -60 -54 -88q-231 -218 -546 -218q-330 0 -565 235
q-234 234 -234 565t234 566q235 234 565 234q331 0 565 -235zM1082 659q29 -30 29 -71t-29 -71q-117 -117 -283 -117q-165 0 -282 117t-117 283t117 283t282 117q163 0 279 -114l4 -3q29 -29 29 -71q0 -41 -29 -71q-29 -29 -71 -29q-41 0 -70 29l-2 2l-2 2v0q-57 55 -138 55
q-82 0 -141 -59q-58 -58 -58 -141t58 -141q59 -59 141 -59q80 0 138 55l4 4q29 29 70 29q42 0 71 -29zM401 -400q-41 0 -71 29q-29 30 -29 71t29 70q30 30 71 30h200q41 0 70 29q29 30 29 71v200q0 41 30 71q29 29 70 29t71 -30q29 -29 29 -70v-211q0 -126 -84 -207
q-85 -82 -215 -82h-200z" />
    <glyph glyph-name="egrave" unicode="&#xe8;" 
d="M200 1400v-1200h699q42 0 71 -29q29 -30 29 -71q0 -40 -29 -70q-30 -30 -71 -30h-799q-43 0 -71 29q-29 29 -29 71v1400q0 42 28 70q29 30 72 30h799q42 0 71 -29q29 -30 29 -71t-29 -70q-30 -30 -71 -30h-699zM600 900q0 -40 -30 -70t-70 -30q-41 0 -71 29
q-29 30 -29 71v195q0 42 28 73q29 32 72 32h399q40 0 70 -30t30 -70q0 -41 -29 -71q-29 -29 -71 -29h-299v-100zM801 700q0 40 30 70t70 30q41 0 70 -30q29 -29 29 -70v-195q0 -42 -27 -73q-29 -32 -72 -32h-400q-40 0 -70 30t-30 70q0 41 29 70q30 30 71 30h300v100z
M400 2100q0 41 29.5 70.5t70.5 29.5t70.5 -29.5t29.5 -70.5v-200q0 -41 -29 -70.5t-71 -29.5q-41 0 -70.5 29.5t-29.5 70.5v200z" />
    <glyph glyph-name="eacute" unicode="&#xe9;" 
d="M201 1400v-1200h699q42 0 71 -29q29 -30 29 -71q0 -40 -29 -70q-30 -30 -71 -30h-799q-43 0 -71 29q-29 29 -29 71v1400q0 42 28 70q29 30 72 30h799q42 0 71 -29q29 -30 29 -71t-29 -70q-30 -30 -71 -30h-699zM601 900q0 -40 -30 -70t-70 -30q-41 0 -71 29
q-29 30 -29 71v195q0 42 28 73q29 32 72 32h399q40 0 70 -30t30 -70q0 -41 -29 -71q-29 -29 -71 -29h-299v-100zM802 700q0 40 30 70t70 30q41 0 70 -30q29 -29 29 -70v-195q0 -42 -27 -73q-29 -32 -72 -32h-400q-40 0 -70 30t-30 70q0 41 29 70q30 30 71 30h300v100z
M543 1841q-21 -35 -61 -46t-76 9q-35 21 -46 61.5t10 75.5l121 209q21 36 60.5 47t75.5 -10t47 -61t-10 -76z" />
    <glyph glyph-name="ecircumflex" unicode="&#xea;" 
d="M202 1400v-1200h699q42 0 71 -29q29 -30 29 -71q0 -40 -29 -70q-30 -30 -71 -30h-799q-43 0 -71 29q-29 29 -29 71v1400q0 42 28 70q29 30 72 30h799q42 0 71 -29q29 -30 29 -71t-29 -70q-30 -30 -71 -30h-699zM602 900q0 -40 -30 -70t-70 -30q-41 0 -71 29
q-29 30 -29 71v195q0 42 28 73q29 32 72 32h399q40 0 70 -30t30 -70q0 -41 -29 -71q-29 -29 -71 -29h-299v-100zM803 700q0 40 30 70t70 30q41 0 70 -30q29 -29 29 -70v-195q0 -42 -27 -73q-29 -32 -72 -32h-400q-40 0 -70 30t-30 70q0 41 29 70q30 30 71 30h300v100z
M573 2163l212 -212q29 -30 29 -71.5t-29 -70.5q-30 -29 -71 -29t-71 29l-141 142l-142 -142q-29 -29 -70.5 -29t-70.5 29t-29 71t29 71l212 212q29 29 71 29t71 -29z" />
    <glyph glyph-name="edieresis" unicode="&#xeb;" 
d="M199 1400v-1200h699q42 0 71 -29q29 -30 29 -71q0 -40 -29 -70q-30 -30 -71 -30h-799q-43 0 -71 29q-29 29 -29 71v1400q0 42 28 70q29 30 72 30h799q42 0 71 -29q29 -30 29 -71t-29 -70q-30 -30 -71 -30h-699zM599 900q0 -40 -30 -70t-70 -30q-41 0 -71 29
q-29 30 -29 71v195q0 42 28 73q29 32 72 32h399q40 0 70 -30t30 -70q0 -41 -29 -71q-29 -29 -71 -29h-299v-100zM800 700q0 40 30 70t70 30q41 0 70 -30q29 -29 29 -70v-195q0 -42 -27 -73q-29 -32 -72 -32h-400q-40 0 -70 30t-30 70q0 41 29 70q30 30 71 30h300v100z
M369.5 1970.5q29.5 -29.5 29.5 -70.5t-29.5 -70.5t-70.5 -29.5t-70.5 29.5t-29.5 70.5t29.5 70.5t70.5 29.5t70.5 -29.5zM770 1970.5q29 -29.5 29 -70.5q0 -42 -29 -71t-71 -29q-41 0 -70.5 29t-29.5 71q0 41 29.5 70.5t70.5 29.5q42 0 71 -29.5z" />
    <glyph glyph-name="igrave" unicode="&#xec;" horiz-adv-x="800" 
d="M399 200v1200h-299q-41 0 -71 29q-29 30 -29 71t30 70q29 30 70 30h399q43 0 72 -30q28 -29 28 -70v-1400q0 -41 -28 -70q-29 -30 -72 -30h-399q-43 0 -72 30q-28 29 -28 70v1000q0 41 29 71q30 29 71 29t70 -30q30 -29 30 -70v-900h199zM201 2100q0 41 29.5 70.5
t70.5 29.5t70.5 -29.5t29.5 -70.5v-200q0 -41 -29 -70.5t-71 -29.5q-41 0 -70.5 29.5t-29.5 70.5v200z" />
    <glyph glyph-name="iacute" unicode="&#xed;" horiz-adv-x="800" 
d="M399 200v1200h-299q-41 0 -71 29q-29 30 -29 71t30 70q29 30 70 30h399q43 0 72 -30q28 -29 28 -70v-1400q0 -41 -28 -70q-29 -30 -72 -30h-399q-43 0 -72 30q-28 29 -28 70v1000q0 41 29 71q30 29 71 29t70 -30q30 -29 30 -70v-900h199zM332 1841q-21 -35 -61 -46t-76 9
q-35 21 -46 61.5t10 75.5l121 209q21 36 60.5 47t75.5 -10t47 -61t-10 -76z" />
    <glyph glyph-name="icircumflex" unicode="&#xee;" horiz-adv-x="800" 
d="M399 200v1200h-299q-41 0 -71 29q-29 30 -29 71t30 70q29 30 70 30h399q43 0 72 -30q28 -29 28 -70v-1400q0 -41 -28 -70q-29 -30 -72 -30h-399q-43 0 -72 30q-28 29 -28 70v1000q0 41 29 71q30 29 71 29t70 -30q30 -29 30 -70v-900h199zM373 2171l212 -212
q29 -30 29 -71.5t-29 -70.5q-30 -29 -71 -29t-71 29l-141 142l-142 -142q-29 -29 -70.5 -29t-70.5 29t-29 71t29 71l212 212q29 29 71 29t71 -29z" />
    <glyph glyph-name="idieresis" unicode="&#xef;" horiz-adv-x="800" 
d="M400 200v1200h-299q-41 0 -71 29q-29 30 -29 71t30 70q29 30 70 30h399q43 0 72 -30q28 -29 28 -70v-1400q0 -41 -28 -70q-29 -30 -72 -30h-399q-43 0 -72 30q-28 29 -28 70v1000q0 41 29 71q30 29 71 29t70 -30q30 -29 30 -70v-900h199zM170.5 1970.5
q29.5 -29.5 29.5 -70.5t-29.5 -70.5t-70.5 -29.5t-70.5 29.5t-29.5 70.5t29.5 70.5t70.5 29.5t70.5 -29.5zM571 1970.5q29 -29.5 29 -70.5q0 -42 -29 -71t-71 -29q-41 0 -70.5 29t-29.5 71q0 41 29.5 70.5t70.5 29.5q42 0 71 -29.5z" />
    <glyph glyph-name="eth" unicode="&#xf0;" horiz-adv-x="1600" 
d="M1365 1365q30 -29 30 -70q0 -42 -30 -71q-29 -29 -70 -29q-42 0 -71 29q-176 176 -424 176t-424 -176t-176 -424t176 -424t424 -176q225 0 395 150q60 52 60 100v50h-192q-113 -100 -263 -100q-166 0 -283 117t-117 283t117 283t283 117q160 0 274 -109q38 -38 38 -79
t-29 -71q-30 -29 -71 -29q-43 0 -74 33q-58 55 -138 55q-83 0 -141 -59q-59 -58 -59 -141t59 -141q58 -59 141 -59q80 0 138 55q47 45 96 45h321q44 0 72 -29q28 -28 28 -71v-500q0 -41 -29 -70q-30 -30 -71 -30t-70 30q-30 29 -30 70v44q-206 -144 -455 -144
q-331 0 -566 235q-234 234 -234 565t234 566q235 234 566 234q330 0 565 -235zM352 2082q11 41 48 61q37 21 78 9q40 -12 61 -49q55 -99 213 -99q155 0 208 98q20 37 60 50q41 12 78 -8t49 -61q13 -40 -7 -78q-55 -100 -166 -155q-101 -51 -223 -50q-121 0 -223 50
q-112 55 -168 154q-20 37 -8 78z" />
    <glyph glyph-name="ntilde" unicode="&#xf1;" horiz-adv-x="1400" 
d="M537 1600q77 0 103 -62l604 -1393q17 -39 1 -78q-15 -40 -54 -56q-39 -17 -78 -1q-39 15 -56 54l-580 1336h-221l544 -1255q17 -39 1 -78q-15 -40 -54 -56q-39 -17 -78 -1q-39 15 -56 54l-413 952v-916q0 -41 -30 -70q-29 -30 -70 -30t-71 29q-29 30 -29 71v1400
q0 46 34 74q31 26 77 26h426zM1082 1571q-29 -30 -29 -71v-402l200 -461v863q0 41 -30 71q-29 29 -70 29t-71 -29zM157 2031q9 42 44 65t77 15q41 -8 65 -44q44 -45 55 -50q75 -38 181 29q221 140 390 44q88 -50 126 -124q23 -35 15 -77q-9 -42 -44 -65q-35 -24 -77 -15
q-42 8 -65 43q-47 47 -55 51q-75 37 -181 -30q-221 -139 -390 -43q-89 50 -126 124q-23 35 -15 77z" />
    <glyph glyph-name="ograve" unicode="&#xf2;" horiz-adv-x="1600" 
d="M171 1470.5q29 -29.5 29 -70.5t-29 -70.5t-71 -29.5q-41 0 -70.5 29.5t-29.5 70.5t29.5 70.5t70.5 29.5q42 0 71 -29.5zM571.5 1471q29.5 -29 29.5 -71q0 -41 -29.5 -70.5t-70.5 -29.5q-42 0 -71 29.5t-29 70.5q0 42 29 71t71 29q41 0 70.5 -29zM1371.5 1471.5
q29.5 -29.5 29.5 -70.5q0 -42 -29.5 -71t-70.5 -29q-42 0 -71 29t-29 71q0 41 29 70.5t71 29.5q41 0 70.5 -29.5zM971 1471q29 -29 29 -71q0 -41 -29 -70.5t-71 -29.5q-41 0 -70.5 29.5t-29.5 70.5q0 42 29.5 71t70.5 29q42 0 71 -29zM171 1070.5q29 -29.5 29 -70.5
q0 -42 -29 -71t-71 -29q-41 0 -70.5 29t-29.5 71q0 41 29.5 70.5t70.5 29.5q42 0 71 -29.5zM571.5 1070.5q29.5 -29.5 29.5 -70.5t-29.5 -70.5t-70.5 -29.5q-42 0 -71 29.5t-29 70.5t29 70.5t71 29.5q41 0 70.5 -29.5zM1371.5 1071q29.5 -29 29.5 -71q0 -41 -29.5 -70.5
t-70.5 -29.5q-42 0 -71 29.5t-29 70.5q0 42 29 71t71 29q41 0 70.5 -29zM971 1071q29 -29 29 -71q0 -41 -29 -70.5t-71 -29.5q-41 0 -70.5 29.5t-29.5 70.5q0 42 29.5 71t70.5 29q42 0 71 -29zM170.5 671q29.5 -29 29.5 -71q0 -41 -29.5 -70.5t-70.5 -29.5t-70.5 29.5
t-29.5 70.5q0 42 29.5 71t70.5 29t70.5 -29zM571 671.5q29 -29.5 29 -70.5q0 -42 -29 -71t-71 -29q-41 0 -70.5 29t-29.5 71q0 41 29.5 70.5t70.5 29.5q42 0 71 -29.5zM1371 671.5q29 -29.5 29 -70.5t-29 -70.5t-71 -29.5q-41 0 -70.5 29.5t-29.5 70.5t29.5 70.5t70.5 29.5
q42 0 71 -29.5zM970.5 671.5q29.5 -29.5 29.5 -70.5q0 -42 -29.5 -71t-70.5 -29t-70.5 29t-29.5 71q0 41 29.5 70.5t70.5 29.5t70.5 -29.5zM170.5 271q29.5 -29 29.5 -71q0 -41 -29.5 -70.5t-70.5 -29.5t-70.5 29.5t-29.5 70.5q0 42 29.5 71t70.5 29t70.5 -29zM571 271
q29 -29 29 -71q0 -41 -29 -70.5t-71 -29.5q-41 0 -70.5 29.5t-29.5 70.5q0 42 29.5 71t70.5 29q42 0 71 -29zM1371 271.5q29 -29.5 29 -70.5q0 -42 -29 -71t-71 -29q-41 0 -70.5 29t-29.5 71q0 41 29.5 70.5t70.5 29.5q42 0 71 -29.5zM970.5 271.5q29.5 -29.5 29.5 -70.5
q0 -42 -29.5 -71t-70.5 -29t-70.5 29t-29.5 71q0 41 29.5 70.5t70.5 29.5t70.5 -29.5z" />
    <glyph glyph-name="oacute" unicode="&#xf3;" horiz-adv-x="1600" 
d="M843 671q29 -29 29 -71t-29 -71t-70.5 -29t-70.5 29l-212 213q-30 29 -30 70t30 71l212 212q29 29 70 29t71 -30q29 -29 29 -70t-29 -70l-141 -142zM200 1300v-1001h1000v1001h-1000zM1400 200q0 -42 -29 -71t-71 -29v-1h-1200q-41 0 -70 30q-29 29 -29 70v4h-1v1200
q1 39 30 68t70 29h1200q41 0 70.5 -29.5t29.5 -70.5v-1200z" />
    <glyph glyph-name="ocircumflex" unicode="&#xf4;" horiz-adv-x="1600" 
d="M698 812l-141 142q-29 29 -29 70t29 70q30 30 71 30t70 -29l212 -212q30 -30 30 -71t-30 -70l-212 -213q-29 -29 -70.5 -29t-70.5 29t-29 71t29 71zM200 1300v-1001h1000v1001h-1000zM0 1400q0 41 29.5 70.5t70.5 29.5h1200q41 0 71 -29q28 -29 29 -68v-1200h-1v-4
q0 -41 -29 -70q-29 -30 -70 -30h-1200v1q-42 0 -71 29t-29 71v1200z" />
    <glyph glyph-name="otilde" unicode="&#xf5;" horiz-adv-x="1800" 
d="M1366 1366q234 -235 234 -566t-234 -566q-235 -234 -566 -234t-566 234q-234 235 -234 566t234 566q235 234 566 234t566 -234zM1070 929q30 29 30 71q0 41 -30 71q-29 29 -70 29q-42 0 -71 -29q-29 -30 -29 -71q0 -42 29 -71t71 -29q41 0 70 29zM670 929q30 29 30 71
q0 41 -30 71q-29 29 -70 29q-42 0 -71 -29q-29 -30 -29 -71q0 -42 29 -71t71 -29q41 0 70 29zM800 1400q-248 0 -424 -176t-176 -424t176 -424t424 -176t424 176q176 175 176 424q0 248 -176 424t-424 176zM671 531q29 29 29 70q0 42 -29 71q-30 29 -71 29t-71 -29
q-29 -29 -29 -71q0 -41 29 -70q30 -30 71 -30t71 30zM1071 531q29 29 29 70q0 42 -29 71q-30 29 -71 29t-71 -29q-29 -29 -29 -71q0 -41 29 -70q30 -30 71 -30t71 30z" />
    <glyph glyph-name="odieresis" unicode="&#xf6;" horiz-adv-x="1800" 
d="M1366 1366q234 -235 234 -566t-234 -566q-235 -234 -566 -234t-566 234q-234 235 -234 566t234 566q235 234 566 234t566 -234zM800 1400q-248 0 -424 -176t-176 -424t176 -424t424 -176t424 176q176 175 176 424q0 248 -176 424t-424 176zM1083 941q30 30 30 71
q-1 42 -30 71q-30 30 -71 30t-71 -30l-142 -142l-141 141q-29 29 -70 29q-41 1 -71 -29q-29 -29 -29 -71q0 -41 29 -70l141 -141l-141 -141q-29 -29 -29 -70q-1 -42 29 -72q29 -29 72 -29q41 0 70 29l141 141l141 -142q30 -29 71 -29q42 0 71 29q29 30 29 71t-29 71
l-142 141z" />
    <glyph glyph-name="divide" unicode="&#xf7;" 
d="M500 1400q-41 0 -70.5 -29.5t-29.5 -70.5t29.5 -70.5t70.5 -29.5t70.5 29.5t29.5 70.5t-29.5 70.5t-70.5 29.5zM712 1512q88 -88 88 -212t-88 -212t-212 -88t-212 88t-88 212t88 212t212 88t212 -88zM501 400q-41 0 -70.5 -29.5t-29.5 -70.5q0 -42 29.5 -71t70.5 -29
t70.5 29t29.5 71q0 41 -29.5 70.5t-70.5 29.5zM713 512q88 -88 88 -212t-88 -212t-212 -88t-212 88t-88 212t88 212t212 88t212 -88zM100 700q-41 0 -70.5 29.5t-29.5 70.5t29.5 70.5t70.5 29.5h800q41 0 70.5 -29.5t29.5 -70.5q0 -42 -29.5 -71t-70.5 -29h-800z" />
    <glyph glyph-name="oslash" unicode="&#xf8;" horiz-adv-x="2000" 
d="M200 1402v-199h200v199h-200zM800 202h-700q-40 0 -70 31q-31 31 -30 73v1196q-1 42 28 71q29 30 72 30l1599 -1q40 0 70 -29q30 -30 31 -74v-1196q0 -42 -30 -71q-29 -30 -70 -30h-300v-99q0 -41 -30 -70q-29 -30 -70 -30t-71 29q-29 30 -29 71v99h-200v-299
q0 -41 -30 -70q-29 -30 -70 -30t-71 29q-29 30 -29 71v299zM1200 402v101v100h-200v-201h200zM599 1203h201v199h-201v-199zM1000 1203h200v199h-200v-199zM1400 1203h200v199h-200v-199zM1400 1003v-200h200v200h-200zM1400 603v-201h200v201h-200zM1200 803v200h-200v-200
h200zM800 402v201h-201v-201h201zM800 803v200h-201v-200h201zM400 402v201h-200v-201h200zM400 803v200h-200v-200h200z" />
    <glyph glyph-name="ugrave" unicode="&#xf9;" 
d="M601 500q0 -41 -30 -71q-29 -29 -70 -29t-71 30q-30 29 -30 70v900h-200v-900q0 -124 88 -212t213 -88q124 0 212 88t88 212v1000q0 41 29 71q30 29 71 29t71 -29q29 -30 29 -71v-1000q0 -207 -146 -354q-147 -146 -354 -146q-208 0 -355 146q-146 147 -146 354v1000
q0 43 28 71q29 29 72 29h401q43 0 71 -28q29 -28 29 -72v-1000zM400 2100q0 41 29.5 70.5t70.5 29.5t70.5 -29.5t29.5 -70.5v-200q0 -41 -29 -70.5t-71 -29.5q-41 0 -70.5 29.5t-29.5 70.5v200z" />
    <glyph glyph-name="uacute" unicode="&#xfa;" 
d="M601 500q0 -41 -30 -71q-29 -29 -70 -29t-71 30q-30 29 -30 70v900h-200v-900q0 -124 88 -212t213 -88q124 0 212 88t88 212v1000q0 41 29 71q30 29 71 29t71 -29q29 -30 29 -71v-1000q0 -207 -146 -354q-147 -146 -354 -146q-208 0 -355 146q-146 147 -146 354v1000
q0 43 28 71q29 29 72 29h401q43 0 71 -28q29 -28 29 -72v-1000zM545 1841q-21 -35 -61 -46t-76 9q-35 21 -46 61.5t10 75.5l121 209q21 36 60.5 47t75.5 -10t47 -61t-10 -76z" />
    <glyph glyph-name="ucircumflex" unicode="&#xfb;" 
d="M597 500q0 -41 -30 -71q-29 -29 -70 -29t-71 30q-30 29 -30 70v900h-200v-900q0 -124 88 -212t213 -88q124 0 212 88t88 212v1000q0 41 29 71q30 29 71 29t71 -29q29 -30 29 -71v-1000q0 -207 -146 -354q-147 -146 -354 -146q-208 0 -355 146q-146 147 -146 354v1000
q0 43 28 71q29 29 72 29h401q43 0 71 -28q29 -28 29 -72v-1000zM575 2163l212 -212q29 -30 29 -71.5t-29 -70.5q-30 -29 -71 -29t-71 29l-141 142l-142 -142q-29 -29 -70.5 -29t-70.5 29t-29 71t29 71l212 212q29 29 71 29t71 -29z" />
    <glyph glyph-name="udieresis" unicode="&#xfc;" 
d="M602 500q0 -41 -30 -71q-29 -29 -70 -29t-71 30q-30 29 -30 70v900h-200v-900q0 -124 88 -212t213 -88q124 0 212 88t88 212v1000q0 41 29 71q30 29 71 29t71 -29q29 -30 29 -71v-1000q0 -207 -146 -354q-147 -146 -354 -146q-208 0 -355 146q-146 147 -146 354v1000
q0 43 28 71q29 29 72 29h401q43 0 71 -28q29 -28 29 -72v-1000zM369.5 1970.5q29.5 -29.5 29.5 -70.5t-29.5 -70.5t-70.5 -29.5t-70.5 29.5t-29.5 70.5t29.5 70.5t70.5 29.5t70.5 -29.5zM770 1970.5q29 -29.5 29 -70.5q0 -42 -29 -71t-71 -29q-41 0 -70.5 29t-29.5 71
q0 41 29.5 70.5t70.5 29.5q42 0 71 -29.5z" />
    <glyph glyph-name="yacute" unicode="&#xfd;" horiz-adv-x="2200" 
d="M1800 341l-458 459l458 458v-917zM342 200l458 458l130 -129q29 -29 70 -29q42 0 71 29l129 129l459 -458h-1317zM200 1258l459 -458l-459 -459v917zM1659 1400l-659 -659l-658 659h1317zM2000 1500q0 42 -28 71q-29 29 -72 29h-1800q-43 0 -71 -28q-29 -28 -29 -72
v-1400q0 -41 28 -70q29 -30 72 -30h1800q43 0 72 29q28 29 28 71v1400z" />
    <glyph glyph-name="thorn" unicode="&#xfe;" 
d="M194 387q143 -187 302 -187q125 0 212 88q88 88 88 212q0 103 -50 166l-320 363q-29 30 -29 71t29 71q29 29 70 29q45 0 75 -34l325 -367q100 -116 100 -299q0 -201 -161 -353q-154 -147 -339 -147q-153 0 -266 71q-86 54 -182 176q-35 44 -35 82q0 42 29 71t71 29
q51 0 81 -42zM799 1213q-143 187 -303 187q-124 0 -211 -88q-88 -88 -88 -212q0 -91 50 -166l320 -363q29 -30 29 -71t-29 -71q-29 -29 -71 -29q-44 0 -74 34l-325 367q-100 133 -100 299q0 201 161 354q154 146 338 146q154 0 267 -71q86 -54 182 -176q35 -44 35 -82
q0 -42 -29 -71t-71 -29q-51 0 -81 42zM203 -400q-41 0 -71 29q-29 30 -29 71t29 70q30 30 71 30h200q41 0 70 29q29 30 29 71v200q0 41 30 71q29 29 70 29t71 -30q29 -29 29 -70v-211q0 -126 -84 -207q-85 -82 -215 -82h-200z" />
    <glyph glyph-name="ydieresis" unicode="&#xff;" 
d="M854 1453q147 -148 147 -353v-600q0 -206 -147 -353t-353 -147t-353 147q-148 148 -148 353v600q0 206 147 353t354 147q205 0 353 -147zM601 1000h200v100q0 96 -57 174q-55 77 -143 109v-383zM400 1000v383q-88 -32 -143 -109q-57 -78 -57 -174v-100h200zM801 800h-601
v-300q0 -124 88 -212q89 -88 213 -88q122 0 211 88q89 89 89 212v300z" />
    <glyph glyph-name="Cacute" unicode="&#x106;" horiz-adv-x="1600" 
d="M1365 1365q30 -29 30 -70q0 -42 -29 -71q-30 -29 -71 -29t-71 29q-176 176 -424 176t-423 -176q-176 -176 -176 -424t176 -424q175 -176 423 -176q249 0 424 176l2 -2q30 32 74 32q41 0 71 -30q29 -29 29 -70q0 -60 -54 -88q-231 -218 -546 -218q-330 0 -565 235
q-234 234 -234 565t234 566q235 234 565 234q331 0 565 -235zM1083 659q29 -30 29 -71t-29 -71q-117 -117 -283 -117q-165 0 -282 117t-117 283t117 283t282 117q163 0 279 -114l4 -3q29 -29 29 -71q0 -41 -29 -71q-29 -29 -71 -29q-41 0 -70 29l-2 2l-2 2v0q-57 55 -138 55
q-82 0 -141 -59q-58 -58 -58 -141t58 -141q59 -59 141 -59q80 0 138 55l4 4q29 29 70 29q42 0 71 -29zM787 1841q-21 -35 -61 -46t-76 9q-35 21 -46 61.5t10 75.5l121 209q21 36 60.5 47t75.5 -10t47 -61t-10 -76z" />
    <glyph glyph-name="cacute" unicode="&#x107;" horiz-adv-x="1600" 
d="M1365 1366q30 -30 30 -71t-29 -71q-30 -29 -71 -29t-71 29q-176 176 -424 176t-423 -176q-176 -175 -176 -424q0 -248 176 -424q175 -176 423 -176q249 0 424 176l2 -2q30 32 74 32q41 0 71 -29q29 -30 29 -71q0 -60 -54 -88q-231 -218 -546 -218q-330 0 -565 235
q-234 234 -234 565t234 566q235 234 565 234q331 0 565 -234zM1083 659q29 -29 29 -71q0 -41 -29 -70q-117 -118 -283 -118q-165 0 -282 118q-117 117 -117 282q0 166 117 283t282 117q163 0 279 -113l4 -4q29 -29 29 -71q0 -41 -29 -70q-29 -30 -71 -30q-41 0 -70 30l-2 2
l-2 1v1q-57 54 -138 54q-82 0 -141 -58q-58 -59 -58 -142q0 -82 58 -141q59 -59 141 -59q80 0 138 56l4 3q29 29 70 29q42 0 71 -29zM787 1841q-21 -35 -61.5 -46t-75.5 9q-36 21 -46.5 61.5t9.5 75.5l121 209q21 36 61 46.5t76 -10.5q35 -20 46.5 -60t-9.5 -76z" />
    <glyph glyph-name="Ccaron" unicode="&#x10c;" horiz-adv-x="1600" 
d="M1364 1365q30 -29 30 -70q0 -42 -29 -71q-30 -29 -71 -29t-71 29q-176 176 -424 176t-423 -176q-176 -176 -176 -424t176 -424q175 -176 423 -176q249 0 424 176l2 -2q30 32 74 32q41 0 71 -30q29 -29 29 -70q0 -60 -54 -88q-231 -218 -546 -218q-330 0 -565 235
q-234 234 -234 565t234 566q235 234 565 234q331 0 565 -235zM1082 659q29 -30 29 -71t-29 -71q-117 -117 -283 -117q-165 0 -282 117t-117 283t117 283t282 117q163 0 279 -114l4 -3q29 -29 29 -71q0 -41 -29 -71q-29 -29 -71 -29q-41 0 -70 29l-2 2l-2 2v0q-57 55 -138 55
q-82 0 -141 -59q-58 -58 -58 -141t58 -141q59 -59 141 -59q80 0 138 55l4 4q29 29 70 29q42 0 71 -29zM642 1816l-212 213q-30 29 -29.5 70.5t29.5 70.5q29 30 70 30t71 -30l142 -141l141 141q29 29 70.5 29t70.5 -29t29 -70.5t-29 -70.5l-212 -213q-29 -29 -70.5 -29
t-70.5 29z" />
    <glyph glyph-name="ccaron" unicode="&#x10d;" horiz-adv-x="1600" 
d="M1364 1365q30 -29 30 -70q0 -42 -29 -71q-30 -29 -71 -29t-71 29q-176 176 -424 176t-423 -176q-176 -176 -176 -424t176 -424q175 -176 423 -176q249 0 424 176l2 -2q30 32 74 32q41 0 71 -30q29 -29 29 -70q0 -60 -54 -88q-231 -218 -546 -218q-330 0 -565 235
q-234 234 -234 565t234 566q235 234 565 234q331 0 565 -235zM1082 659q29 -30 29 -71t-29 -71q-117 -117 -283 -117q-165 0 -282 117t-117 283t117 283t282 117q163 0 279 -114l4 -3q29 -29 29 -71q0 -41 -29 -71q-29 -29 -71 -29q-41 0 -70 29l-2 2l-2 2v0q-57 55 -138 55
q-82 0 -141 -59q-58 -58 -58 -141t58 -141q59 -59 141 -59q80 0 138 55l4 4q29 29 70 29q42 0 71 -29zM696 1816l-212 213q-30 29 -29.5 70.5t29.5 70.5q29 30 70 30t71 -30l142 -141l141 141q29 29 70.5 29t70.5 -29t29 -70.5t-29 -70.5l-212 -213q-29 -29 -70.5 -29
t-70.5 29z" />
    <glyph glyph-name="dcroat" unicode="&#x111;" horiz-adv-x="1800" 
d="M800 600q83 0 142 59q59 58 59 141t-59 141q-59 59 -142 59v-400zM805 1200q164 -2 280 -119t116 -281q0 -166 -118 -283q-117 -117 -283 -117h-100q-41 0 -70 29q-30 30 -30 71v500h-200v-800h400q249 0 425 176t176 424t-176 424t-425 176h-700q-41 0 -70.5 29.5
t-29.5 70.5t29.5 70.5t70.5 29.5h705q330 -2 563 -236t233 -564q0 -331 -235 -565q-234 -235 -566 -235h-500q-45 0 -73 34q-27 31 -27 75v891h-100q-41 0 -70.5 29.5t-29.5 70.5t29.5 70.5t70.5 29.5h705z" />
    <glyph glyph-name="Gbreve" unicode="&#x11e;" horiz-adv-x="1600" 
d="M1365 1365q30 -29 30 -70q0 -42 -30 -71q-29 -29 -70 -29q-42 0 -71 29q-176 176 -424 176t-424 -176t-176 -424t176 -424t424 -176q225 0 395 150q60 52 60 100v50h-192q-113 -100 -263 -100q-166 0 -283 117t-117 283t117 283t283 117q160 0 274 -109q38 -38 38 -79
t-29 -71q-30 -29 -71 -29q-43 0 -74 33q-58 55 -138 55q-83 0 -141 -59q-59 -58 -59 -141t59 -141q58 -59 141 -59q80 0 138 55q47 45 96 45h321q44 0 72 -29q28 -28 28 -71v-500q0 -41 -29 -70q-30 -30 -71 -30t-70 30q-30 29 -30 70v44q-206 -144 -455 -144
q-331 0 -566 235q-234 234 -234 565t234 566q235 234 566 234q330 0 565 -235zM395 2082q11 41 48 61q37 21 78 9q40 -12 61 -49q55 -99 213 -99q155 0 208 98q20 37 60 50q41 12 78 -8t49 -61q13 -40 -7 -78q-55 -100 -166 -155q-101 -51 -223 -50q-121 0 -223 50
q-112 55 -168 154q-20 37 -8 78z" />
    <glyph glyph-name="gbreve" unicode="&#x11f;" horiz-adv-x="1650" 
d="M1365 1365q30 -29 30 -70q0 -42 -30 -71q-29 -29 -70 -29q-42 0 -71 29q-176 176 -424 176t-424 -176t-176 -424t176 -424t424 -176q225 0 395 150q60 52 60 100v50h-192q-113 -100 -263 -100q-166 0 -283 117t-117 283t117 283t283 117q160 0 274 -109q38 -38 38 -79
t-29 -71q-30 -29 -71 -29q-43 0 -74 33q-58 55 -138 55q-83 0 -141 -59q-59 -58 -59 -141t59 -141q58 -59 141 -59q80 0 138 55q47 45 96 45h321q44 0 72 -29q28 -28 28 -71v-500q0 -41 -29 -70q-30 -30 -71 -30t-70 30q-30 29 -30 70v44q-206 -144 -455 -144
q-331 0 -566 235q-234 234 -234 565t234 566q235 234 566 234q330 0 565 -235zM365 2082q11 41 48 61q37 21 78 9q40 -12 61 -49q55 -99 213 -99q155 0 208 98q20 37 60 50q41 12 78 -8t49 -61q13 -40 -7 -78q-55 -100 -166 -155q-101 -51 -223 -50q-121 0 -223 50
q-112 55 -168 154q-20 37 -8 78z" />
    <glyph glyph-name="Idotaccent" unicode="&#x130;" horiz-adv-x="800" 
d="M399 200v1000h-299q-41 0 -71 29q-29 30 -29 71t30 70q29 30 70 30h399q43 0 72 -30q28 -29 28 -70v-1200q0 -41 -28 -70q-29 -30 -72 -30h-399q-43 0 -72 30q-28 29 -28 70v800q0 41 29 71q30 29 71 29t70 -30q30 -29 30 -70v-700h199zM300 2000q-41 0 -70.5 -29.5
t-29.5 -70.5t29.5 -70.5t70.5 -29.5t70.5 29.5t29.5 70.5t-29.5 70.5t-70.5 29.5zM512 2112q88 -88 88 -212t-88 -212t-212 -88t-212 88t-88 212t88 212t212 88t212 -88z" />
    <glyph glyph-name="dotlessi" unicode="&#x131;" horiz-adv-x="800" 
d="M399 200v1200h-299q-41 0 -71 29q-29 30 -29 71t30 70q29 30 70 30h399q43 0 72 -30q28 -29 28 -70v-1400q0 -41 -28 -70q-29 -30 -72 -30h-399q-43 0 -72 30q-28 29 -28 70v1000q0 41 29 71q30 29 71 29t70 -30q30 -29 30 -70v-900h199z" />
    <glyph glyph-name="lcommaaccent" unicode="&#x13c;" horiz-adv-x="800" 
d="M300 800q-41 0 -70.5 -29.5t-29.5 -70.5t29.5 -70.5t70.5 -29.5t70.5 29.5t29.5 70.5t-29.5 70.5t-70.5 29.5zM512 912q88 -88 88 -212t-88 -212t-212 -88t-212 88t-88 212t88 212t212 88t212 -88z" />
    <glyph glyph-name="Lslash" unicode="&#x141;" horiz-adv-x="1400" 
d="M502 1400v-1200h700q41 0 71 -29q29 -30 29 -71t-30 -70q-29 -30 -70 -30h-800q-43 0 -72 30q-28 29 -28 70v670l-162 -65q-39 -15 -78 1q-39 17 -54 56q-16 39 1 78q16 39 55 55l238 95v510q0 42 28 71q29 29 72 29h400q43 0 72 -29q28 -29 28 -71v-270l162 65
q39 15 78 -1q39 -17 55 -56q15 -39 -1 -78q-17 -39 -56 -55l-238 -95v-510q0 -41 -29 -71q-30 -29 -71 -29t-70 30q-30 29 -30 70v900h-200z" />
    <glyph glyph-name="lslash" unicode="&#x142;" horiz-adv-x="1400" 
d="M502 1400v-1200h700q41 0 71 -29q29 -30 29 -71t-30 -70q-29 -30 -70 -30h-800q-43 0 -72 30q-28 29 -28 70v670l-162 -65q-39 -15 -78 1q-39 17 -54 56q-16 39 1 78q16 39 55 55l238 95v510q0 42 28 71q29 29 72 29h400q43 0 72 -29q28 -29 28 -71v-270l162 65
q39 15 78 -1q39 -17 55 -56q15 -39 -1 -78q-17 -39 -56 -55l-238 -95v-510q0 -41 -29 -71q-30 -29 -71 -29t-70 30q-30 29 -30 70v900h-200z" />
    <glyph glyph-name="OE" unicode="&#x152;" horiz-adv-x="2000" 
d="M800 400q-166 0 -283 117t-117 283q0 159 110 275t268 125l111 -1q45 3 78 -25q34 -29 34 -74v-600q0 -41 -30 -71q-29 -29 -70 -29h-101zM1772 171q29 -30 29 -71q0 -40 -30 -70t-70 -30h-915q-326 6 -556 239q-230 234 -230 561t229 560q230 233 556 240h916
q41 0 71 -29q29 -30 29 -71t-30 -70q-29 -30 -70 -30h-921h-2q-241 -10 -409 -184q-169 -174 -169 -416t169 -416q168 -174 409 -183q185 -1 923 -1q41 0 71 -29zM800 1000q-83 0 -141 -59q-59 -58 -59 -141t59 -141q58 -59 141 -59v400zM1701 600q41 0 71 -29
q29 -30 29 -71q0 -40 -30 -70t-70 -30h-400q-40 0 -70 29q-30 30 -30 71t29 71q29 29 71 29h400zM1401 1000h300q41 0 71 -29q29 -30 29 -71q0 -40 -30 -70t-70 -30h-400q-44 0 -73 32q-27 31 -27 73v195q0 41 29 71q29 29 71 29q40 0 70 -30t30 -70v-100z" />
    <glyph glyph-name="oe" unicode="&#x153;" horiz-adv-x="2000" 
d="M800 400q-166 0 -283 117t-117 283q0 159 110 275t268 125l111 -1q45 3 78 -25q34 -29 34 -74v-600q0 -41 -30 -71q-29 -29 -70 -29h-101zM1772 171q29 -30 29 -71q0 -40 -30 -70t-70 -30h-915q-326 6 -556 239q-230 234 -230 561t229 560q230 233 556 240h916
q41 0 71 -29q29 -30 29 -71t-30 -70q-29 -30 -70 -30h-921h-2q-241 -10 -409 -184q-169 -174 -169 -416t169 -416q168 -174 409 -183q185 -1 923 -1q41 0 71 -29zM800 1000q-83 0 -141 -59q-59 -58 -59 -141t59 -141q58 -59 141 -59v400zM1701 600q41 0 71 -29
q29 -30 29 -71q0 -40 -30 -70t-70 -30h-400q-40 0 -70 29q-30 30 -30 71t29 71q29 29 71 29h400zM1401 1000h300q41 0 71 -29q29 -30 29 -71q0 -40 -30 -70t-70 -30h-400q-44 0 -73 32q-27 31 -27 73v195q0 41 29 71q29 29 71 29q40 0 70 -30t30 -70v-100z" />
    <glyph glyph-name="Scedilla" unicode="&#x15e;" 
d="M192 387q143 -187 302 -187q125 0 212 88q88 88 88 212q0 103 -50 166l-320 363q-29 30 -29 71t29 71q29 29 70 29q45 0 75 -34l325 -367q100 -116 100 -299q0 -201 -161 -353q-154 -147 -339 -147q-153 0 -266 71q-86 54 -182 176q-35 44 -35 82q0 42 29 71t71 29
q51 0 81 -42zM797 1213q-143 187 -303 187q-124 0 -211 -88q-88 -88 -88 -212q0 -91 50 -166l320 -363q29 -30 29 -71t-29 -71q-29 -29 -71 -29q-44 0 -74 34l-325 367q-100 133 -100 299q0 201 161 354q154 146 338 146q154 0 267 -71q86 -54 182 -176q35 -44 35 -82
q0 -42 -29 -71t-71 -29q-51 0 -81 42zM201 -400q-41 0 -71 29q-29 30 -29 71t29 70q30 30 71 30h200q41 0 70 29q29 30 29 71v200q0 41 30 71q29 29 70 29t71 -30q29 -29 29 -70v-211q0 -126 -84 -207q-85 -82 -215 -82h-200z" />
    <glyph glyph-name="scedilla" unicode="&#x15f;" 
d="M194 387q143 -187 302 -187q125 0 212 88q88 88 88 212q0 103 -50 166l-320 363q-29 30 -29 71t29 71q29 29 70 29q45 0 75 -34l325 -367q100 -116 100 -299q0 -201 -161 -353q-154 -147 -339 -147q-153 0 -266 71q-86 54 -182 176q-35 44 -35 82q0 42 29 71t71 29
q51 0 81 -42zM799 1213q-143 187 -303 187q-124 0 -211 -88q-88 -88 -88 -212q0 -91 50 -166l320 -363q29 -30 29 -71t-29 -71q-29 -29 -71 -29q-44 0 -74 34l-325 367q-100 133 -100 299q0 201 161 354q154 146 338 146q154 0 267 -71q86 -54 182 -176q35 -44 35 -82
q0 -42 -29 -71t-71 -29q-51 0 -81 42zM198 -400q-41 0 -71 29q-29 30 -29 71t29 70q30 30 71 30h200q41 0 70 29q29 30 29 71v200q0 41 30 71q29 29 70 29t71 -30q29 -29 29 -70v-211q0 -126 -84 -207q-85 -82 -215 -82h-200z" />
    <glyph glyph-name="Scaron" unicode="&#x160;" 
d="M197 387q143 -187 302 -187q125 0 212 88q88 88 88 212q0 103 -50 166l-320 363q-29 30 -29 71t29 71q29 29 70 29q45 0 75 -34l325 -367q100 -116 100 -299q0 -201 -161 -353q-154 -147 -339 -147q-153 0 -266 71q-86 54 -182 176q-35 44 -35 82q0 42 29 71t71 29
q51 0 81 -42zM802 1213q-143 187 -303 187q-124 0 -211 -88q-88 -88 -88 -212q0 -91 50 -166l320 -363q29 -30 29 -71t-29 -71q-29 -29 -71 -29q-44 0 -74 34l-325 367q-100 133 -100 299q0 201 161 354q154 146 338 146q154 0 267 -71q86 -54 182 -176q35 -44 35 -82
q0 -42 -29 -71t-71 -29q-51 0 -81 42zM435 1812l-212 213q-30 29 -29.5 70.5t29.5 70.5q29 30 70 30t71 -30l142 -141l141 141q29 29 70.5 29t70.5 -29t29 -70.5t-29 -70.5l-212 -213q-29 -29 -70.5 -29t-70.5 29z" />
    <glyph glyph-name="scaron" unicode="&#x161;" 
d="M197 387q143 -187 302 -187q125 0 212 88q88 88 88 212q0 103 -50 166l-320 363q-29 30 -29 71t29 71q29 29 70 29q45 0 75 -34l325 -367q100 -116 100 -299q0 -201 -161 -353q-154 -147 -339 -147q-153 0 -266 71q-86 54 -182 176q-35 44 -35 82q0 42 29 71t71 29
q51 0 81 -42zM802 1213q-143 187 -303 187q-124 0 -211 -88q-88 -88 -88 -212q0 -91 50 -166l320 -363q29 -30 29 -71t-29 -71q-29 -29 -71 -29q-44 0 -74 34l-325 367q-100 133 -100 299q0 201 161 354q154 146 338 146q154 0 267 -71q86 -54 182 -176q35 -44 35 -82
q0 -42 -29 -71t-71 -29q-51 0 -81 42zM460 1816l-212 213q-30 29 -29.5 70.5t29.5 70.5q29 30 70 30t71 -30l142 -141l141 141q29 29 70.5 29t70.5 -29t29 -70.5t-29 -70.5l-212 -213q-29 -29 -70.5 -29t-70.5 29z" />
    <glyph glyph-name="Ydieresis" unicode="&#x178;" horiz-adv-x="1348" 
d="M18 1557q30 43 83 43h450q67 0 93 -62l156 -360l157 360q16 39 56 54q39 16 78 -1q38 -16 54 -56q15 -39 -1 -78l-248 -572q-25 -60 -95 -60q-70 -1 -96 60l-223 515h-226l225 -518q19 -45 19 -82v-600h200v300q0 41 29 71q30 29 71 29q40 0 70 -30t30 -70v-400
q-1 -41 -29 -70q-28 -30 -71 -30h-400q-43 0 -72 32q-28 30 -28 73v683l-291 669q-23 54 9 100zM482.5 1959.5q29.5 -29.5 29.5 -70.5t-29.5 -70.5t-70.5 -29.5t-70.5 29.5t-29.5 70.5t29.5 70.5t70.5 29.5t70.5 -29.5zM883 1959.5q29 -29.5 29 -70.5q0 -42 -29 -71t-71 -29
q-41 0 -70.5 29t-29.5 71q0 41 29.5 70.5t70.5 29.5q42 0 71 -29.5z" />
    <glyph glyph-name="Zcaron" unicode="&#x17d;" horiz-adv-x="1400" 
d="M1253 1535q-16 40 -55 56q-38 17 -78 1q-39 -15 -56 -54l-581 -1338h-225l545 1257q25 57 -5 101q-28 42 -83 42h-612q-41 0 -71 -30q-29 -29 -29 -70t30 -70q29 -30 70 -30h453l-545 -1255q-24 -57 7 -101t97 -44h1047q41 0 70 29q30 30 30 71t-30 70q-30 30 -70 30
h-456l545 1257q17 39 2 78zM688 1808l-212 213q-30 29 -29.5 70.5t29.5 70.5q29 30 70 30t71 -30l142 -141l141 141q29 29 70.5 29t70.5 -29t29 -70.5t-29 -70.5l-212 -213q-29 -29 -70.5 -29t-70.5 29z" />
    <glyph glyph-name="zcaron" unicode="&#x17e;" horiz-adv-x="1400" 
d="M1252 1535q-16 40 -55 56q-38 17 -78 1q-39 -15 -56 -54l-581 -1338h-225l545 1257q25 57 -5 101q-28 42 -83 42h-612q-41 0 -71 -30q-29 -29 -29 -70t30 -70q29 -30 70 -30h453l-545 -1255q-24 -57 7 -101t97 -44h1047q41 0 70 29q30 30 30 71t-30 70q-30 30 -70 30
h-456l545 1257q17 39 2 78zM640 1816l-212 213q-30 29 -29.5 70.5t29.5 70.5q29 30 70 30t71 -30l142 -141l141 141q29 29 70.5 29t70.5 -29t29 -70.5t-29 -70.5l-212 -213q-29 -29 -70.5 -29t-70.5 29z" />
    <glyph glyph-name="florin" unicode="&#x192;" horiz-adv-x="1400" 
d="M483 1440h-1l-2 -3l-1 -1q-75 -104 -77 -229v-5v-2v-200h200v200q0 165 118 282q117 118 282 118q141 0 252 -92q48 -42 48 -86q0 -42 -29 -71q-30 -29 -71 -29q-39 0 -68 25q-58 53 -132 53q-81 0 -139 -56q-58 -57 -61 -137v-207h100q41 0 70 -30q30 -29 30 -70
t-30 -71q-29 -29 -70 -29h-100v-607q-5 -277 -130 -364v-1q-30 -28 -70 -28q-41 0 -71 29q-29 29 -29 71q0 22 9 42v0l1 2v0l4 7l1 1l1 2l1 2h1l1 3h1l2 3l1 1q75 104 77 230v4v3v600h-200v-600q0 -165 -118 -282q-117 -118 -282 -118q-141 0 -252 92q-48 42 -48 86
q0 41 29 71q30 29 71 29q39 0 68 -26q58 -52 132 -52q81 0 139 56t61 137v607h-100q-41 0 -71 29q-29 30 -29 71t30 70q29 30 70 30h100v207q5 277 130 364v0q30 29 70 29q41 0 71 -29q29 -30 29 -71q0 -22 -9 -42v0l-1 -2v0l-4 -7l-1 -1l-1 -2l-1 -2l-1 -1z" />
    <glyph glyph-name="circumflex" unicode="&#x2c6;" horiz-adv-x="600" 
d="M369 2163l212 -212q29 -30 29 -71.5t-29 -70.5q-30 -29 -71 -29t-71 29l-141 142l-142 -142q-29 -29 -70.5 -29t-70.5 29t-29 71t29 71l212 212q29 29 71 29t71 -29z" />
    <glyph glyph-name="caron" unicode="&#x2c7;" horiz-adv-x="600" 
d="M228 1816l-212 213q-30 29 -29.5 70.5t29.5 70.5q29 30 70 30t71 -30l142 -141l141 141q29 29 70.5 29t70.5 -29t29 -70.5t-29 -70.5l-212 -213q-29 -29 -70.5 -29t-70.5 29z" />
    <glyph glyph-name="breve" unicode="&#x2d8;" horiz-adv-x="800" 
d="M0 2082q11 41 48 61q37 21 78 9q40 -12 61 -49q55 -99 213 -99q155 0 208 98q20 37 60 50q41 12 78 -8t49 -61q13 -40 -7 -78q-55 -100 -166 -155q-101 -51 -223 -50q-121 0 -223 50q-112 55 -168 154q-20 37 -8 78z" />
    <glyph glyph-name="dotaccent" unicode="&#x2d9;" horiz-adv-x="200" 
d="M170.5 1570.5q29.5 -29.5 29.5 -70.5t-29.5 -70.5t-70.5 -29.5t-70.5 29.5t-29.5 70.5t29.5 70.5t70.5 29.5t70.5 -29.5z" />
    <glyph glyph-name="ring" unicode="&#x2da;" horiz-adv-x="800" 
d="M300 1400q-41 0 -70.5 -29.5t-29.5 -70.5t29.5 -70.5t70.5 -29.5t70.5 29.5t29.5 70.5t-29.5 70.5t-70.5 29.5zM512 1512q88 -88 88 -212t-88 -212t-212 -88t-212 88t-88 212t88 212t212 88t212 -88z" />
    <glyph glyph-name="ogonek" unicode="&#x2db;" horiz-adv-x="800" 
d="M85 312q-85 -86 -85 -212v-600q1 -42 28 -71q29 -29 72 -29h400q43 0 72 29q28 29 28 71v400q0 41 -28 70q-29 30 -72 30h-300v100q0 41 29 70q30 30 71 30t70 29q30 30 30 71t-30 70q-29 30 -70 30q-129 0 -215 -88zM400 -200v-200h-200v200h200z" />
    <glyph glyph-name="tilde" unicode="&#x2dc;" horiz-adv-x="1000" 
d="M2 2031q9 42 44 65t77 15q41 -8 65 -44q44 -45 55 -50q75 -38 181 29q221 140 390 44q88 -50 126 -124q23 -35 15 -77q-9 -42 -44 -65q-35 -24 -77 -15q-42 8 -65 43q-47 47 -55 51q-75 37 -181 -30q-221 -139 -390 -43q-89 50 -126 124q-23 35 -15 77z" />
    <glyph glyph-name="Omega" unicode="&#x3a9;" horiz-adv-x="2400" 
d="M1808 1307q293 -293 293 -707q0 -207 -85 -400h85q41 0 71 -29q29 -30 29 -71t-30 -70q-30 -30 -70 -30h-653q-146 0 -147 133q0 87 90 193q110 128 110 274q0 166 -117 283q-118 117 -284 117q-165 0 -283 -117q-117 -117 -117 -283q0 -145 110 -274q90 -106 90 -193
q-1 -133 -147 -133h-653q-40 0 -70 30q-30 29 -30 70t29 71q30 29 71 29h85q-85 193 -85 400q0 414 293 707t707 293q415 0 708 -293zM1525 1024q176 -175 176 -424q0 -229 -155 -400h246q109 186 109 400q0 331 -235 566q-234 234 -566 234q-331 0 -565 -234
q-235 -235 -235 -566q0 -214 109 -400h245q-154 171 -154 400q0 249 176 424q176 176 424 176q249 0 425 -176z" />
    <glyph glyph-name="pi" unicode="&#x3c0;" horiz-adv-x="2200" 
d="M100 944q30 -44 83 -44q41 0 70 29q30 30 30 71q0 38 -32 75q-44 54 -44 125q0 83 59 141q58 59 141 59h215l-275 -1257q-10 -55 11 -95q24 -43 77 -47h425q34 -2 61 14q30 17 37 47l293 1338h218l-275 -1257q-21 -102 53 -134q40 -17 82 -2q43 15 52 55l293 1338h226
q41 0 70 29q30 29 30 71q0 40 -30 70q-29 30 -70 30h-1500q-164 -3 -278 -120q-115 -116 -115 -280q0 -146 93 -256zM565 200l262 1200h219l-263 -1200h-218z" />
    <glyph glyph-name="quoteleft" unicode="&#x2018;" horiz-adv-x="800" 
d="M85 1912q-85 -86 -85 -212v-600q1 -42 28 -71q29 -29 72 -29h400q43 0 72 29q28 29 28 71v400q0 41 -28 70q-29 30 -72 30h-300v100q0 41 29 70q30 30 71 30t70 29q30 30 30 71t-30 70q-29 30 -70 30q-129 0 -215 -88zM400 1400v-200h-200v200h200z" />
    <glyph glyph-name="quoteright" unicode="&#x2019;" horiz-adv-x="800" 
d="M515 888q85 86 85 212v600q0 42 -28 71q-29 29 -72 29h-400q-43 0 -72 -29q-28 -28 -28 -71v-400q0 -41 28 -70q29 -30 72 -30h300v-100q0 -41 -29 -70q-30 -30 -71 -30t-70 -29q-30 -30 -30 -71t30 -70q29 -30 70 -30q129 0 215 88zM200 1400v200h200v-200h-200z" />
    <glyph glyph-name="quotesinglbase" unicode="&#x201a;" horiz-adv-x="800" 
d="M515 -313q85 86 85 212v600q0 42 -28 71q-29 29 -72 29h-400q-43 0 -72 -29q-28 -28 -28 -71v-400q0 -41 28 -70q29 -30 72 -30h300v-100q0 -41 -29 -70q-30 -30 -71 -30t-70 -29q-30 -30 -30 -71t30 -70q29 -30 70 -30q129 0 215 88zM200 199v200h200v-200h-200z" />
    <glyph glyph-name="quotereversed" unicode="&#x201b;" horiz-adv-x="800" 
d="M300 801q41 0 70 29q30 30 30 71t-30 70q-29 30 -70 30t-71 29q-29 30 -29 71v100h300q43 0 72 29q28 29 28 71v400q0 42 -28 71q-29 29 -72 29h-400q-43 0 -72 -30q-27 -28 -28 -70v-600q0 -126 85 -213q86 -87 215 -87zM200 1401v200h200v-200h-200z" />
    <glyph glyph-name="quotedblleft" unicode="&#x201c;" horiz-adv-x="1600" 
d="M884 1912q-84 -86 -84 -212v-600q0 -42 28 -70q29 -30 72 -30h400q43 0 72 29q28 29 28 71v400q0 42 -28 71q-29 29 -72 29h-300v100q0 41 29 71q30 29 71 29t70 30q30 29 30 70t-30 71q-29 29 -70 29q-129 0 -216 -88zM1200 1400v-200h-200v200h200zM85 1912
q-85 -86 -85 -212v-600q1 -42 28 -71q29 -29 72 -29h400q43 0 72 29q28 29 28 71v400q0 41 -28 70q-29 30 -72 30h-300v100q0 41 29 70q30 30 71 30t70 29q30 30 30 71t-30 70q-29 30 -70 30q-129 0 -215 -88zM400 1400v-200h-200v200h200z" />
    <glyph glyph-name="quotedblright" unicode="&#x201d;" horiz-adv-x="1600" 
d="M515 888q85 86 85 212v600q0 42 -28 71q-29 29 -72 29h-400q-43 0 -72 -29q-28 -28 -28 -71v-400q0 -41 28 -70q29 -30 72 -30h300v-100q0 -41 -29 -70q-30 -30 -71 -30t-70 -29q-30 -30 -30 -71t30 -70q29 -30 70 -30q129 0 215 88zM200 1400v200h200v-200h-200z
M1315 888q85 87 85 213v600q-1 42 -29 70q-28 30 -71 30h-400q-43 0 -72 -29q-28 -29 -28 -71v-400q0 -42 28 -71q29 -29 72 -29h300v-100q0 -41 -29 -71q-30 -29 -71 -29t-70 -30q-30 -29 -30 -70t29 -71q30 -29 71 -29q129 0 215 87zM1000 1401v200h200v-200h-200z" />
    <glyph glyph-name="quotedblbase" unicode="&#x201e;" horiz-adv-x="1600" 
d="M515 -313q85 86 85 212v600q0 42 -28 71q-29 29 -72 29h-400q-43 0 -72 -29q-28 -28 -28 -71v-400q0 -41 28 -70q29 -30 72 -30h300v-100q0 -41 -29 -70q-30 -30 -71 -30t-70 -29q-30 -30 -30 -71t30 -70q29 -30 70 -30q129 0 215 88zM200 199v200h200v-200h-200z
M1315 -313q85 87 85 213v600q-1 42 -29 70q-28 30 -71 30h-400q-43 0 -72 -29q-28 -29 -28 -71v-400q0 -42 28 -71q29 -29 72 -29h300v-100q0 -41 -29 -71q-30 -29 -71 -29t-70 -30q-30 -29 -30 -70t29 -71q30 -29 71 -29q129 0 215 87zM1000 200v200h200v-200h-200z" />
    <glyph glyph-name="uni201F" unicode="&#x201f;" horiz-adv-x="1600" 
d="M1100 800q41 0 70 30q30 29 30 70t-30 71q-29 29 -70 29t-71 30q-29 29 -29 70v100h300q43 0 72 30q28 29 28 70v400q0 43 -28 71q-29 29 -72 29h-400q-43 0 -72 -29q-28 -29 -28 -71v-600q0 -126 84 -212q87 -88 216 -88zM1000 1400v200h200v-200h-200zM300 801
q41 0 70 29q30 30 30 71t-30 70q-29 30 -70 30t-71 29q-29 30 -29 71v100h300q43 0 72 29q28 29 28 71v400q0 42 -28 71q-29 29 -72 29h-400q-43 0 -72 -30q-27 -28 -28 -70v-600q0 -126 85 -213q86 -87 215 -87zM200 1401v200h200v-200h-200z" />
    <glyph glyph-name="dagger" unicode="&#x2020;" horiz-adv-x="800" 
d="M199 1200v300q0 41 30 71q29 29 70 29t71 -30q29 -29 29 -70v-300h100q41 0 70 -29q30 -30 30 -71t-30 -70q-29 -30 -70 -30h-100v-900q0 -41 -29 -70q-30 -30 -71 -30q-40 0 -70 30q-30 29 -30 70v900h-99q-42 0 -71 29q-29 30 -29 71t29 70q30 30 71 30h99z" />
    <glyph glyph-name="daggerdbl" unicode="&#x2021;" horiz-adv-x="800" 
d="M199 1200v300q0 41 30 71q29 29 70 29t70 -30q30 -29 30 -70v-300h100q41 0 70 -29q30 -30 30 -71t-30 -70q-30 -30 -70 -30h-100v-200h100q41 0 70 -29q30 -30 30 -71t-30 -70q-30 -30 -70 -30h-100v-500q0 -41 -29 -70q-30 -30 -71 -30t-70 30q-30 29 -30 70v500h-100
q-41 0 -70 29q-29 30 -29 71t29 70q29 30 70 30h100v200h-100q-41 0 -70 29q-29 30 -29 71t29 70q29 30 70 30h100z" />
    <glyph glyph-name="bullet" unicode="&#x2022;" horiz-adv-x="800" 
d="M300 1000q-41 0 -70.5 -29.5t-29.5 -70.5t29.5 -70.5t70.5 -29.5t70.5 29.5t29.5 70.5t-29.5 70.5t-70.5 29.5zM512 1112q88 -88 88 -212t-88 -212t-212 -88t-212 88t-88 212t88 212t212 88t212 -88z" />
    <glyph glyph-name="ellipsis" unicode="&#x2026;" horiz-adv-x="2200" 
d="M511 512q88 -88 88 -212t-88 -212t-212 -88t-212 88t-88 212t88 212t212 88t212 -88zM299 400q-41 0 -70.5 -29.5t-29.5 -70.5t29.5 -70.5t70.5 -29.5t70.5 29.5t29.5 70.5t-29.5 70.5t-70.5 29.5zM1213 512q88 -88 88 -212t-88 -212t-212 -88t-212 88t-88 212t88 212
t212 88t212 -88zM1001 400q-41 0 -70.5 -29.5t-29.5 -70.5t29.5 -70.5t70.5 -29.5t70.5 29.5t29.5 70.5t-29.5 70.5t-70.5 29.5zM1912 512q88 -88 88 -212t-88 -212t-212 -88t-212 88t-88 212t88 212t212 88t212 -88zM1700 400q-41 0 -70.5 -29.5t-29.5 -70.5t29.5 -70.5
t70.5 -29.5t70.5 29.5t29.5 70.5t-29.5 70.5t-70.5 29.5z" />
    <glyph glyph-name="perthousand" unicode="&#x2030;" horiz-adv-x="3200" 
d="M400 1598q-166 0 -283 -117t-117 -282q0 -166 117 -283t283 -117q165 0 283 117q117 117 117 283q0 165 -117 282q-118 117 -283 117zM541 1340q59 -58 59 -141t-59 -141q-58 -59 -141 -59t-142 59q-58 58 -58 141t58 141q59 59 142 59t141 -59zM1859 799
q-165 0 -283 -117q-117 -117 -117 -282q0 -166 117 -283q118 -117 283 -117q166 0 283 117t117 283q0 165 -117 282t-283 117zM2001 541q58 -59 58 -141q0 -83 -58 -142q-59 -58 -142 -58t-141 58q-59 59 -59 142q0 82 59 141q58 58 141 58t142 -58zM1496 1600q19 -1 38 -9
q39 -16 54 -56q8 -35 -1 -78l-305 -1393q-22 -53 -81 -60q-8 -4 -19 -4h-400q-9 0 -23 3q-19 2 -33 8q-39 16 -54 56q-16 39 1 78l305 1393q16 39 56 54q18 7 36 8h426zM1153 1400l-263 -1200h217l263 1200h-217zM2726 799q-165 0 -282 -117t-117 -282q0 -166 117 -283
t282 -117q166 0 283 117t117 283q0 165 -117 282t-283 117zM2868 541q58 -59 58 -141q0 -83 -58 -142q-59 -58 -142 -58q-82 0 -141 58q-59 59 -59 142q0 82 59 141q59 58 141 58q83 0 142 -58z" />
    <glyph glyph-name="guilsinglleft" unicode="&#x2039;" horiz-adv-x="600" 
d="M454 585q29 -29 29 -70.5t-29 -70.5t-70.5 -29t-70.5 29l-283 282q-30 30 -30 71t30 71l283 283q29 29 70 29t70 -30q29 -29 30 -70q0 -41 -29 -71l-212 -212z" />
    <glyph glyph-name="guilsinglright" unicode="&#x203a;" horiz-adv-x="600" 
d="M241 797l-212 212q-29 30 -29 71q1 41 30 70q29 30 70 30t70 -29l283 -283q30 -30 30 -71t-30 -71l-283 -282q-29 -29 -70.5 -29t-70.5 29t-29 70.5t29 70.5z" />
    <glyph glyph-name="franc" unicode="&#x20a3;" horiz-adv-x="2800" 
d="M730 900q0 -40 -30 -70q-29 -30 -70 -30t-70 29q-29 30 -29 71v209q-1 38 31 65q30 26 68 26h400q40 0 70 -30t30 -70q0 -41 -29 -71q-30 -29 -71 -29h-300v-100zM1130 500q0 -40 -30 -70t-70 -30h-300v-300q1 -41 -28 -70q-29 -30 -72 -30h-399q-43 0 -72 30
q-28 28 -28 70v1400q0 41 28 70q29 30 72 30h799q41 0 71 -29q29 -30 29 -71t-30 -70q-29 -30 -70 -30h-699v-1200h200v309q0 38 30 65q30 26 69 26h301v100q0 41 29.5 70.5t70.5 29.5t70.5 -29.5t29.5 -70.5v-200h-1zM1492 1400v-1300q0 -41 -29 -71q-30 -29 -71 -29
t-70 30q-30 29 -30 70v1400q0 40 28 70q29 30 72 30h700q204 0 354 -153q146 -150 146 -347q0 -153 -72 -274q-70 -118 -191 -180l205 -506q16 -39 0 -78q-17 -39 -56 -55q-39 -15 -78 1q-39 17 -55 56l-244 598q-14 36 -1 73t46 55l8 4l4 1l3 1l1 1l5 2h1h2l1 1h1
q51 15 72 26q148 79 148 274q0 112 -86 203q-88 93 -207 97h-607zM1792 1200q-45 0 -73 -29q-27 -29 -27 -76v-995q0 -41 29 -71q30 -29 71 -29t70 30q30 29 30 70v900h200q41 0 71 29q29 30 29 71t-30 70q-29 30 -70 30h-300z" />
    <glyph glyph-name="trademark" unicode="&#x2122;" horiz-adv-x="1566" 
d="M500 1600q41 0 71 -29q29 -30 29 -71t-30 -70q-29 -30 -70 -30h-100v-300q0 -41 -29 -71q-30 -29 -71 -29t-70 29q-30 30 -30 71v300h-100q-41 0 -71 29q-29 30 -29 71t30 70q29 30 70 30h400zM1162 1256v-156q0 -41 30 -71q29 -29 70 -29t71 30q29 29 29 70v400
q0 41 -29 71q-29 29 -71 29q-54 0 -83 -45l-146 -145l-159 157q-33 33 -74 33t-70 -30q-30 -29 -30 -70v-400q0 -41 29 -71q30 -29 71 -29t70 30q30 29 30 70v159l62 -61q30 -29 71 -29q42 0 71 29z" />
    <glyph glyph-name="partialdiff" unicode="&#x2202;" 
d="M400 1100q0 41 29 70q30 30 71 30t70 -29q29 -30 29 -71v-600q0 -41 -29 -70q-30 -30 -70 -30q-42 0 -71 29q-29 30 -29 71v283q-89 -31 -144 -108q-56 -78 -56 -175q0 -124 88 -212q87 -88 212 -88q124 0 211 88q88 88 88 212v600q0 124 -88 212q-87 88 -211 88
q-160 0 -303 -187q-30 -42 -81 -42q-42 0 -71 29t-29 71q0 38 35 82q96 122 182 176q113 71 267 71q184 0 338 -146q161 -153 161 -354v-600q0 -207 -146 -353q-147 -147 -353 -147q-207 0 -354 147q-146 146 -146 353q0 180 114 318q113 137 286 172v110z" />
    <glyph glyph-name="uni2206" unicode="&#x2206;" horiz-adv-x="1400" 
d="M1012 200l-79 362l102 468l194 -888q17 -38 2 -78q-16 -39 -55 -56q-24 -10 -47 -8h-598q-23 -2 -47 8q-39 17 -54 56q-16 40 1 78l275 1258h-217l-293 -1338q-17 -39 -56 -55q-39 -15 -78 1q-39 17 -54 56q-16 40 1 78l305 1394q22 52 81 60q8 4 19 4h400q9 0 23 -4
q19 -1 33 -7q39 -17 54 -56q16 -39 -1 -78l-275 -1255h364z" />
    <glyph glyph-name="product" unicode="&#x220f;" 
d="M600 1400v-1300q0 -42 -29.5 -71t-70.5 -29h-400q-42 0 -71 29.5t-29 70.5v1400q0 41 29.5 70.5t70.5 29.5h800q41 0 71 -29q29 -30 29 -70h1v-1400h-1v-1q0 -41 -29.5 -70.5t-70.5 -29.5q-42 0 -71 29.5t-29 70.5q0 8 1 15v1285h-201zM400 200v1200h-200v-1200h200z" />
    <glyph glyph-name="summation" unicode="&#x2211;" horiz-adv-x="1800" 
d="M100 0q-42 0 -71 28q-29 29 -29 72v383q-3 71 61 99l438 159l299 108l399 144l-997 361v-288l299 -109l-298 -108l-140 51q-62 26 -61 100v500q0 41 29 71q29 29 71 29h1400q40 0 70 -30q30 -29 30 -70t-30 -71q-29 -29 -70 -29h-829l865 -313q60 -25 60 -93
q1 -69 -60 -94l-439 -159l-299 -108l-598 -217v-216h1200v215l-303 109l299 109l140 -51q28 -10 46 -40q18 -28 18 -59v-383q0 -43 -30 -72q-29 -28 -70 -28h-1400z" />
    <glyph glyph-name="minus" unicode="&#x2212;" horiz-adv-x="1400" 
d="M100 401q-41 0 -70 30q-30 29 -30 69v400q0 41 29.5 70.5t70.5 29.5h1000q41 0 70.5 -29.5t29.5 -70.5h1v-400h-1q0 -40 -29 -69q-30 -30 -71 -30v-1h-1000v1zM1001 800h-801v-200h801v200z" />
    <glyph glyph-name="uni2215" unicode="&#x2215;" horiz-adv-x="600" 
d="M445 1591q-40 17 -83 0t-53 -56l-304 -1392q-21 -102 53 -134q40 -17 81 -2q44 15 53 55l305 1392q20 106 -52 137z" />
    <glyph glyph-name="uni2219" unicode="&#x2219;" horiz-adv-x="600" 
d="M200 600q-83 0 -141.5 58.5t-58.5 141.5t58.5 141.5t141.5 58.5t141.5 -58.5t58.5 -141.5t-58.5 -141.5t-141.5 -58.5z" />
    <glyph glyph-name="radical" unicode="&#x221a;" horiz-adv-x="1400" 
d="M473 566l205 934q0 41 29 70q29 30 71 30h392q41 0 71 -30q29 -29 29 -70t-30 -71q-30 -29 -70 -29h-310l-293 -1339q-14 -64 -94 -61q-79 -3 -94 61l-162 739h-117q-41 0 -70 29q-30 30 -30 71t29 70q30 30 71 30h200q51 0 76 -38q17 -24 28 -81z" />
    <glyph glyph-name="infinity" unicode="&#x221e;" horiz-adv-x="1600" 
d="M1282 1083q117 -117 117 -283t-117 -283t-283 -117q-179 0 -299 136q-120 -136 -300 -136q-166 0 -283 117t-117 283t117 283t283 117q181 0 300 -135q119 135 299 135q166 0 283 -117zM400 1000q-83 0 -142 -59q-58 -58 -58 -141t58 -142q59 -58 142 -58t141 58
q59 59 59 142t-59 141q-58 59 -141 59zM999 1000q-83 0 -141 -59q-59 -58 -59 -141t59 -142q58 -58 141 -58t142 58q58 59 58 142t-58 141q-59 59 -142 59z" />
    <glyph glyph-name="integral" unicode="&#x222b;" horiz-adv-x="1000" 
d="M856 1507q44 -30 44 -83q0 -41 -29 -70q-30 -30 -71 -30q-38 0 -75 32q-54 44 -125 44q-83 0 -141 -59q-59 -58 -59 -141v-1000q0 -165 -118 -282q-117 -118 -282 -118q-141 0 -252 92q-48 42 -48 86q0 41 29 71q30 29 71 29q39 0 68 -26q58 -52 132 -52q81 0 139 56
t61 137v1014q3 163 120 278q116 115 280 115q146 0 256 -93z" />
    <glyph glyph-name="approxequal" unicode="&#x2248;" horiz-adv-x="1148" 
d="M2 1041q9 42 44 65t77 15q41 -8 65 -44q44 -45 55 -50q75 -38 181 29q221 140 390 44q88 -50 126 -124q23 -35 15 -77q-9 -42 -44 -65q-35 -24 -77 -15q-42 8 -65 43q-47 47 -55 51q-75 37 -181 -30q-221 -139 -390 -43q-89 50 -126 124q-23 35 -15 77zM2 631q9 42 44 65
t77 15q41 -8 65 -43q44 -46 55 -51q75 -38 181 29q221 140 390 44q88 -50 126 -124q23 -35 15 -77q-9 -42 -44 -65t-77 -15q-41 8 -65 43q-47 48 -55 51q-75 38 -181 -29q-221 -140 -390 -44q-89 50 -126 124q-23 35 -15 77z" />
    <glyph glyph-name="notequal" unicode="&#x2260;" horiz-adv-x="1400" 
d="M500 900h-400q-41 0 -70.5 29.5t-29.5 70.5t29.5 70.5t70.5 29.5h444l95 435q10 39 53 56t83 0q72 -31 52 -137l-78 -354h351q42 0 71 -29.5t29 -70.5q0 -42 -29 -71t-71 -29h-394l-44 -200h438q42 0 71 -29.5t29 -70.5q0 -42 -29 -71t-71 -29h-482l-96 -438
q-10 -40 -53 -55q-41 -15 -81 2q-74 32 -54 134l78 357h-312q-41 0 -70.5 29.5t-29.5 70.5t29.5 70.5t70.5 29.5h356z" />
    <glyph glyph-name="equivalence" unicode="&#x2261;" horiz-adv-x="1400" 
d="M100 1200q-41 0 -70.5 29.5t-29.5 70.5t29.5 70.5t70.5 29.5h1000q42 0 71 -29.5t29 -70.5q0 -42 -29 -71t-71 -29h-1000zM100 800q-41 0 -70.5 29.5t-29.5 70.5t29.5 70.5t70.5 29.5h1000q42 0 71 -29.5t29 -70.5q0 -42 -29 -71t-71 -29h-1000zM100 400
q-41 0 -70.5 29.5t-29.5 70.5t29.5 70.5t70.5 29.5h1000q42 0 71 -29.5t29 -70.5q0 -42 -29 -71t-71 -29h-1000z" />
    <glyph glyph-name="lessequal" unicode="&#x2264;" horiz-adv-x="800" 
d="M595 523q29 -29 29 -71t-29 -71t-70.5 -29t-70.5 29l-424 425q-30 29 -30 70t30 71l424 424q29 29 70 29t71 -29q29 -29 29 -71q0 -41 -29 -70l-353 -354zM100 0q-41 0 -70.5 29.5t-29.5 70.5t29.5 70.5t70.5 29.5h400q41 0 70.5 -29.5t29.5 -70.5q0 -42 -29.5 -71
t-70.5 -29h-400z" />
    <glyph glyph-name="greaterequal" unicode="&#x2265;" horiz-adv-x="800" 
d="M383 876l-354 354q-29 29 -29 70q1 42 30 71t70 29t70 -29l425 -424q29 -30 29 -71t-29 -70l-425 -425q-29 -29 -70.5 -29t-70.5 29t-29 71t29 71zM100 0q-41 0 -70.5 29.5t-29.5 70.5t29.5 70.5t70.5 29.5h400q41 0 70.5 -29.5t29.5 -70.5q0 -42 -29.5 -71t-70.5 -29
h-400z" />
    <glyph glyph-name="lozenge" unicode="&#x25ca;" horiz-adv-x="1400" 
d="M1181 859q21 -29 19 -66q-2 -36 -26 -62l-490 -688q-24 -34 -66 -42q-42 -7 -77 18q-14 10 -24 24v0l-497 697q-41 59 1 119h-1l497 698q25 34 67 41t76 -17q16 -11 27 -28zM601 1321l-372 -521l372 -521l371 521z" />
    <glyph glyph-name="uniE000" unicode="&#xe000;" horiz-adv-x="1400" 
d="M100 201q-41 0 -70 30q-30 29 -30 69v1000q0 41 29.5 70.5t70.5 29.5h1000q41 0 70.5 -29.5t29.5 -70.5h1v-1000h-1q0 -40 -29 -69q-30 -30 -71 -30v-1h-1000v1z" />
    <glyph glyph-name="uniF000" unicode="&#xf000;" horiz-adv-x="1800" 
d="M201 1400v-800h1200v800h-1200zM401 1200h800v-400h-800v400zM1001 200h100q41 0 70 -30q30 -29 30 -70t-30 -70q-30 -30 -70 -30h-600q-42 0 -71 29q-29 30 -29 71t29 70q29 30 71 30h86v200h-486q-40 0 -70 30q-31 32 -30 73v996q-1 42 28 71q29 30 72 30l1399 -1
q40 0 70 -29q30 -30 31 -74v-996q0 -41 -30 -71q-29 -30 -70 -30l-500 1v-200z" />
    <glyph glyph-name="Euro" unicode="&#x20ac;" horiz-adv-x="1489" 
d="M1236 1526q64 -25 64 -93q0 -42 -29 -71q-30 -29 -71 -29q-18 0 -49 12q-119 55 -251 55q-248 0 -424 -176q-176 -175 -176 -424q0 -248 176 -424t424 -176q130 0 249 55q29 13 51 13q41 0 71 -30q29 -29 29 -70q0 -77 -74 -97q-158 -71 -326 -71q-248 0 -452 141
q-199 136 -289 359h-59q-41 0 -71 30q-29 29 -29 70q0 40 30 70t70 30h7q-12 102 0 200h-7q-40 0 -70 30q-30 29 -30 70t30 71q29 29 70 29h59q90 223 289 360q204 140 452 140q178 0 336 -74zM700 700q-39 0 -69 -29q-31 -30 -31 -71q0 -40 30 -70q29 -30 70 -30h400
q41 0 71 30q29 29 29 70q0 40 -30 70t-70 30h-400zM1100 1100q41 0 71 -29q29 -29 29 -71q0 -39 -30 -70q-30 -30 -70 -30h-400q-39 0 -69 30q-31 30 -31 70q0 41 30 71q29 29 70 29h400z" />
    </font>
</defs>
</svg>
